<mxfile host="app.diagrams.net" agent="Mozilla/5.0 (Windows NT 10.0; Win64; x64) AppleWebKit/537.36 (KHTML, like Gecko) Chrome/136.0.0.0 Safari/537.36" version="27.0.3">
  <diagram name="Page-1" id="BECqvl3VT9lfQXmkNtaU">
    <mxGraphModel dx="4968" dy="2648" grid="1" gridSize="10" guides="1" tooltips="1" connect="1" arrows="1" fold="1" page="0" pageScale="1" pageWidth="850" pageHeight="1100" math="0" shadow="0">
      <root>
        <mxCell id="0" />
        <mxCell id="1" parent="0" />
        <mxCell id="pflW-3yKm34LbVUq-xgN-820" value="" style="group" vertex="1" connectable="0" parent="1">
          <mxGeometry x="-590" y="-40" width="1231.1200000000001" height="1550" as="geometry" />
        </mxCell>
        <mxCell id="pflW-3yKm34LbVUq-xgN-25" value="Cluster Picking &lt;br&gt;&lt;span style=&quot;font-weight: normal;&quot;&gt;[Multiple Order - One Cluster - Multiple Picker- Multiple Delivery Point]&lt;/span&gt;" style="text;html=1;align=center;verticalAlign=middle;whiteSpace=wrap;rounded=0;fontStyle=1;fontSize=34;" vertex="1" parent="pflW-3yKm34LbVUq-xgN-820">
          <mxGeometry x="49" width="1100" height="50" as="geometry" />
        </mxCell>
        <mxCell id="pflW-3yKm34LbVUq-xgN-499" value="" style="group" vertex="1" connectable="0" parent="pflW-3yKm34LbVUq-xgN-820">
          <mxGeometry y="97.5" width="1231.1200000000001" height="1452.5" as="geometry" />
        </mxCell>
        <mxCell id="pflW-3yKm34LbVUq-xgN-266" value="&lt;span style=&quot;color: rgb(0, 0, 0); font-family: Helvetica; font-style: normal; font-variant-ligatures: normal; font-variant-caps: normal; font-weight: 400; letter-spacing: normal; orphans: 2; text-align: center; text-indent: 0px; text-transform: none; widows: 2; word-spacing: 0px; -webkit-text-stroke-width: 0px; white-space: normal; background-color: rgb(236, 236, 236); text-decoration-thickness: initial; text-decoration-style: initial; text-decoration-color: initial; float: none; display: inline !important;&quot;&gt;Change PTL based on SPS Order&amp;nbsp;&lt;/span&gt;" style="text;whiteSpace=wrap;html=1;fontSize=8;" vertex="1" parent="pflW-3yKm34LbVUq-xgN-499">
          <mxGeometry x="242" y="772.5" width="126" height="20" as="geometry" />
        </mxCell>
        <mxCell id="pflW-3yKm34LbVUq-xgN-7" style="edgeStyle=orthogonalEdgeStyle;rounded=0;orthogonalLoop=1;jettySize=auto;html=1;exitX=0.5;exitY=1;exitDx=0;exitDy=0;" edge="1" parent="pflW-3yKm34LbVUq-xgN-499" source="pflW-3yKm34LbVUq-xgN-1" target="pflW-3yKm34LbVUq-xgN-3">
          <mxGeometry relative="1" as="geometry" />
        </mxCell>
        <mxCell id="pflW-3yKm34LbVUq-xgN-1" value="SPS Order" style="rounded=0;whiteSpace=wrap;html=1;" vertex="1" parent="pflW-3yKm34LbVUq-xgN-499">
          <mxGeometry x="124" y="2.5" width="120" height="20" as="geometry" />
        </mxCell>
        <mxCell id="pflW-3yKm34LbVUq-xgN-9" style="edgeStyle=orthogonalEdgeStyle;rounded=0;orthogonalLoop=1;jettySize=auto;html=1;exitX=0.5;exitY=1;exitDx=0;exitDy=0;entryX=0.5;entryY=0;entryDx=0;entryDy=0;" edge="1" parent="pflW-3yKm34LbVUq-xgN-499" source="pflW-3yKm34LbVUq-xgN-2">
          <mxGeometry relative="1" as="geometry">
            <mxPoint x="184" y="132.5" as="targetPoint" />
          </mxGeometry>
        </mxCell>
        <mxCell id="pflW-3yKm34LbVUq-xgN-2" value="Reflects in Picker PDA" style="rounded=0;whiteSpace=wrap;html=1;" vertex="1" parent="pflW-3yKm34LbVUq-xgN-499">
          <mxGeometry x="124" y="82.5" width="120" height="30" as="geometry" />
        </mxCell>
        <mxCell id="pflW-3yKm34LbVUq-xgN-8" style="edgeStyle=orthogonalEdgeStyle;rounded=0;orthogonalLoop=1;jettySize=auto;html=1;exitX=0.5;exitY=1;exitDx=0;exitDy=0;" edge="1" parent="pflW-3yKm34LbVUq-xgN-499" source="pflW-3yKm34LbVUq-xgN-3" target="pflW-3yKm34LbVUq-xgN-2">
          <mxGeometry relative="1" as="geometry" />
        </mxCell>
        <mxCell id="pflW-3yKm34LbVUq-xgN-3" value="Auto Assign Cart#" style="rounded=0;whiteSpace=wrap;html=1;" vertex="1" parent="pflW-3yKm34LbVUq-xgN-499">
          <mxGeometry x="124" y="42.5" width="120" height="20" as="geometry" />
        </mxCell>
        <mxCell id="pflW-3yKm34LbVUq-xgN-114" style="edgeStyle=orthogonalEdgeStyle;rounded=0;orthogonalLoop=1;jettySize=auto;html=1;exitX=1;exitY=0.5;exitDx=0;exitDy=0;entryX=0;entryY=0.5;entryDx=0;entryDy=0;" edge="1" parent="pflW-3yKm34LbVUq-xgN-499" source="pflW-3yKm34LbVUq-xgN-185" target="pflW-3yKm34LbVUq-xgN-56">
          <mxGeometry relative="1" as="geometry">
            <mxPoint x="178" y="472.5" as="sourcePoint" />
            <Array as="points">
              <mxPoint x="293" y="565.5" />
              <mxPoint x="293" y="12.5" />
            </Array>
          </mxGeometry>
        </mxCell>
        <mxCell id="pflW-3yKm34LbVUq-xgN-55" style="edgeStyle=orthogonalEdgeStyle;rounded=0;orthogonalLoop=1;jettySize=auto;html=1;exitX=0.5;exitY=1;exitDx=0;exitDy=0;" edge="1" parent="pflW-3yKm34LbVUq-xgN-499" source="pflW-3yKm34LbVUq-xgN-56" target="pflW-3yKm34LbVUq-xgN-60">
          <mxGeometry relative="1" as="geometry" />
        </mxCell>
        <mxCell id="pflW-3yKm34LbVUq-xgN-56" value="SPS Order" style="rounded=0;whiteSpace=wrap;html=1;" vertex="1" parent="pflW-3yKm34LbVUq-xgN-499">
          <mxGeometry x="372" y="2.5" width="120" height="20" as="geometry" />
        </mxCell>
        <mxCell id="pflW-3yKm34LbVUq-xgN-57" style="edgeStyle=orthogonalEdgeStyle;rounded=0;orthogonalLoop=1;jettySize=auto;html=1;exitX=0.5;exitY=1;exitDx=0;exitDy=0;entryX=0.5;entryY=0;entryDx=0;entryDy=0;" edge="1" parent="pflW-3yKm34LbVUq-xgN-499" source="pflW-3yKm34LbVUq-xgN-58">
          <mxGeometry relative="1" as="geometry">
            <mxPoint x="432" y="132.5" as="targetPoint" />
          </mxGeometry>
        </mxCell>
        <mxCell id="pflW-3yKm34LbVUq-xgN-58" value="Reflects in Picker PDA" style="rounded=0;whiteSpace=wrap;html=1;" vertex="1" parent="pflW-3yKm34LbVUq-xgN-499">
          <mxGeometry x="372" y="82.5" width="120" height="30" as="geometry" />
        </mxCell>
        <mxCell id="pflW-3yKm34LbVUq-xgN-59" style="edgeStyle=orthogonalEdgeStyle;rounded=0;orthogonalLoop=1;jettySize=auto;html=1;exitX=0.5;exitY=1;exitDx=0;exitDy=0;" edge="1" parent="pflW-3yKm34LbVUq-xgN-499" source="pflW-3yKm34LbVUq-xgN-60" target="pflW-3yKm34LbVUq-xgN-58">
          <mxGeometry relative="1" as="geometry" />
        </mxCell>
        <mxCell id="pflW-3yKm34LbVUq-xgN-60" value="Auto Assign Cart#" style="rounded=0;whiteSpace=wrap;html=1;" vertex="1" parent="pflW-3yKm34LbVUq-xgN-499">
          <mxGeometry x="372" y="42.5" width="120" height="20" as="geometry" />
        </mxCell>
        <mxCell id="pflW-3yKm34LbVUq-xgN-72" style="edgeStyle=orthogonalEdgeStyle;rounded=0;orthogonalLoop=1;jettySize=auto;html=1;exitX=0.5;exitY=1;exitDx=0;exitDy=0;entryX=0.5;entryY=0;entryDx=0;entryDy=0;entryPerimeter=0;" edge="1" parent="pflW-3yKm34LbVUq-xgN-499" target="pflW-3yKm34LbVUq-xgN-233">
          <mxGeometry relative="1" as="geometry">
            <mxPoint x="432" y="212.5" as="sourcePoint" />
            <mxPoint x="432" y="232.5" as="targetPoint" />
          </mxGeometry>
        </mxCell>
        <mxCell id="pflW-3yKm34LbVUq-xgN-84" value="Reject &amp;amp; Fore Re-scan" style="text;html=1;align=center;verticalAlign=middle;whiteSpace=wrap;rounded=0;rotation=270;" vertex="1" parent="pflW-3yKm34LbVUq-xgN-499">
          <mxGeometry x="277" y="393.5" width="140" height="20" as="geometry" />
        </mxCell>
        <mxCell id="pflW-3yKm34LbVUq-xgN-379" style="edgeStyle=orthogonalEdgeStyle;rounded=0;orthogonalLoop=1;jettySize=auto;html=1;exitX=0.5;exitY=1;exitDx=0;exitDy=0;entryX=0.5;entryY=0;entryDx=0;entryDy=0;" edge="1" parent="pflW-3yKm34LbVUq-xgN-499" source="pflW-3yKm34LbVUq-xgN-117" target="pflW-3yKm34LbVUq-xgN-317">
          <mxGeometry relative="1" as="geometry" />
        </mxCell>
        <mxCell id="pflW-3yKm34LbVUq-xgN-117" value="SPS Order" style="rounded=0;whiteSpace=wrap;html=1;" vertex="1" parent="pflW-3yKm34LbVUq-xgN-499">
          <mxGeometry x="842" y="2.5" width="120" height="20" as="geometry" />
        </mxCell>
        <mxCell id="pflW-3yKm34LbVUq-xgN-163" style="edgeStyle=orthogonalEdgeStyle;rounded=0;orthogonalLoop=1;jettySize=auto;html=1;exitX=0.5;exitY=0;exitDx=0;exitDy=0;entryX=0;entryY=0.5;entryDx=0;entryDy=0;" edge="1" parent="pflW-3yKm34LbVUq-xgN-499" source="pflW-3yKm34LbVUq-xgN-168" target="pflW-3yKm34LbVUq-xgN-175">
          <mxGeometry relative="1" as="geometry">
            <mxPoint x="539" y="162.5" as="sourcePoint" />
            <mxPoint x="39" y="192.5" as="targetPoint" />
          </mxGeometry>
        </mxCell>
        <mxCell id="pflW-3yKm34LbVUq-xgN-164" value="Force Re-scan" style="text;html=1;align=center;verticalAlign=middle;whiteSpace=wrap;rounded=0;" vertex="1" parent="pflW-3yKm34LbVUq-xgN-499">
          <mxGeometry x="30" y="326.5" width="90" height="20" as="geometry" />
        </mxCell>
        <mxCell id="pflW-3yKm34LbVUq-xgN-165" style="edgeStyle=orthogonalEdgeStyle;rounded=0;orthogonalLoop=1;jettySize=auto;html=1;exitX=0;exitY=0.5;exitDx=0;exitDy=0;entryX=1;entryY=0.5;entryDx=0;entryDy=0;" edge="1" parent="pflW-3yKm34LbVUq-xgN-499" source="pflW-3yKm34LbVUq-xgN-167">
          <mxGeometry relative="1" as="geometry">
            <mxPoint x="117" y="420.5" as="targetPoint" />
          </mxGeometry>
        </mxCell>
        <mxCell id="pflW-3yKm34LbVUq-xgN-166" style="edgeStyle=orthogonalEdgeStyle;rounded=0;orthogonalLoop=1;jettySize=auto;html=1;exitX=0.5;exitY=1;exitDx=0;exitDy=0;entryX=0.5;entryY=0;entryDx=0;entryDy=0;" edge="1" parent="pflW-3yKm34LbVUq-xgN-499" source="pflW-3yKm34LbVUq-xgN-167" target="pflW-3yKm34LbVUq-xgN-171">
          <mxGeometry relative="1" as="geometry" />
        </mxCell>
        <mxCell id="pflW-3yKm34LbVUq-xgN-167" value="Wrong Cart Scanned" style="rhombus;whiteSpace=wrap;html=1;" vertex="1" parent="pflW-3yKm34LbVUq-xgN-499">
          <mxGeometry x="144" y="380.5" width="80" height="80" as="geometry" />
        </mxCell>
        <mxCell id="pflW-3yKm34LbVUq-xgN-168" value="Rejects Cart#" style="rounded=0;whiteSpace=wrap;html=1;" vertex="1" parent="pflW-3yKm34LbVUq-xgN-499">
          <mxGeometry y="405.5" width="120" height="30" as="geometry" />
        </mxCell>
        <mxCell id="pflW-3yKm34LbVUq-xgN-169" value="Yes" style="text;html=1;align=center;verticalAlign=middle;whiteSpace=wrap;rounded=0;" vertex="1" parent="pflW-3yKm34LbVUq-xgN-499">
          <mxGeometry x="121" y="405.5" width="30" height="10" as="geometry" />
        </mxCell>
        <mxCell id="pflW-3yKm34LbVUq-xgN-170" style="edgeStyle=orthogonalEdgeStyle;rounded=0;orthogonalLoop=1;jettySize=auto;html=1;exitX=0.5;exitY=1;exitDx=0;exitDy=0;" edge="1" parent="pflW-3yKm34LbVUq-xgN-499" source="pflW-3yKm34LbVUq-xgN-171" target="pflW-3yKm34LbVUq-xgN-185">
          <mxGeometry relative="1" as="geometry" />
        </mxCell>
        <mxCell id="pflW-3yKm34LbVUq-xgN-171" value="Turn ON PTL&amp;nbsp;" style="rounded=0;whiteSpace=wrap;html=1;" vertex="1" parent="pflW-3yKm34LbVUq-xgN-499">
          <mxGeometry x="124" y="480.5" width="120" height="30" as="geometry" />
        </mxCell>
        <mxCell id="pflW-3yKm34LbVUq-xgN-172" value="" style="ellipse;whiteSpace=wrap;html=1;aspect=fixed;fillColor=#f8cecc;strokeColor=#b85450;" vertex="1" parent="pflW-3yKm34LbVUq-xgN-499">
          <mxGeometry x="224" y="490.5" width="10" height="10" as="geometry" />
        </mxCell>
        <mxCell id="pflW-3yKm34LbVUq-xgN-173" value="No" style="text;html=1;align=center;verticalAlign=middle;whiteSpace=wrap;rounded=0;" vertex="1" parent="pflW-3yKm34LbVUq-xgN-499">
          <mxGeometry x="184" y="460.5" width="30" height="10" as="geometry" />
        </mxCell>
        <mxCell id="pflW-3yKm34LbVUq-xgN-174" style="edgeStyle=orthogonalEdgeStyle;rounded=0;orthogonalLoop=1;jettySize=auto;html=1;exitX=0.5;exitY=1;exitDx=0;exitDy=0;entryX=0.5;entryY=0;entryDx=0;entryDy=0;" edge="1" parent="pflW-3yKm34LbVUq-xgN-499" source="pflW-3yKm34LbVUq-xgN-175" target="pflW-3yKm34LbVUq-xgN-167">
          <mxGeometry relative="1" as="geometry" />
        </mxCell>
        <mxCell id="pflW-3yKm34LbVUq-xgN-175" value="Scan Empty Cart to confirm Mapping" style="rounded=0;whiteSpace=wrap;html=1;" vertex="1" parent="pflW-3yKm34LbVUq-xgN-499">
          <mxGeometry x="124" y="332.5" width="120" height="30" as="geometry" />
        </mxCell>
        <mxCell id="pflW-3yKm34LbVUq-xgN-176" style="edgeStyle=orthogonalEdgeStyle;rounded=0;orthogonalLoop=1;jettySize=auto;html=1;exitX=0.5;exitY=1;exitDx=0;exitDy=0;" edge="1" parent="pflW-3yKm34LbVUq-xgN-499" source="pflW-3yKm34LbVUq-xgN-177" target="pflW-3yKm34LbVUq-xgN-175">
          <mxGeometry relative="1" as="geometry" />
        </mxCell>
        <mxCell id="pflW-3yKm34LbVUq-xgN-177" value="Damaged Cart&amp;nbsp;" style="rhombus;whiteSpace=wrap;html=1;" vertex="1" parent="pflW-3yKm34LbVUq-xgN-499">
          <mxGeometry x="144" y="232.5" width="80" height="80" as="geometry" />
        </mxCell>
        <mxCell id="pflW-3yKm34LbVUq-xgN-178" value="Yes" style="text;html=1;align=center;verticalAlign=middle;whiteSpace=wrap;rounded=0;" vertex="1" parent="pflW-3yKm34LbVUq-xgN-499">
          <mxGeometry x="110" y="262.5" width="40" height="10" as="geometry" />
        </mxCell>
        <mxCell id="pflW-3yKm34LbVUq-xgN-250" style="edgeStyle=orthogonalEdgeStyle;rounded=0;orthogonalLoop=1;jettySize=auto;html=1;exitX=0.5;exitY=1;exitDx=0;exitDy=0;entryX=0.5;entryY=0;entryDx=0;entryDy=0;" edge="1" parent="pflW-3yKm34LbVUq-xgN-499" source="pflW-3yKm34LbVUq-xgN-180" target="pflW-3yKm34LbVUq-xgN-249">
          <mxGeometry relative="1" as="geometry" />
        </mxCell>
        <mxCell id="pflW-3yKm34LbVUq-xgN-180" value="Pick the Part and Turn off PTL" style="rounded=0;whiteSpace=wrap;html=1;" vertex="1" parent="pflW-3yKm34LbVUq-xgN-499">
          <mxGeometry x="123" y="626.5" width="120" height="30" as="geometry" />
        </mxCell>
        <mxCell id="pflW-3yKm34LbVUq-xgN-184" style="edgeStyle=orthogonalEdgeStyle;rounded=0;orthogonalLoop=1;jettySize=auto;html=1;exitX=0.5;exitY=1;exitDx=0;exitDy=0;entryX=0.5;entryY=0;entryDx=0;entryDy=0;" edge="1" parent="pflW-3yKm34LbVUq-xgN-499" source="pflW-3yKm34LbVUq-xgN-185" target="pflW-3yKm34LbVUq-xgN-180">
          <mxGeometry relative="1" as="geometry" />
        </mxCell>
        <mxCell id="pflW-3yKm34LbVUq-xgN-185" value="Parallel Picking" style="rhombus;whiteSpace=wrap;html=1;" vertex="1" parent="pflW-3yKm34LbVUq-xgN-499">
          <mxGeometry x="144" y="525.5" width="80" height="80" as="geometry" />
        </mxCell>
        <mxCell id="pflW-3yKm34LbVUq-xgN-186" value="No" style="text;html=1;align=center;verticalAlign=middle;whiteSpace=wrap;rounded=0;" vertex="1" parent="pflW-3yKm34LbVUq-xgN-499">
          <mxGeometry x="184" y="612.5" width="30" height="12" as="geometry" />
        </mxCell>
        <mxCell id="pflW-3yKm34LbVUq-xgN-190" style="edgeStyle=orthogonalEdgeStyle;rounded=0;orthogonalLoop=1;jettySize=auto;html=1;exitX=0.5;exitY=1;exitDx=0;exitDy=0;entryX=0.5;entryY=0;entryDx=0;entryDy=0;" edge="1" parent="pflW-3yKm34LbVUq-xgN-499" source="pflW-3yKm34LbVUq-xgN-187">
          <mxGeometry relative="1" as="geometry">
            <mxPoint x="184" y="232.5" as="targetPoint" />
          </mxGeometry>
        </mxCell>
        <mxCell id="pflW-3yKm34LbVUq-xgN-192" style="edgeStyle=orthogonalEdgeStyle;rounded=0;orthogonalLoop=1;jettySize=auto;html=1;exitX=1;exitY=0.5;exitDx=0;exitDy=0;entryX=0;entryY=0.5;entryDx=0;entryDy=0;" edge="1" parent="pflW-3yKm34LbVUq-xgN-499" source="pflW-3yKm34LbVUq-xgN-187" target="pflW-3yKm34LbVUq-xgN-56">
          <mxGeometry relative="1" as="geometry">
            <Array as="points">
              <mxPoint x="339" y="172.5" />
              <mxPoint x="339" y="12.5" />
            </Array>
          </mxGeometry>
        </mxCell>
        <mxCell id="pflW-3yKm34LbVUq-xgN-187" value="User Accept" style="rhombus;whiteSpace=wrap;html=1;" vertex="1" parent="pflW-3yKm34LbVUq-xgN-499">
          <mxGeometry x="144" y="132.5" width="80" height="80" as="geometry" />
        </mxCell>
        <mxCell id="pflW-3yKm34LbVUq-xgN-188" style="edgeStyle=orthogonalEdgeStyle;rounded=0;orthogonalLoop=1;jettySize=auto;html=1;exitX=0.875;exitY=0.989;exitDx=0;exitDy=0;entryX=0;entryY=0.5;entryDx=0;entryDy=0;exitPerimeter=0;" edge="1" parent="pflW-3yKm34LbVUq-xgN-499" source="pflW-3yKm34LbVUq-xgN-178" target="pflW-3yKm34LbVUq-xgN-3">
          <mxGeometry relative="1" as="geometry">
            <mxPoint x="138" y="272.4999999999999" as="sourcePoint" />
            <mxPoint x="118" y="152.5" as="targetPoint" />
            <Array as="points">
              <mxPoint x="104" y="272.5" />
              <mxPoint x="104" y="52.5" />
            </Array>
          </mxGeometry>
        </mxCell>
        <mxCell id="pflW-3yKm34LbVUq-xgN-189" value="Update the PDA" style="text;html=1;align=center;verticalAlign=middle;whiteSpace=wrap;rounded=0;rotation=270;" vertex="1" parent="pflW-3yKm34LbVUq-xgN-499">
          <mxGeometry x="44" y="212.5" width="100" height="20" as="geometry" />
        </mxCell>
        <mxCell id="pflW-3yKm34LbVUq-xgN-191" value="Yes" style="text;html=1;align=center;verticalAlign=middle;whiteSpace=wrap;rounded=0;" vertex="1" parent="pflW-3yKm34LbVUq-xgN-499">
          <mxGeometry x="184" y="212.5" width="40" height="10" as="geometry" />
        </mxCell>
        <mxCell id="pflW-3yKm34LbVUq-xgN-193" value="No" style="text;html=1;align=center;verticalAlign=middle;whiteSpace=wrap;rounded=0;" vertex="1" parent="pflW-3yKm34LbVUq-xgN-499">
          <mxGeometry x="219" y="162.5" width="40" height="10" as="geometry" />
        </mxCell>
        <mxCell id="pflW-3yKm34LbVUq-xgN-194" value="Escalate to Team Leader" style="text;html=1;align=center;verticalAlign=middle;whiteSpace=wrap;rounded=0;rotation=270;" vertex="1" parent="pflW-3yKm34LbVUq-xgN-499">
          <mxGeometry x="258" y="82.5" width="140" height="20" as="geometry" />
        </mxCell>
        <mxCell id="pflW-3yKm34LbVUq-xgN-213" style="edgeStyle=orthogonalEdgeStyle;rounded=0;orthogonalLoop=1;jettySize=auto;html=1;exitX=0.5;exitY=1;exitDx=0;exitDy=0;entryX=0.5;entryY=0;entryDx=0;entryDy=0;" edge="1" parent="pflW-3yKm34LbVUq-xgN-499" source="pflW-3yKm34LbVUq-xgN-215" target="pflW-3yKm34LbVUq-xgN-218">
          <mxGeometry relative="1" as="geometry" />
        </mxCell>
        <mxCell id="pflW-3yKm34LbVUq-xgN-214" style="edgeStyle=orthogonalEdgeStyle;rounded=0;orthogonalLoop=1;jettySize=auto;html=1;exitX=0;exitY=0.5;exitDx=0;exitDy=0;entryX=0;entryY=0.5;entryDx=0;entryDy=0;" edge="1" parent="pflW-3yKm34LbVUq-xgN-499" source="pflW-3yKm34LbVUq-xgN-215" target="pflW-3yKm34LbVUq-xgN-222">
          <mxGeometry relative="1" as="geometry">
            <Array as="points">
              <mxPoint x="357" y="413.5" />
              <mxPoint x="357" y="340.5" />
            </Array>
          </mxGeometry>
        </mxCell>
        <mxCell id="pflW-3yKm34LbVUq-xgN-215" value="Wrong Cart Scanned" style="rhombus;whiteSpace=wrap;html=1;" vertex="1" parent="pflW-3yKm34LbVUq-xgN-499">
          <mxGeometry x="391.99999999999994" y="373.5" width="80" height="80" as="geometry" />
        </mxCell>
        <mxCell id="pflW-3yKm34LbVUq-xgN-216" value="Yes" style="text;html=1;align=center;verticalAlign=middle;whiteSpace=wrap;rounded=0;" vertex="1" parent="pflW-3yKm34LbVUq-xgN-499">
          <mxGeometry x="368.99999999999994" y="398.5" width="30" height="10" as="geometry" />
        </mxCell>
        <mxCell id="pflW-3yKm34LbVUq-xgN-217" style="edgeStyle=orthogonalEdgeStyle;rounded=0;orthogonalLoop=1;jettySize=auto;html=1;exitX=0.5;exitY=1;exitDx=0;exitDy=0;" edge="1" parent="pflW-3yKm34LbVUq-xgN-499" source="pflW-3yKm34LbVUq-xgN-218" target="pflW-3yKm34LbVUq-xgN-229">
          <mxGeometry relative="1" as="geometry" />
        </mxCell>
        <mxCell id="pflW-3yKm34LbVUq-xgN-218" value="Turn ON PTL&amp;nbsp;" style="rounded=0;whiteSpace=wrap;html=1;" vertex="1" parent="pflW-3yKm34LbVUq-xgN-499">
          <mxGeometry x="371.99999999999994" y="473.5" width="120" height="30" as="geometry" />
        </mxCell>
        <mxCell id="pflW-3yKm34LbVUq-xgN-219" value="" style="ellipse;whiteSpace=wrap;html=1;aspect=fixed;fillColor=#dae8fc;strokeColor=#6c8ebf;" vertex="1" parent="pflW-3yKm34LbVUq-xgN-499">
          <mxGeometry x="471.99999999999994" y="483.5" width="10" height="10" as="geometry" />
        </mxCell>
        <mxCell id="pflW-3yKm34LbVUq-xgN-220" value="No" style="text;html=1;align=center;verticalAlign=middle;whiteSpace=wrap;rounded=0;" vertex="1" parent="pflW-3yKm34LbVUq-xgN-499">
          <mxGeometry x="431.99999999999994" y="453.5" width="30" height="10" as="geometry" />
        </mxCell>
        <mxCell id="pflW-3yKm34LbVUq-xgN-221" style="edgeStyle=orthogonalEdgeStyle;rounded=0;orthogonalLoop=1;jettySize=auto;html=1;exitX=0.5;exitY=1;exitDx=0;exitDy=0;entryX=0.5;entryY=0;entryDx=0;entryDy=0;" edge="1" parent="pflW-3yKm34LbVUq-xgN-499" source="pflW-3yKm34LbVUq-xgN-222" target="pflW-3yKm34LbVUq-xgN-215">
          <mxGeometry relative="1" as="geometry" />
        </mxCell>
        <mxCell id="pflW-3yKm34LbVUq-xgN-222" value="Scan Empty Cart to confirm Mapping" style="rounded=0;whiteSpace=wrap;html=1;" vertex="1" parent="pflW-3yKm34LbVUq-xgN-499">
          <mxGeometry x="371.99999999999994" y="325.5" width="120" height="30" as="geometry" />
        </mxCell>
        <mxCell id="pflW-3yKm34LbVUq-xgN-223" style="edgeStyle=orthogonalEdgeStyle;rounded=0;orthogonalLoop=1;jettySize=auto;html=1;exitX=0.5;exitY=1;exitDx=0;exitDy=0;entryX=0.5;entryY=0;entryDx=0;entryDy=0;" edge="1" parent="pflW-3yKm34LbVUq-xgN-499" source="pflW-3yKm34LbVUq-xgN-224">
          <mxGeometry relative="1" as="geometry">
            <mxPoint x="431" y="675.5" as="targetPoint" />
          </mxGeometry>
        </mxCell>
        <mxCell id="pflW-3yKm34LbVUq-xgN-224" value="Pick the Part and Turn off PTL" style="rounded=0;whiteSpace=wrap;html=1;" vertex="1" parent="pflW-3yKm34LbVUq-xgN-499">
          <mxGeometry x="370.99999999999994" y="625.5" width="120" height="30" as="geometry" />
        </mxCell>
        <mxCell id="pflW-3yKm34LbVUq-xgN-228" style="edgeStyle=orthogonalEdgeStyle;rounded=0;orthogonalLoop=1;jettySize=auto;html=1;exitX=0.5;exitY=1;exitDx=0;exitDy=0;entryX=0.5;entryY=0;entryDx=0;entryDy=0;" edge="1" parent="pflW-3yKm34LbVUq-xgN-499" source="pflW-3yKm34LbVUq-xgN-229" target="pflW-3yKm34LbVUq-xgN-224">
          <mxGeometry relative="1" as="geometry" />
        </mxCell>
        <mxCell id="pflW-3yKm34LbVUq-xgN-301" style="edgeStyle=orthogonalEdgeStyle;rounded=0;orthogonalLoop=1;jettySize=auto;html=1;exitX=1;exitY=0.5;exitDx=0;exitDy=0;entryX=0;entryY=0.5;entryDx=0;entryDy=0;" edge="1" parent="pflW-3yKm34LbVUq-xgN-499" source="pflW-3yKm34LbVUq-xgN-229" target="pflW-3yKm34LbVUq-xgN-117">
          <mxGeometry relative="1" as="geometry" />
        </mxCell>
        <mxCell id="pflW-3yKm34LbVUq-xgN-229" value="Parallel Picking" style="rhombus;whiteSpace=wrap;html=1;" vertex="1" parent="pflW-3yKm34LbVUq-xgN-499">
          <mxGeometry x="391.99999999999994" y="525.5" width="80" height="80" as="geometry" />
        </mxCell>
        <mxCell id="pflW-3yKm34LbVUq-xgN-230" value="No" style="text;html=1;align=center;verticalAlign=middle;whiteSpace=wrap;rounded=0;" vertex="1" parent="pflW-3yKm34LbVUq-xgN-499">
          <mxGeometry x="431.99999999999994" y="605.5" width="30" height="12" as="geometry" />
        </mxCell>
        <mxCell id="pflW-3yKm34LbVUq-xgN-231" value="No" style="text;html=1;align=center;verticalAlign=middle;whiteSpace=wrap;rounded=0;" vertex="1" parent="pflW-3yKm34LbVUq-xgN-499">
          <mxGeometry x="188" y="315.5" width="40" height="10" as="geometry" />
        </mxCell>
        <mxCell id="pflW-3yKm34LbVUq-xgN-232" style="edgeStyle=orthogonalEdgeStyle;rounded=0;orthogonalLoop=1;jettySize=auto;html=1;exitX=0;exitY=0.5;exitDx=0;exitDy=0;entryX=0;entryY=0.5;entryDx=0;entryDy=0;" edge="1" parent="pflW-3yKm34LbVUq-xgN-499" source="pflW-3yKm34LbVUq-xgN-233" target="pflW-3yKm34LbVUq-xgN-58">
          <mxGeometry relative="1" as="geometry">
            <Array as="points">
              <mxPoint x="358" y="272.5" />
              <mxPoint x="358" y="97.5" />
            </Array>
            <mxPoint x="372" y="152.5" as="targetPoint" />
          </mxGeometry>
        </mxCell>
        <mxCell id="pflW-3yKm34LbVUq-xgN-238" style="edgeStyle=orthogonalEdgeStyle;rounded=0;orthogonalLoop=1;jettySize=auto;html=1;exitX=0.5;exitY=1;exitDx=0;exitDy=0;entryX=0.5;entryY=0;entryDx=0;entryDy=0;" edge="1" parent="pflW-3yKm34LbVUq-xgN-499" source="pflW-3yKm34LbVUq-xgN-233" target="pflW-3yKm34LbVUq-xgN-222">
          <mxGeometry relative="1" as="geometry" />
        </mxCell>
        <mxCell id="pflW-3yKm34LbVUq-xgN-233" value="Damaged Cart&amp;nbsp;" style="rhombus;whiteSpace=wrap;html=1;" vertex="1" parent="pflW-3yKm34LbVUq-xgN-499">
          <mxGeometry x="392" y="232.5" width="80" height="80" as="geometry" />
        </mxCell>
        <mxCell id="pflW-3yKm34LbVUq-xgN-234" value="Yes" style="text;html=1;align=center;verticalAlign=middle;whiteSpace=wrap;rounded=0;" vertex="1" parent="pflW-3yKm34LbVUq-xgN-499">
          <mxGeometry x="358" y="262.5" width="40" height="10" as="geometry" />
        </mxCell>
        <mxCell id="pflW-3yKm34LbVUq-xgN-235" value="User Accept" style="rhombus;whiteSpace=wrap;html=1;" vertex="1" parent="pflW-3yKm34LbVUq-xgN-499">
          <mxGeometry x="392" y="132.5" width="80" height="80" as="geometry" />
        </mxCell>
        <mxCell id="pflW-3yKm34LbVUq-xgN-236" value="Yes" style="text;html=1;align=center;verticalAlign=middle;whiteSpace=wrap;rounded=0;" vertex="1" parent="pflW-3yKm34LbVUq-xgN-499">
          <mxGeometry x="432" y="212.5" width="40" height="10" as="geometry" />
        </mxCell>
        <mxCell id="pflW-3yKm34LbVUq-xgN-237" value="Update the PDA" style="text;html=1;align=center;verticalAlign=middle;whiteSpace=wrap;rounded=0;rotation=270;" vertex="1" parent="pflW-3yKm34LbVUq-xgN-499">
          <mxGeometry x="317" y="199.5" width="100" height="20" as="geometry" />
        </mxCell>
        <mxCell id="pflW-3yKm34LbVUq-xgN-265" style="edgeStyle=orthogonalEdgeStyle;rounded=0;orthogonalLoop=1;jettySize=auto;html=1;exitX=0;exitY=0.5;exitDx=0;exitDy=0;entryX=1;entryY=0.5;entryDx=0;entryDy=0;" edge="1" parent="pflW-3yKm34LbVUq-xgN-499" source="pflW-3yKm34LbVUq-xgN-242" target="pflW-3yKm34LbVUq-xgN-243">
          <mxGeometry relative="1" as="geometry" />
        </mxCell>
        <mxCell id="pflW-3yKm34LbVUq-xgN-268" style="edgeStyle=orthogonalEdgeStyle;rounded=0;orthogonalLoop=1;jettySize=auto;html=1;exitX=0.5;exitY=1;exitDx=0;exitDy=0;entryX=0.5;entryY=0;entryDx=0;entryDy=0;" edge="1" parent="pflW-3yKm34LbVUq-xgN-499" source="pflW-3yKm34LbVUq-xgN-242" target="pflW-3yKm34LbVUq-xgN-261">
          <mxGeometry relative="1" as="geometry" />
        </mxCell>
        <mxCell id="pflW-3yKm34LbVUq-xgN-242" value="Common &lt;br&gt;Parts between Orders" style="rhombus;whiteSpace=wrap;html=1;" vertex="1" parent="pflW-3yKm34LbVUq-xgN-499">
          <mxGeometry x="387.5" y="672.5" width="87" height="80" as="geometry" />
        </mxCell>
        <mxCell id="pflW-3yKm34LbVUq-xgN-260" style="edgeStyle=orthogonalEdgeStyle;rounded=0;orthogonalLoop=1;jettySize=auto;html=1;exitX=0;exitY=0.5;exitDx=0;exitDy=0;entryX=1;entryY=0.5;entryDx=0;entryDy=0;" edge="1" parent="pflW-3yKm34LbVUq-xgN-499" source="pflW-3yKm34LbVUq-xgN-243" target="pflW-3yKm34LbVUq-xgN-249">
          <mxGeometry relative="1" as="geometry" />
        </mxCell>
        <mxCell id="pflW-3yKm34LbVUq-xgN-243" value="Keep the PTL&amp;nbsp;" style="rounded=0;whiteSpace=wrap;html=1;" vertex="1" parent="pflW-3yKm34LbVUq-xgN-499">
          <mxGeometry x="249" y="697.5" width="120" height="30" as="geometry" />
        </mxCell>
        <mxCell id="pflW-3yKm34LbVUq-xgN-245" style="edgeStyle=orthogonalEdgeStyle;rounded=0;orthogonalLoop=1;jettySize=auto;html=1;entryX=0.5;entryY=0;entryDx=0;entryDy=0;" edge="1" parent="pflW-3yKm34LbVUq-xgN-499" target="pflW-3yKm34LbVUq-xgN-247" source="pflW-3yKm34LbVUq-xgN-249">
          <mxGeometry relative="1" as="geometry">
            <mxPoint x="180" y="772.5" as="sourcePoint" />
          </mxGeometry>
        </mxCell>
        <mxCell id="pflW-3yKm34LbVUq-xgN-246" style="edgeStyle=orthogonalEdgeStyle;rounded=0;orthogonalLoop=1;jettySize=auto;html=1;exitX=0.5;exitY=1;exitDx=0;exitDy=0;entryX=0.5;entryY=0;entryDx=0;entryDy=0;" edge="1" parent="pflW-3yKm34LbVUq-xgN-499" source="pflW-3yKm34LbVUq-xgN-247" target="pflW-3yKm34LbVUq-xgN-248">
          <mxGeometry relative="1" as="geometry" />
        </mxCell>
        <mxCell id="pflW-3yKm34LbVUq-xgN-263" style="edgeStyle=orthogonalEdgeStyle;rounded=0;orthogonalLoop=1;jettySize=auto;html=1;exitX=1;exitY=0.5;exitDx=0;exitDy=0;entryX=0;entryY=0.5;entryDx=0;entryDy=0;" edge="1" parent="pflW-3yKm34LbVUq-xgN-499" source="pflW-3yKm34LbVUq-xgN-247" target="pflW-3yKm34LbVUq-xgN-261">
          <mxGeometry relative="1" as="geometry" />
        </mxCell>
        <mxCell id="pflW-3yKm34LbVUq-xgN-247" value="Complete the Task" style="rounded=0;whiteSpace=wrap;html=1;" vertex="1" parent="pflW-3yKm34LbVUq-xgN-499">
          <mxGeometry x="123" y="782.5" width="120" height="30" as="geometry" />
        </mxCell>
        <mxCell id="pflW-3yKm34LbVUq-xgN-248" value="Confirm the Task" style="rounded=0;whiteSpace=wrap;html=1;" vertex="1" parent="pflW-3yKm34LbVUq-xgN-499">
          <mxGeometry x="123" y="832.5" width="120" height="30" as="geometry" />
        </mxCell>
        <mxCell id="pflW-3yKm34LbVUq-xgN-249" value="Common Parts" style="rhombus;whiteSpace=wrap;html=1;" vertex="1" parent="pflW-3yKm34LbVUq-xgN-499">
          <mxGeometry x="142.99999999999994" y="672.5" width="80" height="80" as="geometry" />
        </mxCell>
        <mxCell id="pflW-3yKm34LbVUq-xgN-251" value="No" style="text;html=1;align=center;verticalAlign=middle;whiteSpace=wrap;rounded=0;" vertex="1" parent="pflW-3yKm34LbVUq-xgN-499">
          <mxGeometry x="184" y="762.5" width="30" height="10" as="geometry" />
        </mxCell>
        <mxCell id="pflW-3yKm34LbVUq-xgN-254" value="" style="ellipse;whiteSpace=wrap;html=1;aspect=fixed;fillColor=#f8cecc;strokeColor=#b85450;" vertex="1" parent="pflW-3yKm34LbVUq-xgN-499">
          <mxGeometry x="348" y="707.5" width="10" height="10" as="geometry" />
        </mxCell>
        <mxCell id="pflW-3yKm34LbVUq-xgN-256" value="Turn Second Order PTL [Blue]" style="text;html=1;align=center;verticalAlign=middle;whiteSpace=wrap;rounded=0;rotation=270;" vertex="1" parent="pflW-3yKm34LbVUq-xgN-499">
          <mxGeometry x="169" y="445.5" width="220" height="20" as="geometry" />
        </mxCell>
        <mxCell id="pflW-3yKm34LbVUq-xgN-279" style="edgeStyle=orthogonalEdgeStyle;rounded=0;orthogonalLoop=1;jettySize=auto;html=1;exitX=0.5;exitY=1;exitDx=0;exitDy=0;entryX=0.5;entryY=0;entryDx=0;entryDy=0;" edge="1" parent="pflW-3yKm34LbVUq-xgN-499" source="pflW-3yKm34LbVUq-xgN-261" target="pflW-3yKm34LbVUq-xgN-277">
          <mxGeometry relative="1" as="geometry" />
        </mxCell>
        <mxCell id="pflW-3yKm34LbVUq-xgN-389" style="edgeStyle=orthogonalEdgeStyle;rounded=0;orthogonalLoop=1;jettySize=auto;html=1;exitX=1;exitY=0.5;exitDx=0;exitDy=0;entryX=0;entryY=0.5;entryDx=0;entryDy=0;" edge="1" parent="pflW-3yKm34LbVUq-xgN-499" source="pflW-3yKm34LbVUq-xgN-261" target="pflW-3yKm34LbVUq-xgN-347">
          <mxGeometry relative="1" as="geometry" />
        </mxCell>
        <mxCell id="pflW-3yKm34LbVUq-xgN-261" value="Follow PTL" style="rounded=0;whiteSpace=wrap;html=1;" vertex="1" parent="pflW-3yKm34LbVUq-xgN-499">
          <mxGeometry x="370.99999999999994" y="782.5" width="120" height="30" as="geometry" />
        </mxCell>
        <mxCell id="pflW-3yKm34LbVUq-xgN-262" value="" style="ellipse;whiteSpace=wrap;html=1;aspect=fixed;fillColor=#dae8fc;strokeColor=#6c8ebf;" vertex="1" parent="pflW-3yKm34LbVUq-xgN-499">
          <mxGeometry x="461.99999999999994" y="792.5" width="10" height="10" as="geometry" />
        </mxCell>
        <mxCell id="pflW-3yKm34LbVUq-xgN-264" value="Yes" style="text;html=1;align=center;verticalAlign=middle;whiteSpace=wrap;rounded=0;" vertex="1" parent="pflW-3yKm34LbVUq-xgN-499">
          <mxGeometry x="372" y="697.5" width="30" height="10" as="geometry" />
        </mxCell>
        <mxCell id="pflW-3yKm34LbVUq-xgN-271" value="Confirm the Task" style="rounded=0;whiteSpace=wrap;html=1;" vertex="1" parent="pflW-3yKm34LbVUq-xgN-499">
          <mxGeometry x="368" y="1342.5" width="120" height="30" as="geometry" />
        </mxCell>
        <mxCell id="pflW-3yKm34LbVUq-xgN-273" value="No" style="text;html=1;align=center;verticalAlign=middle;whiteSpace=wrap;rounded=0;" vertex="1" parent="pflW-3yKm34LbVUq-xgN-499">
          <mxGeometry x="432" y="752.5" width="30" height="10" as="geometry" />
        </mxCell>
        <mxCell id="pflW-3yKm34LbVUq-xgN-286" style="edgeStyle=orthogonalEdgeStyle;rounded=0;orthogonalLoop=1;jettySize=auto;html=1;exitX=0.5;exitY=1;exitDx=0;exitDy=0;" edge="1" parent="pflW-3yKm34LbVUq-xgN-499" source="pflW-3yKm34LbVUq-xgN-275" target="pflW-3yKm34LbVUq-xgN-271">
          <mxGeometry relative="1" as="geometry" />
        </mxCell>
        <mxCell id="pflW-3yKm34LbVUq-xgN-275" value="Complete the Task" style="rounded=0;whiteSpace=wrap;html=1;" vertex="1" parent="pflW-3yKm34LbVUq-xgN-499">
          <mxGeometry x="369" y="1282.5" width="120" height="30" as="geometry" />
        </mxCell>
        <mxCell id="pflW-3yKm34LbVUq-xgN-281" style="edgeStyle=orthogonalEdgeStyle;rounded=0;orthogonalLoop=1;jettySize=auto;html=1;exitX=0.5;exitY=1;exitDx=0;exitDy=0;entryX=0.5;entryY=0;entryDx=0;entryDy=0;" edge="1" parent="pflW-3yKm34LbVUq-xgN-499" source="pflW-3yKm34LbVUq-xgN-277" target="pflW-3yKm34LbVUq-xgN-280">
          <mxGeometry relative="1" as="geometry" />
        </mxCell>
        <mxCell id="pflW-3yKm34LbVUq-xgN-292" style="edgeStyle=orthogonalEdgeStyle;rounded=0;orthogonalLoop=1;jettySize=auto;html=1;exitX=0;exitY=0.5;exitDx=0;exitDy=0;entryX=0;entryY=0.75;entryDx=0;entryDy=0;" edge="1" parent="pflW-3yKm34LbVUq-xgN-499" source="pflW-3yKm34LbVUq-xgN-277" target="pflW-3yKm34LbVUq-xgN-261">
          <mxGeometry relative="1" as="geometry" />
        </mxCell>
        <mxCell id="pflW-3yKm34LbVUq-xgN-277" value="PTL &lt;br&gt;Duplicate &lt;br&gt;Entry" style="rhombus;whiteSpace=wrap;html=1;" vertex="1" parent="pflW-3yKm34LbVUq-xgN-499">
          <mxGeometry x="387.5" y="832.5" width="87" height="80" as="geometry" />
        </mxCell>
        <mxCell id="pflW-3yKm34LbVUq-xgN-285" style="edgeStyle=orthogonalEdgeStyle;rounded=0;orthogonalLoop=1;jettySize=auto;html=1;exitX=0.5;exitY=1;exitDx=0;exitDy=0;entryX=0.5;entryY=0;entryDx=0;entryDy=0;" edge="1" parent="pflW-3yKm34LbVUq-xgN-499" source="pflW-3yKm34LbVUq-xgN-278" target="pflW-3yKm34LbVUq-xgN-275">
          <mxGeometry relative="1" as="geometry" />
        </mxCell>
        <mxCell id="pflW-3yKm34LbVUq-xgN-298" style="edgeStyle=orthogonalEdgeStyle;rounded=0;orthogonalLoop=1;jettySize=auto;html=1;exitX=0;exitY=0.5;exitDx=0;exitDy=0;entryX=0.5;entryY=1;entryDx=0;entryDy=0;" edge="1" parent="pflW-3yKm34LbVUq-xgN-499" source="pflW-3yKm34LbVUq-xgN-278" target="pflW-3yKm34LbVUq-xgN-296">
          <mxGeometry relative="1" as="geometry" />
        </mxCell>
        <mxCell id="pflW-3yKm34LbVUq-xgN-278" value="Picked &lt;br&gt;Parts Matches&lt;br&gt;Order&amp;nbsp;" style="rhombus;whiteSpace=wrap;html=1;" vertex="1" parent="pflW-3yKm34LbVUq-xgN-499">
          <mxGeometry x="385" y="1172.5" width="87" height="80" as="geometry" />
        </mxCell>
        <mxCell id="pflW-3yKm34LbVUq-xgN-283" style="edgeStyle=orthogonalEdgeStyle;rounded=0;orthogonalLoop=1;jettySize=auto;html=1;exitX=0.5;exitY=1;exitDx=0;exitDy=0;entryX=0.5;entryY=0;entryDx=0;entryDy=0;" edge="1" parent="pflW-3yKm34LbVUq-xgN-499" source="pflW-3yKm34LbVUq-xgN-280" target="pflW-3yKm34LbVUq-xgN-282">
          <mxGeometry relative="1" as="geometry" />
        </mxCell>
        <mxCell id="pflW-3yKm34LbVUq-xgN-313" style="edgeStyle=orthogonalEdgeStyle;rounded=0;orthogonalLoop=1;jettySize=auto;html=1;exitX=1;exitY=0.5;exitDx=0;exitDy=0;entryX=1;entryY=0.5;entryDx=0;entryDy=0;" edge="1" parent="pflW-3yKm34LbVUq-xgN-499" source="pflW-3yKm34LbVUq-xgN-280" target="pflW-3yKm34LbVUq-xgN-261">
          <mxGeometry relative="1" as="geometry" />
        </mxCell>
        <mxCell id="pflW-3yKm34LbVUq-xgN-280" value="Duration &lt;br&gt;between two Picks &lt;br&gt;&amp;lt;2 Sec" style="rhombus;whiteSpace=wrap;html=1;" vertex="1" parent="pflW-3yKm34LbVUq-xgN-499">
          <mxGeometry x="380" y="932.5" width="100" height="110" as="geometry" />
        </mxCell>
        <mxCell id="pflW-3yKm34LbVUq-xgN-284" style="edgeStyle=orthogonalEdgeStyle;rounded=0;orthogonalLoop=1;jettySize=auto;html=1;exitX=0.5;exitY=1;exitDx=0;exitDy=0;entryX=0.5;entryY=0;entryDx=0;entryDy=0;" edge="1" parent="pflW-3yKm34LbVUq-xgN-499" source="pflW-3yKm34LbVUq-xgN-282" target="pflW-3yKm34LbVUq-xgN-278">
          <mxGeometry relative="1" as="geometry" />
        </mxCell>
        <mxCell id="pflW-3yKm34LbVUq-xgN-297" style="edgeStyle=orthogonalEdgeStyle;rounded=0;orthogonalLoop=1;jettySize=auto;html=1;exitX=0;exitY=0.5;exitDx=0;exitDy=0;entryX=1;entryY=0.5;entryDx=0;entryDy=0;" edge="1" parent="pflW-3yKm34LbVUq-xgN-499" source="pflW-3yKm34LbVUq-xgN-282" target="pflW-3yKm34LbVUq-xgN-296">
          <mxGeometry relative="1" as="geometry" />
        </mxCell>
        <mxCell id="pflW-3yKm34LbVUq-xgN-282" value="Motion &lt;br&gt;Sensor Detection" style="rhombus;whiteSpace=wrap;html=1;" vertex="1" parent="pflW-3yKm34LbVUq-xgN-499">
          <mxGeometry x="385" y="1062.5" width="87" height="90" as="geometry" />
        </mxCell>
        <mxCell id="pflW-3yKm34LbVUq-xgN-287" value="Yes" style="text;html=1;align=center;verticalAlign=middle;whiteSpace=wrap;rounded=0;" vertex="1" parent="pflW-3yKm34LbVUq-xgN-499">
          <mxGeometry x="437" y="912.5" width="30" height="10" as="geometry" />
        </mxCell>
        <mxCell id="pflW-3yKm34LbVUq-xgN-288" value="Yes" style="text;html=1;align=center;verticalAlign=middle;whiteSpace=wrap;rounded=0;" vertex="1" parent="pflW-3yKm34LbVUq-xgN-499">
          <mxGeometry x="432" y="1042.5" width="30" height="10" as="geometry" />
        </mxCell>
        <mxCell id="pflW-3yKm34LbVUq-xgN-289" value="Yes" style="text;html=1;align=center;verticalAlign=middle;whiteSpace=wrap;rounded=0;" vertex="1" parent="pflW-3yKm34LbVUq-xgN-499">
          <mxGeometry x="432" y="1152.5" width="30" height="20" as="geometry" />
        </mxCell>
        <mxCell id="pflW-3yKm34LbVUq-xgN-290" value="Yes" style="text;html=1;align=center;verticalAlign=middle;whiteSpace=wrap;rounded=0;" vertex="1" parent="pflW-3yKm34LbVUq-xgN-499">
          <mxGeometry x="432" y="1252.5" width="30" height="20" as="geometry" />
        </mxCell>
        <mxCell id="pflW-3yKm34LbVUq-xgN-293" value="No" style="text;html=1;align=center;verticalAlign=middle;whiteSpace=wrap;rounded=0;" vertex="1" parent="pflW-3yKm34LbVUq-xgN-499">
          <mxGeometry x="363" y="862.5" width="30" height="10" as="geometry" />
        </mxCell>
        <mxCell id="pflW-3yKm34LbVUq-xgN-295" value="No" style="text;html=1;align=center;verticalAlign=middle;whiteSpace=wrap;rounded=0;" vertex="1" parent="pflW-3yKm34LbVUq-xgN-499">
          <mxGeometry x="472" y="962.5" width="30" height="10" as="geometry" />
        </mxCell>
        <mxCell id="pflW-3yKm34LbVUq-xgN-307" style="edgeStyle=orthogonalEdgeStyle;rounded=0;orthogonalLoop=1;jettySize=auto;html=1;exitX=0;exitY=0.5;exitDx=0;exitDy=0;entryX=1;entryY=0.5;entryDx=0;entryDy=0;" edge="1" parent="pflW-3yKm34LbVUq-xgN-499" source="pflW-3yKm34LbVUq-xgN-296" target="pflW-3yKm34LbVUq-xgN-306">
          <mxGeometry relative="1" as="geometry" />
        </mxCell>
        <mxCell id="pflW-3yKm34LbVUq-xgN-296" value="Trigger Error Alert&lt;br&gt;Keep the PTL &#39;&lt;b&gt;ON&lt;/b&gt;&#39;" style="rounded=0;whiteSpace=wrap;html=1;" vertex="1" parent="pflW-3yKm34LbVUq-xgN-499">
          <mxGeometry x="243" y="1092.5" width="120" height="30" as="geometry" />
        </mxCell>
        <mxCell id="pflW-3yKm34LbVUq-xgN-299" value="No" style="text;html=1;align=center;verticalAlign=middle;whiteSpace=wrap;rounded=0;" vertex="1" parent="pflW-3yKm34LbVUq-xgN-499">
          <mxGeometry x="363" y="1082.5" width="30" height="20" as="geometry" />
        </mxCell>
        <mxCell id="pflW-3yKm34LbVUq-xgN-300" value="No" style="text;html=1;align=center;verticalAlign=middle;whiteSpace=wrap;rounded=0;" vertex="1" parent="pflW-3yKm34LbVUq-xgN-499">
          <mxGeometry x="358" y="1192.5" width="30" height="20" as="geometry" />
        </mxCell>
        <mxCell id="pflW-3yKm34LbVUq-xgN-302" value="Turn third Order PTL [Yellow] if more than one Order in Pipeline" style="text;html=1;align=center;verticalAlign=middle;whiteSpace=wrap;rounded=0;rotation=270;" vertex="1" parent="pflW-3yKm34LbVUq-xgN-499">
          <mxGeometry x="334" y="373.5" width="370" height="20" as="geometry" />
        </mxCell>
        <mxCell id="pflW-3yKm34LbVUq-xgN-303" style="edgeStyle=orthogonalEdgeStyle;rounded=0;orthogonalLoop=1;jettySize=auto;html=1;exitX=0.5;exitY=1;exitDx=0;exitDy=0;entryX=0.5;entryY=0;entryDx=0;entryDy=0;" edge="1" parent="pflW-3yKm34LbVUq-xgN-499">
          <mxGeometry relative="1" as="geometry">
            <mxPoint x="879" y="557.5" as="sourcePoint" />
            <mxPoint x="879" y="577.5" as="targetPoint" />
          </mxGeometry>
        </mxCell>
        <mxCell id="pflW-3yKm34LbVUq-xgN-309" style="edgeStyle=orthogonalEdgeStyle;rounded=0;orthogonalLoop=1;jettySize=auto;html=1;exitX=0.5;exitY=0;exitDx=0;exitDy=0;entryX=0.5;entryY=1;entryDx=0;entryDy=0;" edge="1" parent="pflW-3yKm34LbVUq-xgN-499" source="pflW-3yKm34LbVUq-xgN-306" target="pflW-3yKm34LbVUq-xgN-308">
          <mxGeometry relative="1" as="geometry" />
        </mxCell>
        <mxCell id="pflW-3yKm34LbVUq-xgN-306" value="Capture the Log in MES" style="rounded=0;whiteSpace=wrap;html=1;" vertex="1" parent="pflW-3yKm34LbVUq-xgN-499">
          <mxGeometry x="79" y="1092.5" width="140" height="30" as="geometry" />
        </mxCell>
        <mxCell id="pflW-3yKm34LbVUq-xgN-308" value="Notify Team Leader" style="rounded=0;whiteSpace=wrap;html=1;" vertex="1" parent="pflW-3yKm34LbVUq-xgN-499">
          <mxGeometry x="79" y="1042.5" width="140" height="30" as="geometry" />
        </mxCell>
        <mxCell id="pflW-3yKm34LbVUq-xgN-314" style="edgeStyle=orthogonalEdgeStyle;rounded=0;orthogonalLoop=1;jettySize=auto;html=1;exitX=0.5;exitY=1;exitDx=0;exitDy=0;entryX=0.5;entryY=0;entryDx=0;entryDy=0;" edge="1" parent="pflW-3yKm34LbVUq-xgN-499" source="pflW-3yKm34LbVUq-xgN-315">
          <mxGeometry relative="1" as="geometry">
            <mxPoint x="902" y="127.5" as="targetPoint" />
          </mxGeometry>
        </mxCell>
        <mxCell id="pflW-3yKm34LbVUq-xgN-315" value="Reflects in Picker PDA" style="rounded=0;whiteSpace=wrap;html=1;" vertex="1" parent="pflW-3yKm34LbVUq-xgN-499">
          <mxGeometry x="842" y="77.5" width="120" height="30" as="geometry" />
        </mxCell>
        <mxCell id="pflW-3yKm34LbVUq-xgN-316" style="edgeStyle=orthogonalEdgeStyle;rounded=0;orthogonalLoop=1;jettySize=auto;html=1;exitX=0.5;exitY=1;exitDx=0;exitDy=0;" edge="1" parent="pflW-3yKm34LbVUq-xgN-499" source="pflW-3yKm34LbVUq-xgN-317" target="pflW-3yKm34LbVUq-xgN-315">
          <mxGeometry relative="1" as="geometry" />
        </mxCell>
        <mxCell id="pflW-3yKm34LbVUq-xgN-317" value="Auto Assign Cart#" style="rounded=0;whiteSpace=wrap;html=1;" vertex="1" parent="pflW-3yKm34LbVUq-xgN-499">
          <mxGeometry x="842" y="37.5" width="120" height="20" as="geometry" />
        </mxCell>
        <mxCell id="pflW-3yKm34LbVUq-xgN-318" style="edgeStyle=orthogonalEdgeStyle;rounded=0;orthogonalLoop=1;jettySize=auto;html=1;exitX=0.5;exitY=1;exitDx=0;exitDy=0;entryX=0.5;entryY=0;entryDx=0;entryDy=0;entryPerimeter=0;" edge="1" parent="pflW-3yKm34LbVUq-xgN-499" target="pflW-3yKm34LbVUq-xgN-337">
          <mxGeometry relative="1" as="geometry">
            <mxPoint x="902" y="207.5" as="sourcePoint" />
            <mxPoint x="902" y="227.5" as="targetPoint" />
          </mxGeometry>
        </mxCell>
        <mxCell id="pflW-3yKm34LbVUq-xgN-319" value="Reject &amp;amp; Fore Re-scan" style="text;html=1;align=center;verticalAlign=middle;whiteSpace=wrap;rounded=0;rotation=270;" vertex="1" parent="pflW-3yKm34LbVUq-xgN-499">
          <mxGeometry x="747" y="388.5" width="140" height="20" as="geometry" />
        </mxCell>
        <mxCell id="pflW-3yKm34LbVUq-xgN-320" style="edgeStyle=orthogonalEdgeStyle;rounded=0;orthogonalLoop=1;jettySize=auto;html=1;exitX=0.5;exitY=1;exitDx=0;exitDy=0;entryX=0.5;entryY=0;entryDx=0;entryDy=0;" edge="1" parent="pflW-3yKm34LbVUq-xgN-499" source="pflW-3yKm34LbVUq-xgN-322" target="pflW-3yKm34LbVUq-xgN-325">
          <mxGeometry relative="1" as="geometry" />
        </mxCell>
        <mxCell id="pflW-3yKm34LbVUq-xgN-321" style="edgeStyle=orthogonalEdgeStyle;rounded=0;orthogonalLoop=1;jettySize=auto;html=1;exitX=0;exitY=0.5;exitDx=0;exitDy=0;entryX=0;entryY=0.5;entryDx=0;entryDy=0;" edge="1" parent="pflW-3yKm34LbVUq-xgN-499" source="pflW-3yKm34LbVUq-xgN-322" target="pflW-3yKm34LbVUq-xgN-329">
          <mxGeometry relative="1" as="geometry">
            <Array as="points">
              <mxPoint x="827" y="408.5" />
              <mxPoint x="827" y="335.5" />
            </Array>
          </mxGeometry>
        </mxCell>
        <mxCell id="pflW-3yKm34LbVUq-xgN-322" value="Wrong Cart Scanned" style="rhombus;whiteSpace=wrap;html=1;" vertex="1" parent="pflW-3yKm34LbVUq-xgN-499">
          <mxGeometry x="862" y="368.5" width="80" height="80" as="geometry" />
        </mxCell>
        <mxCell id="pflW-3yKm34LbVUq-xgN-323" value="Yes" style="text;html=1;align=center;verticalAlign=middle;whiteSpace=wrap;rounded=0;" vertex="1" parent="pflW-3yKm34LbVUq-xgN-499">
          <mxGeometry x="839" y="393.5" width="30" height="10" as="geometry" />
        </mxCell>
        <mxCell id="pflW-3yKm34LbVUq-xgN-324" style="edgeStyle=orthogonalEdgeStyle;rounded=0;orthogonalLoop=1;jettySize=auto;html=1;exitX=0.5;exitY=1;exitDx=0;exitDy=0;" edge="1" parent="pflW-3yKm34LbVUq-xgN-499" source="pflW-3yKm34LbVUq-xgN-325" target="pflW-3yKm34LbVUq-xgN-333">
          <mxGeometry relative="1" as="geometry" />
        </mxCell>
        <mxCell id="pflW-3yKm34LbVUq-xgN-325" value="Turn ON PTL&amp;nbsp;" style="rounded=0;whiteSpace=wrap;html=1;" vertex="1" parent="pflW-3yKm34LbVUq-xgN-499">
          <mxGeometry x="842" y="468.5" width="120" height="30" as="geometry" />
        </mxCell>
        <mxCell id="pflW-3yKm34LbVUq-xgN-326" value="" style="ellipse;whiteSpace=wrap;html=1;aspect=fixed;fillColor=#dae8fc;strokeColor=#6c8ebf;" vertex="1" parent="pflW-3yKm34LbVUq-xgN-499">
          <mxGeometry x="942" y="478.5" width="10" height="10" as="geometry" />
        </mxCell>
        <mxCell id="pflW-3yKm34LbVUq-xgN-327" value="No" style="text;html=1;align=center;verticalAlign=middle;whiteSpace=wrap;rounded=0;" vertex="1" parent="pflW-3yKm34LbVUq-xgN-499">
          <mxGeometry x="902" y="448.5" width="30" height="10" as="geometry" />
        </mxCell>
        <mxCell id="pflW-3yKm34LbVUq-xgN-328" style="edgeStyle=orthogonalEdgeStyle;rounded=0;orthogonalLoop=1;jettySize=auto;html=1;exitX=0.5;exitY=1;exitDx=0;exitDy=0;entryX=0.5;entryY=0;entryDx=0;entryDy=0;" edge="1" parent="pflW-3yKm34LbVUq-xgN-499" source="pflW-3yKm34LbVUq-xgN-329" target="pflW-3yKm34LbVUq-xgN-322">
          <mxGeometry relative="1" as="geometry" />
        </mxCell>
        <mxCell id="pflW-3yKm34LbVUq-xgN-329" value="Scan Empty Cart to confirm Mapping" style="rounded=0;whiteSpace=wrap;html=1;" vertex="1" parent="pflW-3yKm34LbVUq-xgN-499">
          <mxGeometry x="842" y="320.5" width="120" height="30" as="geometry" />
        </mxCell>
        <mxCell id="pflW-3yKm34LbVUq-xgN-330" style="edgeStyle=orthogonalEdgeStyle;rounded=0;orthogonalLoop=1;jettySize=auto;html=1;exitX=0.5;exitY=1;exitDx=0;exitDy=0;entryX=0.5;entryY=0;entryDx=0;entryDy=0;" edge="1" parent="pflW-3yKm34LbVUq-xgN-499" source="pflW-3yKm34LbVUq-xgN-331">
          <mxGeometry relative="1" as="geometry">
            <mxPoint x="901" y="670.5" as="targetPoint" />
          </mxGeometry>
        </mxCell>
        <mxCell id="pflW-3yKm34LbVUq-xgN-331" value="Pick the Part and Turn off PTL" style="rounded=0;whiteSpace=wrap;html=1;" vertex="1" parent="pflW-3yKm34LbVUq-xgN-499">
          <mxGeometry x="841" y="620.5" width="120" height="30" as="geometry" />
        </mxCell>
        <mxCell id="pflW-3yKm34LbVUq-xgN-332" style="edgeStyle=orthogonalEdgeStyle;rounded=0;orthogonalLoop=1;jettySize=auto;html=1;exitX=0.5;exitY=1;exitDx=0;exitDy=0;entryX=0.5;entryY=0;entryDx=0;entryDy=0;" edge="1" parent="pflW-3yKm34LbVUq-xgN-499" source="pflW-3yKm34LbVUq-xgN-333" target="pflW-3yKm34LbVUq-xgN-331">
          <mxGeometry relative="1" as="geometry" />
        </mxCell>
        <mxCell id="pflW-3yKm34LbVUq-xgN-333" value="Parallel Picking" style="rhombus;whiteSpace=wrap;html=1;" vertex="1" parent="pflW-3yKm34LbVUq-xgN-499">
          <mxGeometry x="862" y="520.5" width="80" height="80" as="geometry" />
        </mxCell>
        <mxCell id="pflW-3yKm34LbVUq-xgN-334" value="No" style="text;html=1;align=center;verticalAlign=middle;whiteSpace=wrap;rounded=0;" vertex="1" parent="pflW-3yKm34LbVUq-xgN-499">
          <mxGeometry x="902" y="600.5" width="30" height="12" as="geometry" />
        </mxCell>
        <mxCell id="pflW-3yKm34LbVUq-xgN-335" style="edgeStyle=orthogonalEdgeStyle;rounded=0;orthogonalLoop=1;jettySize=auto;html=1;exitX=0;exitY=0.5;exitDx=0;exitDy=0;entryX=0;entryY=0.5;entryDx=0;entryDy=0;" edge="1" parent="pflW-3yKm34LbVUq-xgN-499" source="pflW-3yKm34LbVUq-xgN-337" target="pflW-3yKm34LbVUq-xgN-315">
          <mxGeometry relative="1" as="geometry">
            <Array as="points">
              <mxPoint x="828" y="267.5" />
              <mxPoint x="828" y="92.5" />
            </Array>
            <mxPoint x="842" y="147.5" as="targetPoint" />
          </mxGeometry>
        </mxCell>
        <mxCell id="pflW-3yKm34LbVUq-xgN-336" style="edgeStyle=orthogonalEdgeStyle;rounded=0;orthogonalLoop=1;jettySize=auto;html=1;exitX=0.5;exitY=1;exitDx=0;exitDy=0;entryX=0.5;entryY=0;entryDx=0;entryDy=0;" edge="1" parent="pflW-3yKm34LbVUq-xgN-499" source="pflW-3yKm34LbVUq-xgN-337" target="pflW-3yKm34LbVUq-xgN-329">
          <mxGeometry relative="1" as="geometry" />
        </mxCell>
        <mxCell id="pflW-3yKm34LbVUq-xgN-337" value="Damaged Cart&amp;nbsp;" style="rhombus;whiteSpace=wrap;html=1;" vertex="1" parent="pflW-3yKm34LbVUq-xgN-499">
          <mxGeometry x="862" y="227.5" width="80" height="80" as="geometry" />
        </mxCell>
        <mxCell id="pflW-3yKm34LbVUq-xgN-338" value="Yes" style="text;html=1;align=center;verticalAlign=middle;whiteSpace=wrap;rounded=0;" vertex="1" parent="pflW-3yKm34LbVUq-xgN-499">
          <mxGeometry x="828" y="257.5" width="40" height="10" as="geometry" />
        </mxCell>
        <mxCell id="pflW-3yKm34LbVUq-xgN-339" value="User Accept" style="rhombus;whiteSpace=wrap;html=1;" vertex="1" parent="pflW-3yKm34LbVUq-xgN-499">
          <mxGeometry x="862" y="127.5" width="80" height="80" as="geometry" />
        </mxCell>
        <mxCell id="pflW-3yKm34LbVUq-xgN-340" value="Yes" style="text;html=1;align=center;verticalAlign=middle;whiteSpace=wrap;rounded=0;" vertex="1" parent="pflW-3yKm34LbVUq-xgN-499">
          <mxGeometry x="902" y="207.5" width="40" height="10" as="geometry" />
        </mxCell>
        <mxCell id="pflW-3yKm34LbVUq-xgN-341" value="Update the PDA" style="text;html=1;align=center;verticalAlign=middle;whiteSpace=wrap;rounded=0;rotation=270;" vertex="1" parent="pflW-3yKm34LbVUq-xgN-499">
          <mxGeometry x="787" y="194.5" width="100" height="20" as="geometry" />
        </mxCell>
        <mxCell id="pflW-3yKm34LbVUq-xgN-343" style="edgeStyle=orthogonalEdgeStyle;rounded=0;orthogonalLoop=1;jettySize=auto;html=1;exitX=0.5;exitY=1;exitDx=0;exitDy=0;entryX=0.5;entryY=0;entryDx=0;entryDy=0;" edge="1" parent="pflW-3yKm34LbVUq-xgN-499" source="pflW-3yKm34LbVUq-xgN-344" target="pflW-3yKm34LbVUq-xgN-347">
          <mxGeometry relative="1" as="geometry" />
        </mxCell>
        <mxCell id="pflW-3yKm34LbVUq-xgN-387" style="edgeStyle=orthogonalEdgeStyle;rounded=0;orthogonalLoop=1;jettySize=auto;html=1;exitX=0;exitY=0.5;exitDx=0;exitDy=0;entryX=1;entryY=0.5;entryDx=0;entryDy=0;" edge="1" parent="pflW-3yKm34LbVUq-xgN-499" source="pflW-3yKm34LbVUq-xgN-344" target="pflW-3yKm34LbVUq-xgN-380">
          <mxGeometry relative="1" as="geometry" />
        </mxCell>
        <mxCell id="pflW-3yKm34LbVUq-xgN-344" value="Common &lt;br&gt;Parts between Orders" style="rhombus;whiteSpace=wrap;html=1;" vertex="1" parent="pflW-3yKm34LbVUq-xgN-499">
          <mxGeometry x="857.5" y="671.5" width="87" height="80" as="geometry" />
        </mxCell>
        <mxCell id="pflW-3yKm34LbVUq-xgN-346" style="edgeStyle=orthogonalEdgeStyle;rounded=0;orthogonalLoop=1;jettySize=auto;html=1;exitX=0.5;exitY=1;exitDx=0;exitDy=0;entryX=0.5;entryY=0;entryDx=0;entryDy=0;" edge="1" parent="pflW-3yKm34LbVUq-xgN-499" source="pflW-3yKm34LbVUq-xgN-347" target="pflW-3yKm34LbVUq-xgN-356">
          <mxGeometry relative="1" as="geometry" />
        </mxCell>
        <mxCell id="pflW-3yKm34LbVUq-xgN-347" value="Follow PTL" style="rounded=0;whiteSpace=wrap;html=1;" vertex="1" parent="pflW-3yKm34LbVUq-xgN-499">
          <mxGeometry x="841" y="781.5" width="120" height="30" as="geometry" />
        </mxCell>
        <mxCell id="pflW-3yKm34LbVUq-xgN-348" value="" style="ellipse;whiteSpace=wrap;html=1;aspect=fixed;fillColor=#dae8fc;strokeColor=#6c8ebf;" vertex="1" parent="pflW-3yKm34LbVUq-xgN-499">
          <mxGeometry x="932" y="791.5" width="10" height="10" as="geometry" />
        </mxCell>
        <mxCell id="pflW-3yKm34LbVUq-xgN-349" value="Yes" style="text;html=1;align=center;verticalAlign=middle;whiteSpace=wrap;rounded=0;" vertex="1" parent="pflW-3yKm34LbVUq-xgN-499">
          <mxGeometry x="842" y="696.5" width="30" height="10" as="geometry" />
        </mxCell>
        <mxCell id="pflW-3yKm34LbVUq-xgN-351" value="No" style="text;html=1;align=center;verticalAlign=middle;whiteSpace=wrap;rounded=0;" vertex="1" parent="pflW-3yKm34LbVUq-xgN-499">
          <mxGeometry x="902" y="751.5" width="30" height="10" as="geometry" />
        </mxCell>
        <mxCell id="pflW-3yKm34LbVUq-xgN-354" style="edgeStyle=orthogonalEdgeStyle;rounded=0;orthogonalLoop=1;jettySize=auto;html=1;exitX=0.5;exitY=1;exitDx=0;exitDy=0;entryX=0.5;entryY=0;entryDx=0;entryDy=0;" edge="1" parent="pflW-3yKm34LbVUq-xgN-499" source="pflW-3yKm34LbVUq-xgN-356" target="pflW-3yKm34LbVUq-xgN-362">
          <mxGeometry relative="1" as="geometry" />
        </mxCell>
        <mxCell id="pflW-3yKm34LbVUq-xgN-355" style="edgeStyle=orthogonalEdgeStyle;rounded=0;orthogonalLoop=1;jettySize=auto;html=1;exitX=0;exitY=0.5;exitDx=0;exitDy=0;entryX=0;entryY=0.75;entryDx=0;entryDy=0;" edge="1" parent="pflW-3yKm34LbVUq-xgN-499" source="pflW-3yKm34LbVUq-xgN-356" target="pflW-3yKm34LbVUq-xgN-347">
          <mxGeometry relative="1" as="geometry" />
        </mxCell>
        <mxCell id="pflW-3yKm34LbVUq-xgN-356" value="PTL &lt;br&gt;Duplicate &lt;br&gt;Entry" style="rhombus;whiteSpace=wrap;html=1;" vertex="1" parent="pflW-3yKm34LbVUq-xgN-499">
          <mxGeometry x="857.5" y="827.5" width="87" height="80" as="geometry" />
        </mxCell>
        <mxCell id="pflW-3yKm34LbVUq-xgN-357" style="edgeStyle=orthogonalEdgeStyle;rounded=0;orthogonalLoop=1;jettySize=auto;html=1;exitX=0.5;exitY=1;exitDx=0;exitDy=0;entryX=0.5;entryY=0;entryDx=0;entryDy=0;" edge="1" parent="pflW-3yKm34LbVUq-xgN-499" source="pflW-3yKm34LbVUq-xgN-359" target="pflW-3yKm34LbVUq-xgN-392">
          <mxGeometry relative="1" as="geometry">
            <mxPoint x="899" y="1277.5" as="targetPoint" />
          </mxGeometry>
        </mxCell>
        <mxCell id="pflW-3yKm34LbVUq-xgN-358" style="edgeStyle=orthogonalEdgeStyle;rounded=0;orthogonalLoop=1;jettySize=auto;html=1;exitX=0;exitY=0.5;exitDx=0;exitDy=0;entryX=0.5;entryY=1;entryDx=0;entryDy=0;" edge="1" parent="pflW-3yKm34LbVUq-xgN-499" source="pflW-3yKm34LbVUq-xgN-359" target="pflW-3yKm34LbVUq-xgN-372">
          <mxGeometry relative="1" as="geometry" />
        </mxCell>
        <mxCell id="pflW-3yKm34LbVUq-xgN-359" value="Picked &lt;br&gt;Parts Matches&lt;br&gt;Order&amp;nbsp;" style="rhombus;whiteSpace=wrap;html=1;" vertex="1" parent="pflW-3yKm34LbVUq-xgN-499">
          <mxGeometry x="855" y="1167.5" width="87" height="80" as="geometry" />
        </mxCell>
        <mxCell id="pflW-3yKm34LbVUq-xgN-360" style="edgeStyle=orthogonalEdgeStyle;rounded=0;orthogonalLoop=1;jettySize=auto;html=1;exitX=0.5;exitY=1;exitDx=0;exitDy=0;entryX=0.5;entryY=0;entryDx=0;entryDy=0;" edge="1" parent="pflW-3yKm34LbVUq-xgN-499" source="pflW-3yKm34LbVUq-xgN-362" target="pflW-3yKm34LbVUq-xgN-365">
          <mxGeometry relative="1" as="geometry" />
        </mxCell>
        <mxCell id="pflW-3yKm34LbVUq-xgN-361" style="edgeStyle=orthogonalEdgeStyle;rounded=0;orthogonalLoop=1;jettySize=auto;html=1;exitX=1;exitY=0.5;exitDx=0;exitDy=0;entryX=1;entryY=0.5;entryDx=0;entryDy=0;" edge="1" parent="pflW-3yKm34LbVUq-xgN-499" source="pflW-3yKm34LbVUq-xgN-362" target="pflW-3yKm34LbVUq-xgN-347">
          <mxGeometry relative="1" as="geometry" />
        </mxCell>
        <mxCell id="pflW-3yKm34LbVUq-xgN-362" value="Duration &lt;br&gt;between two Picks &lt;br&gt;&amp;lt;2 Sec" style="rhombus;whiteSpace=wrap;html=1;" vertex="1" parent="pflW-3yKm34LbVUq-xgN-499">
          <mxGeometry x="850" y="927.5" width="100" height="110" as="geometry" />
        </mxCell>
        <mxCell id="pflW-3yKm34LbVUq-xgN-363" style="edgeStyle=orthogonalEdgeStyle;rounded=0;orthogonalLoop=1;jettySize=auto;html=1;exitX=0.5;exitY=1;exitDx=0;exitDy=0;entryX=0.5;entryY=0;entryDx=0;entryDy=0;" edge="1" parent="pflW-3yKm34LbVUq-xgN-499" source="pflW-3yKm34LbVUq-xgN-365" target="pflW-3yKm34LbVUq-xgN-359">
          <mxGeometry relative="1" as="geometry" />
        </mxCell>
        <mxCell id="pflW-3yKm34LbVUq-xgN-364" style="edgeStyle=orthogonalEdgeStyle;rounded=0;orthogonalLoop=1;jettySize=auto;html=1;exitX=0;exitY=0.5;exitDx=0;exitDy=0;entryX=1;entryY=0.5;entryDx=0;entryDy=0;" edge="1" parent="pflW-3yKm34LbVUq-xgN-499" source="pflW-3yKm34LbVUq-xgN-365" target="pflW-3yKm34LbVUq-xgN-372">
          <mxGeometry relative="1" as="geometry" />
        </mxCell>
        <mxCell id="pflW-3yKm34LbVUq-xgN-365" value="Motion &lt;br&gt;Sensor Detection" style="rhombus;whiteSpace=wrap;html=1;" vertex="1" parent="pflW-3yKm34LbVUq-xgN-499">
          <mxGeometry x="855" y="1057.5" width="87" height="90" as="geometry" />
        </mxCell>
        <mxCell id="pflW-3yKm34LbVUq-xgN-366" value="Yes" style="text;html=1;align=center;verticalAlign=middle;whiteSpace=wrap;rounded=0;" vertex="1" parent="pflW-3yKm34LbVUq-xgN-499">
          <mxGeometry x="907" y="907.5" width="30" height="10" as="geometry" />
        </mxCell>
        <mxCell id="pflW-3yKm34LbVUq-xgN-367" value="Yes" style="text;html=1;align=center;verticalAlign=middle;whiteSpace=wrap;rounded=0;" vertex="1" parent="pflW-3yKm34LbVUq-xgN-499">
          <mxGeometry x="902" y="1037.5" width="30" height="10" as="geometry" />
        </mxCell>
        <mxCell id="pflW-3yKm34LbVUq-xgN-368" value="Yes" style="text;html=1;align=center;verticalAlign=middle;whiteSpace=wrap;rounded=0;" vertex="1" parent="pflW-3yKm34LbVUq-xgN-499">
          <mxGeometry x="902" y="1147.5" width="30" height="20" as="geometry" />
        </mxCell>
        <mxCell id="pflW-3yKm34LbVUq-xgN-369" value="Yes" style="text;html=1;align=center;verticalAlign=middle;whiteSpace=wrap;rounded=0;" vertex="1" parent="pflW-3yKm34LbVUq-xgN-499">
          <mxGeometry x="902" y="1247.5" width="30" height="20" as="geometry" />
        </mxCell>
        <mxCell id="pflW-3yKm34LbVUq-xgN-370" value="No" style="text;html=1;align=center;verticalAlign=middle;whiteSpace=wrap;rounded=0;" vertex="1" parent="pflW-3yKm34LbVUq-xgN-499">
          <mxGeometry x="833" y="857.5" width="30" height="10" as="geometry" />
        </mxCell>
        <mxCell id="pflW-3yKm34LbVUq-xgN-371" value="No" style="text;html=1;align=center;verticalAlign=middle;whiteSpace=wrap;rounded=0;" vertex="1" parent="pflW-3yKm34LbVUq-xgN-499">
          <mxGeometry x="942" y="957.5" width="30" height="10" as="geometry" />
        </mxCell>
        <mxCell id="pflW-3yKm34LbVUq-xgN-390" style="edgeStyle=orthogonalEdgeStyle;rounded=0;orthogonalLoop=1;jettySize=auto;html=1;exitX=0;exitY=0.5;exitDx=0;exitDy=0;entryX=1;entryY=0.25;entryDx=0;entryDy=0;" edge="1" parent="pflW-3yKm34LbVUq-xgN-499" source="pflW-3yKm34LbVUq-xgN-372" target="pflW-3yKm34LbVUq-xgN-376">
          <mxGeometry relative="1" as="geometry" />
        </mxCell>
        <mxCell id="pflW-3yKm34LbVUq-xgN-372" value="Trigger Error Alert&lt;br&gt;Keep the PTL &#39;&lt;b&gt;ON&lt;/b&gt;&#39;" style="rounded=0;whiteSpace=wrap;html=1;" vertex="1" parent="pflW-3yKm34LbVUq-xgN-499">
          <mxGeometry x="713" y="1087.5" width="120" height="30" as="geometry" />
        </mxCell>
        <mxCell id="pflW-3yKm34LbVUq-xgN-373" value="No" style="text;html=1;align=center;verticalAlign=middle;whiteSpace=wrap;rounded=0;" vertex="1" parent="pflW-3yKm34LbVUq-xgN-499">
          <mxGeometry x="833" y="1077.5" width="30" height="20" as="geometry" />
        </mxCell>
        <mxCell id="pflW-3yKm34LbVUq-xgN-374" value="No" style="text;html=1;align=center;verticalAlign=middle;whiteSpace=wrap;rounded=0;" vertex="1" parent="pflW-3yKm34LbVUq-xgN-499">
          <mxGeometry x="828" y="1187.5" width="30" height="20" as="geometry" />
        </mxCell>
        <mxCell id="pflW-3yKm34LbVUq-xgN-375" value="Turn third Order PTL [Yellow] if more than one Order in Pipeline" style="text;html=1;align=center;verticalAlign=middle;whiteSpace=wrap;rounded=0;rotation=270;" vertex="1" parent="pflW-3yKm34LbVUq-xgN-499">
          <mxGeometry x="458" y="373.5" width="370" height="20" as="geometry" />
        </mxCell>
        <mxCell id="pflW-3yKm34LbVUq-xgN-391" style="edgeStyle=orthogonalEdgeStyle;rounded=0;orthogonalLoop=1;jettySize=auto;html=1;exitX=0.5;exitY=0;exitDx=0;exitDy=0;entryX=0.5;entryY=1;entryDx=0;entryDy=0;" edge="1" parent="pflW-3yKm34LbVUq-xgN-499" source="pflW-3yKm34LbVUq-xgN-376" target="pflW-3yKm34LbVUq-xgN-377">
          <mxGeometry relative="1" as="geometry" />
        </mxCell>
        <mxCell id="pflW-3yKm34LbVUq-xgN-376" value="Capture the Log in MES" style="rounded=0;whiteSpace=wrap;html=1;" vertex="1" parent="pflW-3yKm34LbVUq-xgN-499">
          <mxGeometry x="549" y="1087.5" width="140" height="30" as="geometry" />
        </mxCell>
        <mxCell id="pflW-3yKm34LbVUq-xgN-377" value="Notify Team Leader" style="rounded=0;whiteSpace=wrap;html=1;" vertex="1" parent="pflW-3yKm34LbVUq-xgN-499">
          <mxGeometry x="549" y="1037.5" width="140" height="30" as="geometry" />
        </mxCell>
        <mxCell id="pflW-3yKm34LbVUq-xgN-388" style="edgeStyle=orthogonalEdgeStyle;rounded=0;orthogonalLoop=1;jettySize=auto;html=1;exitX=0;exitY=0.5;exitDx=0;exitDy=0;entryX=1;entryY=0.5;entryDx=0;entryDy=0;" edge="1" parent="pflW-3yKm34LbVUq-xgN-499" source="pflW-3yKm34LbVUq-xgN-380" target="pflW-3yKm34LbVUq-xgN-242">
          <mxGeometry relative="1" as="geometry" />
        </mxCell>
        <mxCell id="pflW-3yKm34LbVUq-xgN-380" value="Sequence PTL&amp;nbsp;" style="rounded=0;whiteSpace=wrap;html=1;" vertex="1" parent="pflW-3yKm34LbVUq-xgN-499">
          <mxGeometry x="593" y="696.5" width="120" height="30" as="geometry" />
        </mxCell>
        <mxCell id="pflW-3yKm34LbVUq-xgN-381" value="" style="ellipse;whiteSpace=wrap;html=1;aspect=fixed;fillColor=#f8cecc;strokeColor=#b85450;" vertex="1" parent="pflW-3yKm34LbVUq-xgN-499">
          <mxGeometry x="689" y="706.5" width="10" height="10" as="geometry" />
        </mxCell>
        <mxCell id="pflW-3yKm34LbVUq-xgN-382" value="" style="ellipse;whiteSpace=wrap;html=1;aspect=fixed;fillColor=#dae8fc;strokeColor=#6c8ebf;" vertex="1" parent="pflW-3yKm34LbVUq-xgN-499">
          <mxGeometry x="702" y="706.5" width="10" height="10" as="geometry" />
        </mxCell>
        <mxCell id="pflW-3yKm34LbVUq-xgN-443" style="edgeStyle=orthogonalEdgeStyle;rounded=0;orthogonalLoop=1;jettySize=auto;html=1;exitX=1;exitY=0.5;exitDx=0;exitDy=0;entryX=0;entryY=0.5;entryDx=0;entryDy=0;" edge="1" parent="pflW-3yKm34LbVUq-xgN-499" source="pflW-3yKm34LbVUq-xgN-392" target="pflW-3yKm34LbVUq-xgN-439">
          <mxGeometry relative="1" as="geometry">
            <Array as="points">
              <mxPoint x="1009" y="1312.5" />
              <mxPoint x="1009" y="10.5" />
            </Array>
          </mxGeometry>
        </mxCell>
        <mxCell id="pflW-3yKm34LbVUq-xgN-743" style="edgeStyle=orthogonalEdgeStyle;rounded=0;orthogonalLoop=1;jettySize=auto;html=1;exitX=0.5;exitY=1;exitDx=0;exitDy=0;entryX=0.5;entryY=0;entryDx=0;entryDy=0;" edge="1" parent="pflW-3yKm34LbVUq-xgN-499" source="pflW-3yKm34LbVUq-xgN-392" target="pflW-3yKm34LbVUq-xgN-393">
          <mxGeometry relative="1" as="geometry" />
        </mxCell>
        <mxCell id="pflW-3yKm34LbVUq-xgN-392" value="Parts Shortage" style="rhombus;whiteSpace=wrap;html=1;" vertex="1" parent="pflW-3yKm34LbVUq-xgN-499">
          <mxGeometry x="855" y="1272.5" width="87" height="80" as="geometry" />
        </mxCell>
        <mxCell id="pflW-3yKm34LbVUq-xgN-744" style="edgeStyle=orthogonalEdgeStyle;rounded=0;orthogonalLoop=1;jettySize=auto;html=1;exitX=0.5;exitY=1;exitDx=0;exitDy=0;entryX=0.5;entryY=0;entryDx=0;entryDy=0;" edge="1" parent="pflW-3yKm34LbVUq-xgN-499" source="pflW-3yKm34LbVUq-xgN-393" target="pflW-3yKm34LbVUq-xgN-394">
          <mxGeometry relative="1" as="geometry" />
        </mxCell>
        <mxCell id="pflW-3yKm34LbVUq-xgN-393" value="Turn Off the PTL&amp;nbsp;" style="rounded=0;whiteSpace=wrap;html=1;" vertex="1" parent="pflW-3yKm34LbVUq-xgN-499">
          <mxGeometry x="841" y="1372.5" width="120" height="30" as="geometry" />
        </mxCell>
        <mxCell id="pflW-3yKm34LbVUq-xgN-394" value="Move the Cart to AMR Pickup Point" style="rounded=0;whiteSpace=wrap;html=1;" vertex="1" parent="pflW-3yKm34LbVUq-xgN-499">
          <mxGeometry x="841" y="1422.5" width="120" height="30" as="geometry" />
        </mxCell>
        <mxCell id="pflW-3yKm34LbVUq-xgN-437" value="" style="group" vertex="1" connectable="0" parent="pflW-3yKm34LbVUq-xgN-499">
          <mxGeometry x="1029.0000000000002" y="132.5" width="202.1199999999999" height="458" as="geometry" />
        </mxCell>
        <mxCell id="pflW-3yKm34LbVUq-xgN-416" style="edgeStyle=orthogonalEdgeStyle;rounded=0;orthogonalLoop=1;jettySize=auto;html=1;exitX=0.5;exitY=1;exitDx=0;exitDy=0;entryX=0.5;entryY=0;entryDx=0;entryDy=0;" edge="1" parent="pflW-3yKm34LbVUq-xgN-437" source="pflW-3yKm34LbVUq-xgN-418" target="pflW-3yKm34LbVUq-xgN-420">
          <mxGeometry relative="1" as="geometry" />
        </mxCell>
        <mxCell id="pflW-3yKm34LbVUq-xgN-417" style="edgeStyle=orthogonalEdgeStyle;rounded=0;orthogonalLoop=1;jettySize=auto;html=1;exitX=1;exitY=0.5;exitDx=0;exitDy=0;entryX=0;entryY=0.5;entryDx=0;entryDy=0;" edge="1" parent="pflW-3yKm34LbVUq-xgN-437" source="pflW-3yKm34LbVUq-xgN-418">
          <mxGeometry relative="1" as="geometry">
            <mxPoint x="120.36999999999989" y="24" as="targetPoint" />
          </mxGeometry>
        </mxCell>
        <mxCell id="pflW-3yKm34LbVUq-xgN-418" value="Available" style="rhombus;whiteSpace=wrap;html=1;" vertex="1" parent="pflW-3yKm34LbVUq-xgN-437">
          <mxGeometry x="15.559999999999945" y="-10" width="80" height="70" as="geometry" />
        </mxCell>
        <mxCell id="pflW-3yKm34LbVUq-xgN-419" style="edgeStyle=orthogonalEdgeStyle;rounded=0;orthogonalLoop=1;jettySize=auto;html=1;exitX=0.5;exitY=1;exitDx=0;exitDy=0;entryX=0.5;entryY=0;entryDx=0;entryDy=0;" edge="1" parent="pflW-3yKm34LbVUq-xgN-437" source="pflW-3yKm34LbVUq-xgN-420" target="pflW-3yKm34LbVUq-xgN-422">
          <mxGeometry relative="1" as="geometry" />
        </mxCell>
        <mxCell id="pflW-3yKm34LbVUq-xgN-420" value="Assign Task" style="rounded=1;whiteSpace=wrap;html=1;flipH=1;" vertex="1" parent="pflW-3yKm34LbVUq-xgN-437">
          <mxGeometry x="25.559999999999945" y="90" width="60" height="30" as="geometry" />
        </mxCell>
        <mxCell id="pflW-3yKm34LbVUq-xgN-421" style="edgeStyle=orthogonalEdgeStyle;rounded=0;orthogonalLoop=1;jettySize=auto;html=1;exitX=0.5;exitY=1;exitDx=0;exitDy=0;entryX=0.5;entryY=0;entryDx=0;entryDy=0;" edge="1" parent="pflW-3yKm34LbVUq-xgN-437" source="pflW-3yKm34LbVUq-xgN-422" target="pflW-3yKm34LbVUq-xgN-425">
          <mxGeometry relative="1" as="geometry" />
        </mxCell>
        <mxCell id="pflW-3yKm34LbVUq-xgN-422" value="Picking Order reflects in PDA" style="rounded=1;whiteSpace=wrap;html=1;flipH=1;align=left;" vertex="1" parent="pflW-3yKm34LbVUq-xgN-437">
          <mxGeometry x="10.129999999999654" y="140" width="96.12" height="44" as="geometry" />
        </mxCell>
        <mxCell id="pflW-3yKm34LbVUq-xgN-423" value="Yes" style="text;html=1;align=center;verticalAlign=middle;whiteSpace=wrap;rounded=0;" vertex="1" parent="pflW-3yKm34LbVUq-xgN-437">
          <mxGeometry x="49.059999999999945" y="66" width="28.5" height="10" as="geometry" />
        </mxCell>
        <mxCell id="pflW-3yKm34LbVUq-xgN-424" style="edgeStyle=orthogonalEdgeStyle;rounded=0;orthogonalLoop=1;jettySize=auto;html=1;exitX=0.5;exitY=1;exitDx=0;exitDy=0;entryX=0.5;entryY=0;entryDx=0;entryDy=0;" edge="1" parent="pflW-3yKm34LbVUq-xgN-437" source="pflW-3yKm34LbVUq-xgN-425" target="pflW-3yKm34LbVUq-xgN-427">
          <mxGeometry relative="1" as="geometry" />
        </mxCell>
        <mxCell id="pflW-3yKm34LbVUq-xgN-425" value="Accept the Order" style="rounded=1;whiteSpace=wrap;html=1;flipH=1;align=left;" vertex="1" parent="pflW-3yKm34LbVUq-xgN-437">
          <mxGeometry x="10" y="210" width="96.12" height="30" as="geometry" />
        </mxCell>
        <mxCell id="pflW-3yKm34LbVUq-xgN-426" style="edgeStyle=orthogonalEdgeStyle;rounded=0;orthogonalLoop=1;jettySize=auto;html=1;exitX=0.5;exitY=1;exitDx=0;exitDy=0;entryX=0.5;entryY=0;entryDx=0;entryDy=0;" edge="1" parent="pflW-3yKm34LbVUq-xgN-437" source="pflW-3yKm34LbVUq-xgN-427" target="pflW-3yKm34LbVUq-xgN-429">
          <mxGeometry relative="1" as="geometry" />
        </mxCell>
        <mxCell id="pflW-3yKm34LbVUq-xgN-427" value="Picks the Part from Primary WH" style="rounded=1;whiteSpace=wrap;html=1;flipH=1;align=left;" vertex="1" parent="pflW-3yKm34LbVUq-xgN-437">
          <mxGeometry x="10.129999999999654" y="256" width="96.12" height="30" as="geometry" />
        </mxCell>
        <mxCell id="pflW-3yKm34LbVUq-xgN-428" style="edgeStyle=orthogonalEdgeStyle;rounded=0;orthogonalLoop=1;jettySize=auto;html=1;exitX=0.5;exitY=1;exitDx=0;exitDy=0;entryX=0.5;entryY=0;entryDx=0;entryDy=0;" edge="1" parent="pflW-3yKm34LbVUq-xgN-437" source="pflW-3yKm34LbVUq-xgN-429" target="pflW-3yKm34LbVUq-xgN-431">
          <mxGeometry relative="1" as="geometry" />
        </mxCell>
        <mxCell id="pflW-3yKm34LbVUq-xgN-429" value="Locates the Cart Location" style="rounded=1;whiteSpace=wrap;html=1;flipH=1;align=left;" vertex="1" parent="pflW-3yKm34LbVUq-xgN-437">
          <mxGeometry x="10.129999999999654" y="310" width="96.12" height="30" as="geometry" />
        </mxCell>
        <mxCell id="pflW-3yKm34LbVUq-xgN-430" style="edgeStyle=orthogonalEdgeStyle;rounded=0;orthogonalLoop=1;jettySize=auto;html=1;exitX=0.5;exitY=1;exitDx=0;exitDy=0;entryX=0.5;entryY=0;entryDx=0;entryDy=0;" edge="1" parent="pflW-3yKm34LbVUq-xgN-437" source="pflW-3yKm34LbVUq-xgN-431" target="pflW-3yKm34LbVUq-xgN-433">
          <mxGeometry relative="1" as="geometry" />
        </mxCell>
        <mxCell id="pflW-3yKm34LbVUq-xgN-431" value="Replenish &amp;amp; Confirm in PDA" style="rounded=1;whiteSpace=wrap;html=1;flipH=1;align=left;" vertex="1" parent="pflW-3yKm34LbVUq-xgN-437">
          <mxGeometry x="10.129999999999654" y="360" width="96.12" height="30" as="geometry" />
        </mxCell>
        <mxCell id="pflW-3yKm34LbVUq-xgN-432" style="edgeStyle=orthogonalEdgeStyle;rounded=0;orthogonalLoop=1;jettySize=auto;html=1;exitX=1;exitY=0.5;exitDx=0;exitDy=0;entryX=0.5;entryY=1;entryDx=0;entryDy=0;" edge="1" parent="pflW-3yKm34LbVUq-xgN-437" source="pflW-3yKm34LbVUq-xgN-433">
          <mxGeometry relative="1" as="geometry">
            <mxPoint x="165.7449999999999" y="39" as="targetPoint" />
          </mxGeometry>
        </mxCell>
        <mxCell id="pflW-3yKm34LbVUq-xgN-433" value="Order is Closed" style="rounded=1;whiteSpace=wrap;html=1;flipH=1;align=left;" vertex="1" parent="pflW-3yKm34LbVUq-xgN-437">
          <mxGeometry x="49.059999999999945" y="418" width="96.12" height="30" as="geometry" />
        </mxCell>
        <mxCell id="pflW-3yKm34LbVUq-xgN-434" value="Escalate to Shift Head" style="rounded=1;whiteSpace=wrap;html=1;flipH=1;align=left;" vertex="1" parent="pflW-3yKm34LbVUq-xgN-437">
          <mxGeometry x="121.36999999999989" y="9" width="90.75" height="30" as="geometry" />
        </mxCell>
        <mxCell id="pflW-3yKm34LbVUq-xgN-435" value="No" style="text;html=1;align=center;verticalAlign=middle;whiteSpace=wrap;rounded=0;" vertex="1" parent="pflW-3yKm34LbVUq-xgN-437">
          <mxGeometry x="85.55999999999995" y="9" width="28.5" height="10" as="geometry" />
        </mxCell>
        <mxCell id="pflW-3yKm34LbVUq-xgN-436" value="Update Status of the Order" style="text;html=1;align=center;verticalAlign=middle;whiteSpace=wrap;rounded=0;rotation=-90;" vertex="1" parent="pflW-3yKm34LbVUq-xgN-437">
          <mxGeometry x="85.55999999999995" y="330" width="149.25" height="10" as="geometry" />
        </mxCell>
        <mxCell id="pflW-3yKm34LbVUq-xgN-438" style="edgeStyle=orthogonalEdgeStyle;rounded=0;orthogonalLoop=1;jettySize=auto;html=1;exitX=0.5;exitY=1;exitDx=0;exitDy=0;entryX=0.5;entryY=0;entryDx=0;entryDy=0;" edge="1" parent="pflW-3yKm34LbVUq-xgN-499" source="pflW-3yKm34LbVUq-xgN-439" target="pflW-3yKm34LbVUq-xgN-442">
          <mxGeometry relative="1" as="geometry" />
        </mxCell>
        <mxCell id="pflW-3yKm34LbVUq-xgN-439" value="SPS Order" style="rounded=0;whiteSpace=wrap;html=1;" vertex="1" parent="pflW-3yKm34LbVUq-xgN-499">
          <mxGeometry x="1029" width="120" height="20" as="geometry" />
        </mxCell>
        <mxCell id="pflW-3yKm34LbVUq-xgN-444" style="edgeStyle=orthogonalEdgeStyle;rounded=0;orthogonalLoop=1;jettySize=auto;html=1;exitX=0.5;exitY=1;exitDx=0;exitDy=0;entryX=0.5;entryY=0;entryDx=0;entryDy=0;" edge="1" parent="pflW-3yKm34LbVUq-xgN-499" source="pflW-3yKm34LbVUq-xgN-440" target="pflW-3yKm34LbVUq-xgN-418">
          <mxGeometry relative="1" as="geometry" />
        </mxCell>
        <mxCell id="pflW-3yKm34LbVUq-xgN-440" value="Reflects in Picker PDA" style="rounded=0;whiteSpace=wrap;html=1;" vertex="1" parent="pflW-3yKm34LbVUq-xgN-499">
          <mxGeometry x="1029" y="75" width="120" height="30" as="geometry" />
        </mxCell>
        <mxCell id="pflW-3yKm34LbVUq-xgN-441" style="edgeStyle=orthogonalEdgeStyle;rounded=0;orthogonalLoop=1;jettySize=auto;html=1;exitX=0.5;exitY=1;exitDx=0;exitDy=0;" edge="1" parent="pflW-3yKm34LbVUq-xgN-499" source="pflW-3yKm34LbVUq-xgN-442" target="pflW-3yKm34LbVUq-xgN-440">
          <mxGeometry relative="1" as="geometry" />
        </mxCell>
        <mxCell id="pflW-3yKm34LbVUq-xgN-442" value="Auto Assign Cart#" style="rounded=0;whiteSpace=wrap;html=1;" vertex="1" parent="pflW-3yKm34LbVUq-xgN-499">
          <mxGeometry x="1029" y="35" width="120" height="20" as="geometry" />
        </mxCell>
        <mxCell id="pflW-3yKm34LbVUq-xgN-445" style="edgeStyle=orthogonalEdgeStyle;rounded=0;orthogonalLoop=1;jettySize=auto;html=1;exitX=0.25;exitY=1;exitDx=0;exitDy=0;entryX=1;entryY=0.5;entryDx=0;entryDy=0;" edge="1" parent="pflW-3yKm34LbVUq-xgN-499" source="pflW-3yKm34LbVUq-xgN-431" target="pflW-3yKm34LbVUq-xgN-394">
          <mxGeometry relative="1" as="geometry" />
        </mxCell>
        <mxCell id="pflW-3yKm34LbVUq-xgN-821" value="" style="group" vertex="1" connectable="0" parent="1">
          <mxGeometry x="860" y="-60" width="1481.12" height="1908" as="geometry" />
        </mxCell>
        <mxCell id="pflW-3yKm34LbVUq-xgN-446" value="Station Picking &lt;br&gt;&lt;span style=&quot;font-weight: normal;&quot;&gt;[One Order- Multiple Cluster - Multiple Picker- One Delivery Point]&lt;/span&gt;" style="text;html=1;align=center;verticalAlign=middle;whiteSpace=wrap;rounded=0;fontStyle=1;fontSize=34;" vertex="1" parent="pflW-3yKm34LbVUq-xgN-821">
          <mxGeometry x="69" width="1050" height="50" as="geometry" />
        </mxCell>
        <mxCell id="pflW-3yKm34LbVUq-xgN-819" value="" style="group" vertex="1" connectable="0" parent="pflW-3yKm34LbVUq-xgN-821">
          <mxGeometry y="100" width="1481.12" height="1808" as="geometry" />
        </mxCell>
        <mxCell id="pflW-3yKm34LbVUq-xgN-500" value="Turn ON PTL&amp;nbsp;" style="rounded=0;whiteSpace=wrap;html=1;" vertex="1" parent="pflW-3yKm34LbVUq-xgN-819">
          <mxGeometry x="143" y="488" width="120" height="30" as="geometry" />
        </mxCell>
        <mxCell id="pflW-3yKm34LbVUq-xgN-495" style="edgeStyle=orthogonalEdgeStyle;rounded=0;orthogonalLoop=1;jettySize=auto;html=1;exitX=0.5;exitY=1;exitDx=0;exitDy=0;entryX=0.5;entryY=0;entryDx=0;entryDy=0;" edge="1" parent="pflW-3yKm34LbVUq-xgN-819" source="pflW-3yKm34LbVUq-xgN-447" target="pflW-3yKm34LbVUq-xgN-465">
          <mxGeometry relative="1" as="geometry" />
        </mxCell>
        <mxCell id="pflW-3yKm34LbVUq-xgN-447" value="Group 1" style="rounded=0;whiteSpace=wrap;html=1;" vertex="1" parent="pflW-3yKm34LbVUq-xgN-819">
          <mxGeometry x="139" width="120" height="30" as="geometry" />
        </mxCell>
        <mxCell id="pflW-3yKm34LbVUq-xgN-816" style="edgeStyle=orthogonalEdgeStyle;rounded=0;orthogonalLoop=1;jettySize=auto;html=1;exitX=0.5;exitY=1;exitDx=0;exitDy=0;entryX=0.5;entryY=0;entryDx=0;entryDy=0;" edge="1" parent="pflW-3yKm34LbVUq-xgN-819" source="pflW-3yKm34LbVUq-xgN-448" target="pflW-3yKm34LbVUq-xgN-815">
          <mxGeometry relative="1" as="geometry" />
        </mxCell>
        <mxCell id="pflW-3yKm34LbVUq-xgN-448" value="Buffer Group" style="rounded=0;whiteSpace=wrap;html=1;" vertex="1" parent="pflW-3yKm34LbVUq-xgN-819">
          <mxGeometry x="1279" width="120" height="30" as="geometry" />
        </mxCell>
        <mxCell id="pflW-3yKm34LbVUq-xgN-449" value="Group 2" style="rounded=0;whiteSpace=wrap;html=1;" vertex="1" parent="pflW-3yKm34LbVUq-xgN-819">
          <mxGeometry x="401" width="120" height="30" as="geometry" />
        </mxCell>
        <mxCell id="pflW-3yKm34LbVUq-xgN-450" value="Group 3" style="rounded=0;whiteSpace=wrap;html=1;" vertex="1" parent="pflW-3yKm34LbVUq-xgN-819">
          <mxGeometry x="946" width="120" height="30" as="geometry" />
        </mxCell>
        <mxCell id="pflW-3yKm34LbVUq-xgN-462" style="edgeStyle=orthogonalEdgeStyle;rounded=0;orthogonalLoop=1;jettySize=auto;html=1;exitX=0.5;exitY=1;exitDx=0;exitDy=0;entryX=0.5;entryY=0;entryDx=0;entryDy=0;" edge="1" parent="pflW-3yKm34LbVUq-xgN-819" source="pflW-3yKm34LbVUq-xgN-463">
          <mxGeometry relative="1" as="geometry">
            <mxPoint x="203" y="140" as="targetPoint" />
          </mxGeometry>
        </mxCell>
        <mxCell id="pflW-3yKm34LbVUq-xgN-463" value="Reflects in Picker PDA" style="rounded=0;whiteSpace=wrap;html=1;" vertex="1" parent="pflW-3yKm34LbVUq-xgN-819">
          <mxGeometry x="143" y="90" width="120" height="30" as="geometry" />
        </mxCell>
        <mxCell id="pflW-3yKm34LbVUq-xgN-464" style="edgeStyle=orthogonalEdgeStyle;rounded=0;orthogonalLoop=1;jettySize=auto;html=1;exitX=0.5;exitY=1;exitDx=0;exitDy=0;" edge="1" parent="pflW-3yKm34LbVUq-xgN-819" source="pflW-3yKm34LbVUq-xgN-465" target="pflW-3yKm34LbVUq-xgN-463">
          <mxGeometry relative="1" as="geometry" />
        </mxCell>
        <mxCell id="pflW-3yKm34LbVUq-xgN-465" value="Auto Assign Cart#" style="rounded=0;whiteSpace=wrap;html=1;" vertex="1" parent="pflW-3yKm34LbVUq-xgN-819">
          <mxGeometry x="143" y="50" width="120" height="20" as="geometry" />
        </mxCell>
        <mxCell id="pflW-3yKm34LbVUq-xgN-467" value="Force Re-scan" style="text;html=1;align=center;verticalAlign=middle;whiteSpace=wrap;rounded=0;" vertex="1" parent="pflW-3yKm34LbVUq-xgN-819">
          <mxGeometry x="49" y="334" width="90" height="20" as="geometry" />
        </mxCell>
        <mxCell id="pflW-3yKm34LbVUq-xgN-468" style="edgeStyle=orthogonalEdgeStyle;rounded=0;orthogonalLoop=1;jettySize=auto;html=1;exitX=0;exitY=0.5;exitDx=0;exitDy=0;entryX=1;entryY=0.5;entryDx=0;entryDy=0;" edge="1" parent="pflW-3yKm34LbVUq-xgN-819" source="pflW-3yKm34LbVUq-xgN-470">
          <mxGeometry relative="1" as="geometry">
            <mxPoint x="136" y="428" as="targetPoint" />
          </mxGeometry>
        </mxCell>
        <mxCell id="pflW-3yKm34LbVUq-xgN-469" style="edgeStyle=orthogonalEdgeStyle;rounded=0;orthogonalLoop=1;jettySize=auto;html=1;exitX=0.5;exitY=1;exitDx=0;exitDy=0;entryX=0.5;entryY=0;entryDx=0;entryDy=0;" edge="1" parent="pflW-3yKm34LbVUq-xgN-819" source="pflW-3yKm34LbVUq-xgN-470">
          <mxGeometry relative="1" as="geometry">
            <mxPoint x="203" y="488" as="targetPoint" />
          </mxGeometry>
        </mxCell>
        <mxCell id="pflW-3yKm34LbVUq-xgN-470" value="Wrong Cart Scanned" style="rhombus;whiteSpace=wrap;html=1;" vertex="1" parent="pflW-3yKm34LbVUq-xgN-819">
          <mxGeometry x="163" y="388" width="80" height="80" as="geometry" />
        </mxCell>
        <mxCell id="pflW-3yKm34LbVUq-xgN-471" value="Yes" style="text;html=1;align=center;verticalAlign=middle;whiteSpace=wrap;rounded=0;" vertex="1" parent="pflW-3yKm34LbVUq-xgN-819">
          <mxGeometry x="140" y="413" width="30" height="10" as="geometry" />
        </mxCell>
        <mxCell id="pflW-3yKm34LbVUq-xgN-472" style="edgeStyle=orthogonalEdgeStyle;rounded=0;orthogonalLoop=1;jettySize=auto;html=1;exitX=0.5;exitY=1;exitDx=0;exitDy=0;" edge="1" parent="pflW-3yKm34LbVUq-xgN-819" target="pflW-3yKm34LbVUq-xgN-481">
          <mxGeometry relative="1" as="geometry">
            <mxPoint x="203" y="518" as="sourcePoint" />
          </mxGeometry>
        </mxCell>
        <mxCell id="pflW-3yKm34LbVUq-xgN-473" value="" style="ellipse;whiteSpace=wrap;html=1;aspect=fixed;fillColor=#f8cecc;strokeColor=#b85450;" vertex="1" parent="pflW-3yKm34LbVUq-xgN-819">
          <mxGeometry x="243" y="498" width="10" height="10" as="geometry" />
        </mxCell>
        <mxCell id="pflW-3yKm34LbVUq-xgN-474" value="No" style="text;html=1;align=center;verticalAlign=middle;whiteSpace=wrap;rounded=0;" vertex="1" parent="pflW-3yKm34LbVUq-xgN-819">
          <mxGeometry x="203" y="468" width="30" height="10" as="geometry" />
        </mxCell>
        <mxCell id="pflW-3yKm34LbVUq-xgN-475" style="edgeStyle=orthogonalEdgeStyle;rounded=0;orthogonalLoop=1;jettySize=auto;html=1;exitX=0.5;exitY=1;exitDx=0;exitDy=0;entryX=0.5;entryY=0;entryDx=0;entryDy=0;" edge="1" parent="pflW-3yKm34LbVUq-xgN-819" target="pflW-3yKm34LbVUq-xgN-470">
          <mxGeometry relative="1" as="geometry">
            <mxPoint x="203" y="370" as="sourcePoint" />
          </mxGeometry>
        </mxCell>
        <mxCell id="pflW-3yKm34LbVUq-xgN-476" style="edgeStyle=orthogonalEdgeStyle;rounded=0;orthogonalLoop=1;jettySize=auto;html=1;exitX=0.5;exitY=1;exitDx=0;exitDy=0;" edge="1" parent="pflW-3yKm34LbVUq-xgN-819" source="pflW-3yKm34LbVUq-xgN-477">
          <mxGeometry relative="1" as="geometry">
            <mxPoint x="203" y="340" as="targetPoint" />
          </mxGeometry>
        </mxCell>
        <mxCell id="pflW-3yKm34LbVUq-xgN-477" value="Damaged Cart&amp;nbsp;" style="rhombus;whiteSpace=wrap;html=1;" vertex="1" parent="pflW-3yKm34LbVUq-xgN-819">
          <mxGeometry x="163" y="240" width="80" height="80" as="geometry" />
        </mxCell>
        <mxCell id="pflW-3yKm34LbVUq-xgN-478" value="Yes" style="text;html=1;align=center;verticalAlign=middle;whiteSpace=wrap;rounded=0;" vertex="1" parent="pflW-3yKm34LbVUq-xgN-819">
          <mxGeometry x="129" y="270" width="40" height="10" as="geometry" />
        </mxCell>
        <mxCell id="pflW-3yKm34LbVUq-xgN-479" style="edgeStyle=orthogonalEdgeStyle;rounded=0;orthogonalLoop=1;jettySize=auto;html=1;exitX=0.5;exitY=1;exitDx=0;exitDy=0;entryX=0.5;entryY=0;entryDx=0;entryDy=0;" edge="1" parent="pflW-3yKm34LbVUq-xgN-819">
          <mxGeometry relative="1" as="geometry">
            <mxPoint x="202" y="664" as="sourcePoint" />
            <mxPoint x="202" y="680" as="targetPoint" />
          </mxGeometry>
        </mxCell>
        <mxCell id="pflW-3yKm34LbVUq-xgN-480" style="edgeStyle=orthogonalEdgeStyle;rounded=0;orthogonalLoop=1;jettySize=auto;html=1;exitX=0.5;exitY=1;exitDx=0;exitDy=0;entryX=0.5;entryY=0;entryDx=0;entryDy=0;" edge="1" parent="pflW-3yKm34LbVUq-xgN-819" source="pflW-3yKm34LbVUq-xgN-481">
          <mxGeometry relative="1" as="geometry">
            <mxPoint x="202" y="634" as="targetPoint" />
          </mxGeometry>
        </mxCell>
        <mxCell id="pflW-3yKm34LbVUq-xgN-481" value="Group Picking" style="rhombus;whiteSpace=wrap;html=1;" vertex="1" parent="pflW-3yKm34LbVUq-xgN-819">
          <mxGeometry x="163" y="533" width="80" height="80" as="geometry" />
        </mxCell>
        <mxCell id="pflW-3yKm34LbVUq-xgN-482" value="Yes" style="text;html=1;align=center;verticalAlign=middle;whiteSpace=wrap;rounded=0;" vertex="1" parent="pflW-3yKm34LbVUq-xgN-819">
          <mxGeometry x="203" y="620" width="30" height="12" as="geometry" />
        </mxCell>
        <mxCell id="pflW-3yKm34LbVUq-xgN-483" style="edgeStyle=orthogonalEdgeStyle;rounded=0;orthogonalLoop=1;jettySize=auto;html=1;exitX=0.5;exitY=1;exitDx=0;exitDy=0;entryX=0.5;entryY=0;entryDx=0;entryDy=0;" edge="1" parent="pflW-3yKm34LbVUq-xgN-819" source="pflW-3yKm34LbVUq-xgN-484">
          <mxGeometry relative="1" as="geometry">
            <mxPoint x="203" y="240" as="targetPoint" />
          </mxGeometry>
        </mxCell>
        <mxCell id="pflW-3yKm34LbVUq-xgN-484" value="User Accept" style="rhombus;whiteSpace=wrap;html=1;" vertex="1" parent="pflW-3yKm34LbVUq-xgN-819">
          <mxGeometry x="163" y="140" width="80" height="80" as="geometry" />
        </mxCell>
        <mxCell id="pflW-3yKm34LbVUq-xgN-485" style="edgeStyle=orthogonalEdgeStyle;rounded=0;orthogonalLoop=1;jettySize=auto;html=1;exitX=0.875;exitY=0.989;exitDx=0;exitDy=0;entryX=0;entryY=0.5;entryDx=0;entryDy=0;exitPerimeter=0;" edge="1" parent="pflW-3yKm34LbVUq-xgN-819" source="pflW-3yKm34LbVUq-xgN-478" target="pflW-3yKm34LbVUq-xgN-465">
          <mxGeometry relative="1" as="geometry">
            <mxPoint x="157" y="279.9999999999999" as="sourcePoint" />
            <mxPoint x="137" y="160" as="targetPoint" />
            <Array as="points">
              <mxPoint x="123" y="280" />
              <mxPoint x="123" y="60" />
            </Array>
          </mxGeometry>
        </mxCell>
        <mxCell id="pflW-3yKm34LbVUq-xgN-486" value="Update the PDA" style="text;html=1;align=center;verticalAlign=middle;whiteSpace=wrap;rounded=0;rotation=270;" vertex="1" parent="pflW-3yKm34LbVUq-xgN-819">
          <mxGeometry x="63" y="220" width="100" height="20" as="geometry" />
        </mxCell>
        <mxCell id="pflW-3yKm34LbVUq-xgN-487" value="Yes" style="text;html=1;align=center;verticalAlign=middle;whiteSpace=wrap;rounded=0;" vertex="1" parent="pflW-3yKm34LbVUq-xgN-819">
          <mxGeometry x="203" y="220" width="40" height="10" as="geometry" />
        </mxCell>
        <mxCell id="pflW-3yKm34LbVUq-xgN-488" value="No" style="text;html=1;align=center;verticalAlign=middle;whiteSpace=wrap;rounded=0;" vertex="1" parent="pflW-3yKm34LbVUq-xgN-819">
          <mxGeometry x="207" y="323" width="40" height="10" as="geometry" />
        </mxCell>
        <mxCell id="pflW-3yKm34LbVUq-xgN-496" value="Scan Empty Cart to confirm Mapping" style="rounded=0;whiteSpace=wrap;html=1;" vertex="1" parent="pflW-3yKm34LbVUq-xgN-819">
          <mxGeometry x="143" y="340" width="120" height="30" as="geometry" />
        </mxCell>
        <mxCell id="pflW-3yKm34LbVUq-xgN-498" style="edgeStyle=orthogonalEdgeStyle;rounded=0;orthogonalLoop=1;jettySize=auto;html=1;exitX=0.5;exitY=0;exitDx=0;exitDy=0;entryX=0;entryY=0.5;entryDx=0;entryDy=0;" edge="1" parent="pflW-3yKm34LbVUq-xgN-819" source="pflW-3yKm34LbVUq-xgN-497" target="pflW-3yKm34LbVUq-xgN-496">
          <mxGeometry relative="1" as="geometry" />
        </mxCell>
        <mxCell id="pflW-3yKm34LbVUq-xgN-497" value="Rejects Cart#" style="rounded=0;whiteSpace=wrap;html=1;" vertex="1" parent="pflW-3yKm34LbVUq-xgN-819">
          <mxGeometry x="16" y="416" width="120" height="30" as="geometry" />
        </mxCell>
        <mxCell id="pflW-3yKm34LbVUq-xgN-501" value="Turn the PTL on both Sides" style="rounded=0;whiteSpace=wrap;html=1;" vertex="1" parent="pflW-3yKm34LbVUq-xgN-819">
          <mxGeometry x="143" y="632" width="120" height="30" as="geometry" />
        </mxCell>
        <mxCell id="pflW-3yKm34LbVUq-xgN-508" style="edgeStyle=orthogonalEdgeStyle;rounded=0;orthogonalLoop=1;jettySize=auto;html=1;exitX=0.5;exitY=1;exitDx=0;exitDy=0;entryX=0.5;entryY=0;entryDx=0;entryDy=0;" edge="1" parent="pflW-3yKm34LbVUq-xgN-819" source="pflW-3yKm34LbVUq-xgN-503">
          <mxGeometry relative="1" as="geometry">
            <mxPoint x="203" y="730" as="targetPoint" />
          </mxGeometry>
        </mxCell>
        <mxCell id="pflW-3yKm34LbVUq-xgN-503" value="Follow PTL&amp;nbsp;" style="rounded=0;whiteSpace=wrap;html=1;" vertex="1" parent="pflW-3yKm34LbVUq-xgN-819">
          <mxGeometry x="143" y="680" width="120" height="30" as="geometry" />
        </mxCell>
        <mxCell id="pflW-3yKm34LbVUq-xgN-504" value="&lt;span style=&quot;color: rgba(0, 0, 0, 0); font-family: monospace; font-size: 0px; text-align: start; text-wrap-mode: nowrap;&quot;&gt;%3CmxGraphModel%3E%3Croot%3E%3CmxCell%20id%3D%220%22%2F%3E%3CmxCell%20id%3D%221%22%20parent%3D%220%22%2F%3E%3CmxCell%20id%3D%222%22%20value%3D%22%22%20style%3D%22ellipse%3BwhiteSpace%3Dwrap%3Bhtml%3D1%3Baspect%3Dfixed%3BfillColor%3D%23f8cecc%3BstrokeColor%3D%23b85450%3B%22%20vertex%3D%221%22%20parent%3D%221%22%3E%3CmxGeometry%20x%3D%221518%22%20y%3D%22730%22%20width%3D%2210%22%20height%3D%2210%22%20as%3D%22geometry%22%2F%3E%3C%2FmxCell%3E%3C%2Froot%3E%3C%2FmxGraphModel%3E&lt;/span&gt;" style="ellipse;whiteSpace=wrap;html=1;aspect=fixed;fillColor=#f8cecc;strokeColor=#b85450;" vertex="1" parent="pflW-3yKm34LbVUq-xgN-819">
          <mxGeometry x="233" y="690" width="10" height="10" as="geometry" />
        </mxCell>
        <mxCell id="pflW-3yKm34LbVUq-xgN-517" style="edgeStyle=orthogonalEdgeStyle;rounded=0;orthogonalLoop=1;jettySize=auto;html=1;exitX=0;exitY=0.5;exitDx=0;exitDy=0;entryX=1;entryY=0.5;entryDx=0;entryDy=0;" edge="1" parent="pflW-3yKm34LbVUq-xgN-819" source="pflW-3yKm34LbVUq-xgN-519" target="pflW-3yKm34LbVUq-xgN-521">
          <mxGeometry relative="1" as="geometry" />
        </mxCell>
        <mxCell id="pflW-3yKm34LbVUq-xgN-518" style="edgeStyle=orthogonalEdgeStyle;rounded=0;orthogonalLoop=1;jettySize=auto;html=1;exitX=0.5;exitY=1;exitDx=0;exitDy=0;entryX=0.5;entryY=0;entryDx=0;entryDy=0;" edge="1" parent="pflW-3yKm34LbVUq-xgN-819" source="pflW-3yKm34LbVUq-xgN-519" target="pflW-3yKm34LbVUq-xgN-527">
          <mxGeometry relative="1" as="geometry" />
        </mxCell>
        <mxCell id="pflW-3yKm34LbVUq-xgN-519" value="One Picked early" style="rhombus;whiteSpace=wrap;html=1;" vertex="1" parent="pflW-3yKm34LbVUq-xgN-819">
          <mxGeometry x="166" y="780" width="80" height="80" as="geometry" />
        </mxCell>
        <mxCell id="pflW-3yKm34LbVUq-xgN-520" style="edgeStyle=orthogonalEdgeStyle;rounded=0;orthogonalLoop=1;jettySize=auto;html=1;exitX=0.5;exitY=1;exitDx=0;exitDy=0;" edge="1" parent="pflW-3yKm34LbVUq-xgN-819" source="pflW-3yKm34LbVUq-xgN-521" target="pflW-3yKm34LbVUq-xgN-523">
          <mxGeometry relative="1" as="geometry" />
        </mxCell>
        <mxCell id="pflW-3yKm34LbVUq-xgN-521" value="Update the PDA" style="rounded=0;whiteSpace=wrap;html=1;" vertex="1" parent="pflW-3yKm34LbVUq-xgN-819">
          <mxGeometry x="20" y="805" width="120" height="30" as="geometry" />
        </mxCell>
        <mxCell id="pflW-3yKm34LbVUq-xgN-522" style="edgeStyle=orthogonalEdgeStyle;rounded=0;orthogonalLoop=1;jettySize=auto;html=1;exitX=0.5;exitY=1;exitDx=0;exitDy=0;entryX=0.5;entryY=0;entryDx=0;entryDy=0;" edge="1" parent="pflW-3yKm34LbVUq-xgN-819" source="pflW-3yKm34LbVUq-xgN-523" target="pflW-3yKm34LbVUq-xgN-525">
          <mxGeometry relative="1" as="geometry" />
        </mxCell>
        <mxCell id="pflW-3yKm34LbVUq-xgN-523" value="Scan the Cart# to link Next Order" style="rounded=0;whiteSpace=wrap;html=1;" vertex="1" parent="pflW-3yKm34LbVUq-xgN-819">
          <mxGeometry x="20" y="880" width="120" height="30" as="geometry" />
        </mxCell>
        <mxCell id="pflW-3yKm34LbVUq-xgN-524" value="Yes" style="text;html=1;align=center;verticalAlign=middle;whiteSpace=wrap;rounded=0;" vertex="1" parent="pflW-3yKm34LbVUq-xgN-819">
          <mxGeometry x="146" y="793" width="30" height="12" as="geometry" />
        </mxCell>
        <mxCell id="pflW-3yKm34LbVUq-xgN-568" style="edgeStyle=orthogonalEdgeStyle;rounded=0;orthogonalLoop=1;jettySize=auto;html=1;exitX=0;exitY=0.5;exitDx=0;exitDy=0;entryX=0;entryY=0.502;entryDx=0;entryDy=0;entryPerimeter=0;" edge="1" parent="pflW-3yKm34LbVUq-xgN-819" source="pflW-3yKm34LbVUq-xgN-525" target="pflW-3yKm34LbVUq-xgN-569">
          <mxGeometry relative="1" as="geometry">
            <Array as="points">
              <mxPoint y="945" />
              <mxPoint y="1120" />
              <mxPoint x="339" y="1120" />
              <mxPoint x="339" y="788" />
            </Array>
          </mxGeometry>
        </mxCell>
        <mxCell id="pflW-3yKm34LbVUq-xgN-525" value="Follow PTL" style="rounded=0;whiteSpace=wrap;html=1;" vertex="1" parent="pflW-3yKm34LbVUq-xgN-819">
          <mxGeometry x="20" y="930" width="120" height="30" as="geometry" />
        </mxCell>
        <mxCell id="pflW-3yKm34LbVUq-xgN-526" value="" style="ellipse;whiteSpace=wrap;html=1;aspect=fixed;fillColor=#dae8fc;strokeColor=#6c8ebf;" vertex="1" parent="pflW-3yKm34LbVUq-xgN-819">
          <mxGeometry x="116" y="940" width="10" height="10" as="geometry" />
        </mxCell>
        <mxCell id="pflW-3yKm34LbVUq-xgN-536" style="edgeStyle=orthogonalEdgeStyle;rounded=0;orthogonalLoop=1;jettySize=auto;html=1;exitX=0.5;exitY=1;exitDx=0;exitDy=0;entryX=0.5;entryY=0;entryDx=0;entryDy=0;" edge="1" parent="pflW-3yKm34LbVUq-xgN-819" source="pflW-3yKm34LbVUq-xgN-527" target="pflW-3yKm34LbVUq-xgN-532">
          <mxGeometry relative="1" as="geometry" />
        </mxCell>
        <mxCell id="pflW-3yKm34LbVUq-xgN-527" value="Turn off PTL&amp;nbsp;&amp;nbsp;" style="rounded=0;whiteSpace=wrap;html=1;" vertex="1" parent="pflW-3yKm34LbVUq-xgN-819">
          <mxGeometry x="146" y="880" width="120" height="30" as="geometry" />
        </mxCell>
        <mxCell id="pflW-3yKm34LbVUq-xgN-530" style="edgeStyle=orthogonalEdgeStyle;rounded=0;orthogonalLoop=1;jettySize=auto;html=1;exitX=0.5;exitY=1;exitDx=0;exitDy=0;entryX=0.5;entryY=0;entryDx=0;entryDy=0;" edge="1" parent="pflW-3yKm34LbVUq-xgN-819" source="pflW-3yKm34LbVUq-xgN-528" target="pflW-3yKm34LbVUq-xgN-519">
          <mxGeometry relative="1" as="geometry" />
        </mxCell>
        <mxCell id="pflW-3yKm34LbVUq-xgN-528" value="Pick and Turn off PTL&amp;nbsp;" style="rounded=0;whiteSpace=wrap;html=1;" vertex="1" parent="pflW-3yKm34LbVUq-xgN-819">
          <mxGeometry x="143" y="730" width="120" height="30" as="geometry" />
        </mxCell>
        <mxCell id="pflW-3yKm34LbVUq-xgN-529" value="" style="ellipse;whiteSpace=wrap;html=1;aspect=fixed;fillColor=#f8cecc;strokeColor=#b85450;" vertex="1" parent="pflW-3yKm34LbVUq-xgN-819">
          <mxGeometry x="214" y="747" width="8" height="8" as="geometry" />
        </mxCell>
        <mxCell id="pflW-3yKm34LbVUq-xgN-531" value="&lt;span style=&quot;color: rgba(0, 0, 0, 0); font-family: monospace; font-size: 0px; text-align: start; text-wrap-mode: nowrap;&quot;&gt;%3CmxGraphModel%3E%3Croot%3E%3CmxCell%20id%3D%220%22%2F%3E%3CmxCell%20id%3D%221%22%20parent%3D%220%22%2F%3E%3CmxCell%20id%3D%222%22%20value%3D%22%22%20style%3D%22ellipse%3BwhiteSpace%3Dwrap%3Bhtml%3D1%3Baspect%3Dfixed%3BfillColor%3D%23f8cecc%3BstrokeColor%3D%23b85450%3B%22%20vertex%3D%221%22%20parent%3D%221%22%3E%3CmxGeometry%20x%3D%221518%22%20y%3D%22730%22%20width%3D%2210%22%20height%3D%2210%22%20as%3D%22geometry%22%2F%3E%3C%2FmxCell%3E%3C%2Froot%3E%3C%2FmxGraphModel%3E&lt;/span&gt;" style="ellipse;whiteSpace=wrap;html=1;aspect=fixed;fillColor=#f8cecc;strokeColor=#b85450;" vertex="1" parent="pflW-3yKm34LbVUq-xgN-819">
          <mxGeometry x="246" y="890" width="10" height="10" as="geometry" />
        </mxCell>
        <mxCell id="pflW-3yKm34LbVUq-xgN-537" style="edgeStyle=orthogonalEdgeStyle;rounded=0;orthogonalLoop=1;jettySize=auto;html=1;exitX=0.5;exitY=1;exitDx=0;exitDy=0;entryX=0.5;entryY=0;entryDx=0;entryDy=0;" edge="1" parent="pflW-3yKm34LbVUq-xgN-819" source="pflW-3yKm34LbVUq-xgN-532" target="pflW-3yKm34LbVUq-xgN-533">
          <mxGeometry relative="1" as="geometry" />
        </mxCell>
        <mxCell id="pflW-3yKm34LbVUq-xgN-532" value="Complete the Order in PDA" style="rounded=0;whiteSpace=wrap;html=1;" vertex="1" parent="pflW-3yKm34LbVUq-xgN-819">
          <mxGeometry x="146" y="930" width="120" height="30" as="geometry" />
        </mxCell>
        <mxCell id="pflW-3yKm34LbVUq-xgN-538" style="edgeStyle=orthogonalEdgeStyle;rounded=0;orthogonalLoop=1;jettySize=auto;html=1;exitX=0.5;exitY=1;exitDx=0;exitDy=0;entryX=0.5;entryY=0;entryDx=0;entryDy=0;" edge="1" parent="pflW-3yKm34LbVUq-xgN-819" source="pflW-3yKm34LbVUq-xgN-533" target="pflW-3yKm34LbVUq-xgN-534">
          <mxGeometry relative="1" as="geometry" />
        </mxCell>
        <mxCell id="pflW-3yKm34LbVUq-xgN-533" value="Check the Picking Status in PDA" style="rounded=0;whiteSpace=wrap;html=1;" vertex="1" parent="pflW-3yKm34LbVUq-xgN-819">
          <mxGeometry x="146" y="980" width="120" height="30" as="geometry" />
        </mxCell>
        <mxCell id="pflW-3yKm34LbVUq-xgN-539" style="edgeStyle=orthogonalEdgeStyle;rounded=0;orthogonalLoop=1;jettySize=auto;html=1;exitX=0.5;exitY=1;exitDx=0;exitDy=0;entryX=0.5;entryY=0;entryDx=0;entryDy=0;" edge="1" parent="pflW-3yKm34LbVUq-xgN-819" source="pflW-3yKm34LbVUq-xgN-534" target="pflW-3yKm34LbVUq-xgN-535">
          <mxGeometry relative="1" as="geometry" />
        </mxCell>
        <mxCell id="pflW-3yKm34LbVUq-xgN-534" value="Confirm in PDA" style="rounded=0;whiteSpace=wrap;html=1;" vertex="1" parent="pflW-3yKm34LbVUq-xgN-819">
          <mxGeometry x="146" y="1030" width="120" height="30" as="geometry" />
        </mxCell>
        <mxCell id="pflW-3yKm34LbVUq-xgN-540" style="edgeStyle=orthogonalEdgeStyle;rounded=0;orthogonalLoop=1;jettySize=auto;html=1;exitX=0;exitY=0.5;exitDx=0;exitDy=0;entryX=0.5;entryY=1;entryDx=0;entryDy=0;" edge="1" parent="pflW-3yKm34LbVUq-xgN-819" source="pflW-3yKm34LbVUq-xgN-535" target="pflW-3yKm34LbVUq-xgN-525">
          <mxGeometry relative="1" as="geometry" />
        </mxCell>
        <mxCell id="pflW-3yKm34LbVUq-xgN-543" style="edgeStyle=orthogonalEdgeStyle;rounded=0;orthogonalLoop=1;jettySize=auto;html=1;exitX=1;exitY=0.5;exitDx=0;exitDy=0;entryX=0;entryY=0.5;entryDx=0;entryDy=0;" edge="1" parent="pflW-3yKm34LbVUq-xgN-819" source="pflW-3yKm34LbVUq-xgN-535" target="pflW-3yKm34LbVUq-xgN-542">
          <mxGeometry relative="1" as="geometry" />
        </mxCell>
        <mxCell id="pflW-3yKm34LbVUq-xgN-535" value="Unlink the Cart from Cluster" style="rounded=0;whiteSpace=wrap;html=1;" vertex="1" parent="pflW-3yKm34LbVUq-xgN-819">
          <mxGeometry x="146" y="1080" width="120" height="30" as="geometry" />
        </mxCell>
        <mxCell id="pflW-3yKm34LbVUq-xgN-541" value="Second Picker will join picking PTL [Blue]" style="text;html=1;align=center;verticalAlign=middle;whiteSpace=wrap;rounded=0;rotation=270;" vertex="1" parent="pflW-3yKm34LbVUq-xgN-819">
          <mxGeometry x="33.5" y="1027" width="123" height="12" as="geometry" />
        </mxCell>
        <mxCell id="pflW-3yKm34LbVUq-xgN-546" style="edgeStyle=orthogonalEdgeStyle;rounded=0;orthogonalLoop=1;jettySize=auto;html=1;exitX=0.5;exitY=1;exitDx=0;exitDy=0;entryX=0.5;entryY=0;entryDx=0;entryDy=0;" edge="1" parent="pflW-3yKm34LbVUq-xgN-819" source="pflW-3yKm34LbVUq-xgN-542" target="pflW-3yKm34LbVUq-xgN-544">
          <mxGeometry relative="1" as="geometry" />
        </mxCell>
        <mxCell id="pflW-3yKm34LbVUq-xgN-542" value="SPS Order" style="rounded=0;whiteSpace=wrap;html=1;" vertex="1" parent="pflW-3yKm34LbVUq-xgN-819">
          <mxGeometry x="398" y="50" width="120" height="20" as="geometry" />
        </mxCell>
        <mxCell id="pflW-3yKm34LbVUq-xgN-547" style="edgeStyle=orthogonalEdgeStyle;rounded=0;orthogonalLoop=1;jettySize=auto;html=1;exitX=0.5;exitY=1;exitDx=0;exitDy=0;entryX=0.5;entryY=0;entryDx=0;entryDy=0;" edge="1" parent="pflW-3yKm34LbVUq-xgN-819" source="pflW-3yKm34LbVUq-xgN-544" target="pflW-3yKm34LbVUq-xgN-545">
          <mxGeometry relative="1" as="geometry" />
        </mxCell>
        <mxCell id="pflW-3yKm34LbVUq-xgN-544" value="Reflects in Picker PDA" style="rounded=0;whiteSpace=wrap;html=1;" vertex="1" parent="pflW-3yKm34LbVUq-xgN-819">
          <mxGeometry x="398" y="90" width="120" height="30" as="geometry" />
        </mxCell>
        <mxCell id="pflW-3yKm34LbVUq-xgN-549" style="edgeStyle=orthogonalEdgeStyle;rounded=0;orthogonalLoop=1;jettySize=auto;html=1;exitX=0.5;exitY=1;exitDx=0;exitDy=0;" edge="1" parent="pflW-3yKm34LbVUq-xgN-819" source="pflW-3yKm34LbVUq-xgN-545" target="pflW-3yKm34LbVUq-xgN-548">
          <mxGeometry relative="1" as="geometry" />
        </mxCell>
        <mxCell id="pflW-3yKm34LbVUq-xgN-545" value="Scan Cart to confirm Mapping to SPS Order" style="rounded=0;whiteSpace=wrap;html=1;" vertex="1" parent="pflW-3yKm34LbVUq-xgN-819">
          <mxGeometry x="398" y="140" width="120" height="40" as="geometry" />
        </mxCell>
        <mxCell id="pflW-3yKm34LbVUq-xgN-551" style="edgeStyle=orthogonalEdgeStyle;rounded=0;orthogonalLoop=1;jettySize=auto;html=1;exitX=0;exitY=0.5;exitDx=0;exitDy=0;entryX=0;entryY=0.5;entryDx=0;entryDy=0;" edge="1" parent="pflW-3yKm34LbVUq-xgN-819" source="pflW-3yKm34LbVUq-xgN-548" target="pflW-3yKm34LbVUq-xgN-545">
          <mxGeometry relative="1" as="geometry">
            <Array as="points">
              <mxPoint x="369" y="250" />
              <mxPoint x="369" y="160" />
            </Array>
          </mxGeometry>
        </mxCell>
        <mxCell id="pflW-3yKm34LbVUq-xgN-553" style="edgeStyle=orthogonalEdgeStyle;rounded=0;orthogonalLoop=1;jettySize=auto;html=1;exitX=0.5;exitY=1;exitDx=0;exitDy=0;entryX=0.5;entryY=0;entryDx=0;entryDy=0;" edge="1" parent="pflW-3yKm34LbVUq-xgN-819" source="pflW-3yKm34LbVUq-xgN-548" target="pflW-3yKm34LbVUq-xgN-552">
          <mxGeometry relative="1" as="geometry" />
        </mxCell>
        <mxCell id="pflW-3yKm34LbVUq-xgN-548" value="Wrong Cart Scanned" style="rhombus;whiteSpace=wrap;html=1;" vertex="1" parent="pflW-3yKm34LbVUq-xgN-819">
          <mxGeometry x="418" y="210" width="80" height="80" as="geometry" />
        </mxCell>
        <mxCell id="pflW-3yKm34LbVUq-xgN-550" value="Reject &amp;amp; Fore Re-scan" style="text;html=1;align=center;verticalAlign=middle;whiteSpace=wrap;rounded=0;rotation=270;" vertex="1" parent="pflW-3yKm34LbVUq-xgN-819">
          <mxGeometry x="286" y="190" width="140" height="20" as="geometry" />
        </mxCell>
        <mxCell id="pflW-3yKm34LbVUq-xgN-560" style="edgeStyle=orthogonalEdgeStyle;rounded=0;orthogonalLoop=1;jettySize=auto;html=1;exitX=0.5;exitY=1;exitDx=0;exitDy=0;entryX=0.5;entryY=0;entryDx=0;entryDy=0;" edge="1" parent="pflW-3yKm34LbVUq-xgN-819" source="pflW-3yKm34LbVUq-xgN-552" target="pflW-3yKm34LbVUq-xgN-555">
          <mxGeometry relative="1" as="geometry" />
        </mxCell>
        <mxCell id="pflW-3yKm34LbVUq-xgN-552" value="Turn ON PTL&amp;nbsp;" style="rounded=0;whiteSpace=wrap;html=1;" vertex="1" parent="pflW-3yKm34LbVUq-xgN-819">
          <mxGeometry x="398" y="313" width="120" height="30" as="geometry" />
        </mxCell>
        <mxCell id="pflW-3yKm34LbVUq-xgN-554" value="" style="ellipse;whiteSpace=wrap;html=1;aspect=fixed;fillColor=#f8cecc;strokeColor=#b85450;" vertex="1" parent="pflW-3yKm34LbVUq-xgN-819">
          <mxGeometry x="498" y="324" width="10" height="10" as="geometry" />
        </mxCell>
        <mxCell id="pflW-3yKm34LbVUq-xgN-561" style="edgeStyle=orthogonalEdgeStyle;rounded=0;orthogonalLoop=1;jettySize=auto;html=1;exitX=0.5;exitY=1;exitDx=0;exitDy=0;entryX=0.5;entryY=0;entryDx=0;entryDy=0;" edge="1" parent="pflW-3yKm34LbVUq-xgN-819" source="pflW-3yKm34LbVUq-xgN-555" target="pflW-3yKm34LbVUq-xgN-556">
          <mxGeometry relative="1" as="geometry" />
        </mxCell>
        <mxCell id="pflW-3yKm34LbVUq-xgN-555" value="Group Picking" style="rhombus;whiteSpace=wrap;html=1;" vertex="1" parent="pflW-3yKm34LbVUq-xgN-819">
          <mxGeometry x="418" y="370" width="80" height="80" as="geometry" />
        </mxCell>
        <mxCell id="pflW-3yKm34LbVUq-xgN-562" style="edgeStyle=orthogonalEdgeStyle;rounded=0;orthogonalLoop=1;jettySize=auto;html=1;exitX=0.5;exitY=1;exitDx=0;exitDy=0;entryX=0.5;entryY=0;entryDx=0;entryDy=0;" edge="1" parent="pflW-3yKm34LbVUq-xgN-819" source="pflW-3yKm34LbVUq-xgN-556" target="pflW-3yKm34LbVUq-xgN-557">
          <mxGeometry relative="1" as="geometry" />
        </mxCell>
        <mxCell id="pflW-3yKm34LbVUq-xgN-556" value="Turn the PTL on both Sides" style="rounded=0;whiteSpace=wrap;html=1;" vertex="1" parent="pflW-3yKm34LbVUq-xgN-819">
          <mxGeometry x="398" y="469" width="120" height="30" as="geometry" />
        </mxCell>
        <mxCell id="pflW-3yKm34LbVUq-xgN-563" style="edgeStyle=orthogonalEdgeStyle;rounded=0;orthogonalLoop=1;jettySize=auto;html=1;exitX=0.5;exitY=1;exitDx=0;exitDy=0;entryX=0.5;entryY=0;entryDx=0;entryDy=0;" edge="1" parent="pflW-3yKm34LbVUq-xgN-819" source="pflW-3yKm34LbVUq-xgN-557" target="pflW-3yKm34LbVUq-xgN-559">
          <mxGeometry relative="1" as="geometry" />
        </mxCell>
        <mxCell id="pflW-3yKm34LbVUq-xgN-557" value="Follow PTL&amp;nbsp;" style="rounded=0;whiteSpace=wrap;html=1;" vertex="1" parent="pflW-3yKm34LbVUq-xgN-819">
          <mxGeometry x="398" y="517" width="120" height="30" as="geometry" />
        </mxCell>
        <mxCell id="pflW-3yKm34LbVUq-xgN-582" style="edgeStyle=orthogonalEdgeStyle;rounded=0;orthogonalLoop=1;jettySize=auto;html=1;exitX=0;exitY=0.5;exitDx=0;exitDy=0;entryX=0;entryY=0.5;entryDx=0;entryDy=0;" edge="1" parent="pflW-3yKm34LbVUq-xgN-819" source="pflW-3yKm34LbVUq-xgN-558" target="pflW-3yKm34LbVUq-xgN-559">
          <mxGeometry relative="1" as="geometry" />
        </mxCell>
        <mxCell id="pflW-3yKm34LbVUq-xgN-616" style="edgeStyle=orthogonalEdgeStyle;rounded=0;orthogonalLoop=1;jettySize=auto;html=1;exitX=0.5;exitY=1;exitDx=0;exitDy=0;entryX=0.5;entryY=0;entryDx=0;entryDy=0;" edge="1" parent="pflW-3yKm34LbVUq-xgN-819" source="pflW-3yKm34LbVUq-xgN-558" target="pflW-3yKm34LbVUq-xgN-615">
          <mxGeometry relative="1" as="geometry" />
        </mxCell>
        <mxCell id="pflW-3yKm34LbVUq-xgN-558" value="One Picked early" style="rhombus;whiteSpace=wrap;html=1;" vertex="1" parent="pflW-3yKm34LbVUq-xgN-819">
          <mxGeometry x="421" y="617" width="80" height="80" as="geometry" />
        </mxCell>
        <mxCell id="pflW-3yKm34LbVUq-xgN-564" style="edgeStyle=orthogonalEdgeStyle;rounded=0;orthogonalLoop=1;jettySize=auto;html=1;exitX=0.5;exitY=1;exitDx=0;exitDy=0;entryX=0.5;entryY=0;entryDx=0;entryDy=0;" edge="1" parent="pflW-3yKm34LbVUq-xgN-819" source="pflW-3yKm34LbVUq-xgN-559" target="pflW-3yKm34LbVUq-xgN-558">
          <mxGeometry relative="1" as="geometry" />
        </mxCell>
        <mxCell id="pflW-3yKm34LbVUq-xgN-588" style="edgeStyle=orthogonalEdgeStyle;rounded=0;orthogonalLoop=1;jettySize=auto;html=1;exitX=1;exitY=0.5;exitDx=0;exitDy=0;entryX=0.5;entryY=0;entryDx=0;entryDy=0;" edge="1" parent="pflW-3yKm34LbVUq-xgN-819" source="pflW-3yKm34LbVUq-xgN-559" target="pflW-3yKm34LbVUq-xgN-586">
          <mxGeometry relative="1" as="geometry" />
        </mxCell>
        <mxCell id="pflW-3yKm34LbVUq-xgN-559" value="Pick and Turn off PTL one-by-one" style="rounded=0;whiteSpace=wrap;html=1;" vertex="1" parent="pflW-3yKm34LbVUq-xgN-819">
          <mxGeometry x="398" y="567" width="120" height="30" as="geometry" />
        </mxCell>
        <mxCell id="pflW-3yKm34LbVUq-xgN-565" value="Yes" style="text;html=1;align=center;verticalAlign=middle;whiteSpace=wrap;rounded=0;" vertex="1" parent="pflW-3yKm34LbVUq-xgN-819">
          <mxGeometry x="468" y="446" width="30" height="10" as="geometry" />
        </mxCell>
        <mxCell id="pflW-3yKm34LbVUq-xgN-566" value="Yes" style="text;html=1;align=center;verticalAlign=middle;whiteSpace=wrap;rounded=0;" vertex="1" parent="pflW-3yKm34LbVUq-xgN-819">
          <mxGeometry x="468" y="690" width="30" height="10" as="geometry" />
        </mxCell>
        <mxCell id="pflW-3yKm34LbVUq-xgN-567" value="No" style="text;html=1;align=center;verticalAlign=middle;whiteSpace=wrap;rounded=0;" vertex="1" parent="pflW-3yKm34LbVUq-xgN-819">
          <mxGeometry x="207" y="860" width="30" height="12" as="geometry" />
        </mxCell>
        <mxCell id="pflW-3yKm34LbVUq-xgN-577" style="edgeStyle=orthogonalEdgeStyle;rounded=0;orthogonalLoop=1;jettySize=auto;html=1;exitX=0.5;exitY=1;exitDx=0;exitDy=0;entryX=0.5;entryY=0;entryDx=0;entryDy=0;" edge="1" parent="pflW-3yKm34LbVUq-xgN-819" source="pflW-3yKm34LbVUq-xgN-569" target="pflW-3yKm34LbVUq-xgN-575">
          <mxGeometry relative="1" as="geometry" />
        </mxCell>
        <mxCell id="pflW-3yKm34LbVUq-xgN-573" style="edgeStyle=orthogonalEdgeStyle;rounded=0;orthogonalLoop=1;jettySize=auto;html=1;exitX=0.5;exitY=1;exitDx=0;exitDy=0;entryX=0.5;entryY=0;entryDx=0;entryDy=0;" edge="1" parent="pflW-3yKm34LbVUq-xgN-819" source="pflW-3yKm34LbVUq-xgN-571" target="pflW-3yKm34LbVUq-xgN-569">
          <mxGeometry relative="1" as="geometry" />
        </mxCell>
        <mxCell id="pflW-3yKm34LbVUq-xgN-571" value="Scan the Cart# to link Next Order" style="rounded=0;whiteSpace=wrap;html=1;" vertex="1" parent="pflW-3yKm34LbVUq-xgN-819">
          <mxGeometry x="401" y="767" width="120" height="30" as="geometry" />
        </mxCell>
        <mxCell id="pflW-3yKm34LbVUq-xgN-574" value="&lt;span style=&quot;color: rgba(0, 0, 0, 0); font-family: monospace; font-size: 0px; text-align: start; text-wrap-mode: nowrap;&quot;&gt;%3CmxGraphModel%3E%3Croot%3E%3CmxCell%20id%3D%220%22%2F%3E%3CmxCell%20id%3D%221%22%20parent%3D%220%22%2F%3E%3CmxCell%20id%3D%222%22%20value%3D%22%22%20style%3D%22ellipse%3BwhiteSpace%3Dwrap%3Bhtml%3D1%3Baspect%3Dfixed%3BfillColor%3D%23f8cecc%3BstrokeColor%3D%23b85450%3B%22%20vertex%3D%221%22%20parent%3D%221%22%3E%3CmxGeometry%20x%3D%221518%22%20y%3D%22730%22%20width%3D%2210%22%20height%3D%2210%22%20as%3D%22geometry%22%2F%3E%3C%2FmxCell%3E%3C%2Froot%3E%3C%2FmxGraphModel%3E&lt;/span&gt;" style="ellipse;whiteSpace=wrap;html=1;aspect=fixed;fillColor=#f8cecc;strokeColor=#b85450;" vertex="1" parent="pflW-3yKm34LbVUq-xgN-819">
          <mxGeometry x="408" y="585" width="10" height="10" as="geometry" />
        </mxCell>
        <mxCell id="pflW-3yKm34LbVUq-xgN-578" style="edgeStyle=orthogonalEdgeStyle;rounded=0;orthogonalLoop=1;jettySize=auto;html=1;exitX=0.5;exitY=1;exitDx=0;exitDy=0;entryX=0.5;entryY=0;entryDx=0;entryDy=0;" edge="1" parent="pflW-3yKm34LbVUq-xgN-819" source="pflW-3yKm34LbVUq-xgN-575" target="pflW-3yKm34LbVUq-xgN-576">
          <mxGeometry relative="1" as="geometry" />
        </mxCell>
        <mxCell id="pflW-3yKm34LbVUq-xgN-610" style="edgeStyle=orthogonalEdgeStyle;rounded=0;orthogonalLoop=1;jettySize=auto;html=1;exitX=0;exitY=0.5;exitDx=0;exitDy=0;entryX=0;entryY=0.5;entryDx=0;entryDy=0;" edge="1" parent="pflW-3yKm34LbVUq-xgN-819" source="pflW-3yKm34LbVUq-xgN-575" target="pflW-3yKm34LbVUq-xgN-580">
          <mxGeometry relative="1" as="geometry">
            <Array as="points">
              <mxPoint x="369" y="904" />
              <mxPoint x="369" y="1077" />
            </Array>
          </mxGeometry>
        </mxCell>
        <mxCell id="pflW-3yKm34LbVUq-xgN-575" value="More than One Order in Cluster" style="rhombus;whiteSpace=wrap;html=1;" vertex="1" parent="pflW-3yKm34LbVUq-xgN-819">
          <mxGeometry x="421" y="864" width="80" height="80" as="geometry" />
        </mxCell>
        <mxCell id="pflW-3yKm34LbVUq-xgN-581" style="edgeStyle=orthogonalEdgeStyle;rounded=0;orthogonalLoop=1;jettySize=auto;html=1;exitX=0.5;exitY=1;exitDx=0;exitDy=0;entryX=0.5;entryY=0;entryDx=0;entryDy=0;" edge="1" parent="pflW-3yKm34LbVUq-xgN-819" source="pflW-3yKm34LbVUq-xgN-576" target="pflW-3yKm34LbVUq-xgN-580">
          <mxGeometry relative="1" as="geometry" />
        </mxCell>
        <mxCell id="pflW-3yKm34LbVUq-xgN-603" style="edgeStyle=orthogonalEdgeStyle;rounded=0;orthogonalLoop=1;jettySize=auto;html=1;exitX=1;exitY=0.5;exitDx=0;exitDy=0;entryX=0;entryY=0.5;entryDx=0;entryDy=0;" edge="1" parent="pflW-3yKm34LbVUq-xgN-819" source="pflW-3yKm34LbVUq-xgN-576" target="pflW-3yKm34LbVUq-xgN-586">
          <mxGeometry relative="1" as="geometry" />
        </mxCell>
        <mxCell id="pflW-3yKm34LbVUq-xgN-576" value="Common Parts" style="rhombus;whiteSpace=wrap;html=1;" vertex="1" parent="pflW-3yKm34LbVUq-xgN-819">
          <mxGeometry x="421" y="964" width="80" height="80" as="geometry" />
        </mxCell>
        <mxCell id="pflW-3yKm34LbVUq-xgN-579" value="" style="group" vertex="1" connectable="0" parent="pflW-3yKm34LbVUq-xgN-819">
          <mxGeometry x="401" y="817" width="120" height="30" as="geometry" />
        </mxCell>
        <mxCell id="pflW-3yKm34LbVUq-xgN-569" value="One Picker Follow PTL" style="rounded=0;whiteSpace=wrap;html=1;" vertex="1" parent="pflW-3yKm34LbVUq-xgN-579">
          <mxGeometry width="120" height="30" as="geometry" />
        </mxCell>
        <mxCell id="pflW-3yKm34LbVUq-xgN-570" value="" style="ellipse;whiteSpace=wrap;html=1;aspect=fixed;fillColor=#dae8fc;strokeColor=#6c8ebf;" vertex="1" parent="pflW-3yKm34LbVUq-xgN-579">
          <mxGeometry x="72" y="17" width="10" height="10" as="geometry" />
        </mxCell>
        <mxCell id="pflW-3yKm34LbVUq-xgN-786" style="edgeStyle=orthogonalEdgeStyle;rounded=0;orthogonalLoop=1;jettySize=auto;html=1;exitX=0.5;exitY=1;exitDx=0;exitDy=0;entryX=0.5;entryY=0;entryDx=0;entryDy=0;" edge="1" parent="pflW-3yKm34LbVUq-xgN-819" source="pflW-3yKm34LbVUq-xgN-580" target="pflW-3yKm34LbVUq-xgN-753">
          <mxGeometry relative="1" as="geometry" />
        </mxCell>
        <mxCell id="pflW-3yKm34LbVUq-xgN-580" value="Enable PTL&amp;nbsp;" style="rounded=0;whiteSpace=wrap;html=1;" vertex="1" parent="pflW-3yKm34LbVUq-xgN-819">
          <mxGeometry x="401" y="1062" width="120" height="30" as="geometry" />
        </mxCell>
        <mxCell id="pflW-3yKm34LbVUq-xgN-583" value="No" style="text;html=1;align=center;verticalAlign=middle;whiteSpace=wrap;rounded=0;" vertex="1" parent="pflW-3yKm34LbVUq-xgN-819">
          <mxGeometry x="391" y="642" width="30" height="10" as="geometry" />
        </mxCell>
        <mxCell id="pflW-3yKm34LbVUq-xgN-584" value="&lt;span style=&quot;color: rgba(0, 0, 0, 0); font-family: monospace; font-size: 0px; text-align: start; text-wrap-mode: nowrap;&quot;&gt;%3CmxGraphModel%3E%3Croot%3E%3CmxCell%20id%3D%220%22%2F%3E%3CmxCell%20id%3D%221%22%20parent%3D%220%22%2F%3E%3CmxCell%20id%3D%222%22%20value%3D%22%22%20style%3D%22ellipse%3BwhiteSpace%3Dwrap%3Bhtml%3D1%3Baspect%3Dfixed%3BfillColor%3D%23f8cecc%3BstrokeColor%3D%23b85450%3B%22%20vertex%3D%221%22%20parent%3D%221%22%3E%3CmxGeometry%20x%3D%221518%22%20y%3D%22730%22%20width%3D%2210%22%20height%3D%2210%22%20as%3D%22geometry%22%2F%3E%3C%2FmxCell%3E%3C%2Froot%3E%3C%2FmxGraphModel%3E&lt;/span&gt;" style="ellipse;whiteSpace=wrap;html=1;aspect=fixed;fillColor=#f8cecc;strokeColor=#b85450;" vertex="1" parent="pflW-3yKm34LbVUq-xgN-819">
          <mxGeometry x="491" y="527" width="10" height="10" as="geometry" />
        </mxCell>
        <mxCell id="pflW-3yKm34LbVUq-xgN-585" value="" style="group" vertex="1" connectable="0" parent="pflW-3yKm34LbVUq-xgN-819">
          <mxGeometry x="550" y="817" width="120" height="30" as="geometry" />
        </mxCell>
        <mxCell id="pflW-3yKm34LbVUq-xgN-586" value="One Picker Follow PTL" style="rounded=0;whiteSpace=wrap;html=1;" vertex="1" parent="pflW-3yKm34LbVUq-xgN-585">
          <mxGeometry width="120" height="30" as="geometry" />
        </mxCell>
        <mxCell id="pflW-3yKm34LbVUq-xgN-587" value="" style="ellipse;whiteSpace=wrap;html=1;aspect=fixed;fillColor=#f8cecc;strokeColor=#b85450;" vertex="1" parent="pflW-3yKm34LbVUq-xgN-585">
          <mxGeometry x="72" y="17" width="10" height="10" as="geometry" />
        </mxCell>
        <mxCell id="pflW-3yKm34LbVUq-xgN-589" style="edgeStyle=orthogonalEdgeStyle;rounded=0;orthogonalLoop=1;jettySize=auto;html=1;exitX=0.5;exitY=1;exitDx=0;exitDy=0;entryX=0.5;entryY=0;entryDx=0;entryDy=0;" edge="1" parent="pflW-3yKm34LbVUq-xgN-819" source="pflW-3yKm34LbVUq-xgN-590" target="pflW-3yKm34LbVUq-xgN-593">
          <mxGeometry relative="1" as="geometry" />
        </mxCell>
        <mxCell id="pflW-3yKm34LbVUq-xgN-590" value="Turn off PTL one by One&amp;nbsp;&amp;nbsp;" style="rounded=0;whiteSpace=wrap;html=1;" vertex="1" parent="pflW-3yKm34LbVUq-xgN-819">
          <mxGeometry x="550" y="862" width="120" height="30" as="geometry" />
        </mxCell>
        <mxCell id="pflW-3yKm34LbVUq-xgN-591" value="&lt;span style=&quot;color: rgba(0, 0, 0, 0); font-family: monospace; font-size: 0px; text-align: start; text-wrap-mode: nowrap;&quot;&gt;%3CmxGraphModel%3E%3Croot%3E%3CmxCell%20id%3D%220%22%2F%3E%3CmxCell%20id%3D%221%22%20parent%3D%220%22%2F%3E%3CmxCell%20id%3D%222%22%20value%3D%22%22%20style%3D%22ellipse%3BwhiteSpace%3Dwrap%3Bhtml%3D1%3Baspect%3Dfixed%3BfillColor%3D%23f8cecc%3BstrokeColor%3D%23b85450%3B%22%20vertex%3D%221%22%20parent%3D%221%22%3E%3CmxGeometry%20x%3D%221518%22%20y%3D%22730%22%20width%3D%2210%22%20height%3D%2210%22%20as%3D%22geometry%22%2F%3E%3C%2FmxCell%3E%3C%2Froot%3E%3C%2FmxGraphModel%3E&lt;/span&gt;" style="ellipse;whiteSpace=wrap;html=1;aspect=fixed;fillColor=#f8cecc;strokeColor=#b85450;" vertex="1" parent="pflW-3yKm34LbVUq-xgN-819">
          <mxGeometry x="624" y="879" width="10" height="10" as="geometry" />
        </mxCell>
        <mxCell id="pflW-3yKm34LbVUq-xgN-592" style="edgeStyle=orthogonalEdgeStyle;rounded=0;orthogonalLoop=1;jettySize=auto;html=1;exitX=0.5;exitY=1;exitDx=0;exitDy=0;entryX=0.5;entryY=0;entryDx=0;entryDy=0;" edge="1" parent="pflW-3yKm34LbVUq-xgN-819" source="pflW-3yKm34LbVUq-xgN-593" target="pflW-3yKm34LbVUq-xgN-595">
          <mxGeometry relative="1" as="geometry" />
        </mxCell>
        <mxCell id="pflW-3yKm34LbVUq-xgN-607" style="edgeStyle=orthogonalEdgeStyle;rounded=0;orthogonalLoop=1;jettySize=auto;html=1;exitX=0;exitY=0.5;exitDx=0;exitDy=0;entryX=1;entryY=0.5;entryDx=0;entryDy=0;" edge="1" parent="pflW-3yKm34LbVUq-xgN-819" source="pflW-3yKm34LbVUq-xgN-593" target="pflW-3yKm34LbVUq-xgN-580">
          <mxGeometry relative="1" as="geometry">
            <Array as="points">
              <mxPoint x="541" y="927" />
              <mxPoint x="541" y="1077" />
            </Array>
          </mxGeometry>
        </mxCell>
        <mxCell id="pflW-3yKm34LbVUq-xgN-593" value="Complete the Order in PDA" style="rounded=0;whiteSpace=wrap;html=1;" vertex="1" parent="pflW-3yKm34LbVUq-xgN-819">
          <mxGeometry x="550" y="912" width="120" height="30" as="geometry" />
        </mxCell>
        <mxCell id="pflW-3yKm34LbVUq-xgN-594" style="edgeStyle=orthogonalEdgeStyle;rounded=0;orthogonalLoop=1;jettySize=auto;html=1;exitX=0.5;exitY=1;exitDx=0;exitDy=0;entryX=0.5;entryY=0;entryDx=0;entryDy=0;" edge="1" parent="pflW-3yKm34LbVUq-xgN-819" source="pflW-3yKm34LbVUq-xgN-595" target="pflW-3yKm34LbVUq-xgN-597">
          <mxGeometry relative="1" as="geometry" />
        </mxCell>
        <mxCell id="pflW-3yKm34LbVUq-xgN-595" value="Check the Picking Status in PDA" style="rounded=0;whiteSpace=wrap;html=1;" vertex="1" parent="pflW-3yKm34LbVUq-xgN-819">
          <mxGeometry x="550" y="962" width="120" height="30" as="geometry" />
        </mxCell>
        <mxCell id="pflW-3yKm34LbVUq-xgN-596" style="edgeStyle=orthogonalEdgeStyle;rounded=0;orthogonalLoop=1;jettySize=auto;html=1;exitX=0.5;exitY=1;exitDx=0;exitDy=0;entryX=0.5;entryY=0;entryDx=0;entryDy=0;" edge="1" parent="pflW-3yKm34LbVUq-xgN-819" source="pflW-3yKm34LbVUq-xgN-597" target="pflW-3yKm34LbVUq-xgN-598">
          <mxGeometry relative="1" as="geometry" />
        </mxCell>
        <mxCell id="pflW-3yKm34LbVUq-xgN-597" value="Confirm in PDA" style="rounded=0;whiteSpace=wrap;html=1;" vertex="1" parent="pflW-3yKm34LbVUq-xgN-819">
          <mxGeometry x="550" y="1012" width="120" height="30" as="geometry" />
        </mxCell>
        <mxCell id="pflW-3yKm34LbVUq-xgN-689" style="edgeStyle=orthogonalEdgeStyle;rounded=0;orthogonalLoop=1;jettySize=auto;html=1;exitX=1;exitY=0.5;exitDx=0;exitDy=0;entryX=0;entryY=0.5;entryDx=0;entryDy=0;" edge="1" parent="pflW-3yKm34LbVUq-xgN-819" source="pflW-3yKm34LbVUq-xgN-598" target="pflW-3yKm34LbVUq-xgN-620">
          <mxGeometry relative="1" as="geometry">
            <Array as="points">
              <mxPoint x="699" y="1077" />
              <mxPoint x="699" y="49" />
            </Array>
          </mxGeometry>
        </mxCell>
        <mxCell id="pflW-3yKm34LbVUq-xgN-785" style="edgeStyle=orthogonalEdgeStyle;rounded=0;orthogonalLoop=1;jettySize=auto;html=1;exitX=0.5;exitY=1;exitDx=0;exitDy=0;entryX=1;entryY=1;entryDx=0;entryDy=0;" edge="1" parent="pflW-3yKm34LbVUq-xgN-819" source="pflW-3yKm34LbVUq-xgN-598" target="pflW-3yKm34LbVUq-xgN-580">
          <mxGeometry relative="1" as="geometry" />
        </mxCell>
        <mxCell id="pflW-3yKm34LbVUq-xgN-598" value="Unlink the Cart from Cluster" style="rounded=0;whiteSpace=wrap;html=1;" vertex="1" parent="pflW-3yKm34LbVUq-xgN-819">
          <mxGeometry x="550" y="1062" width="120" height="30" as="geometry" />
        </mxCell>
        <mxCell id="pflW-3yKm34LbVUq-xgN-599" style="edgeStyle=orthogonalEdgeStyle;rounded=0;orthogonalLoop=1;jettySize=auto;html=1;exitX=0.5;exitY=1;exitDx=0;exitDy=0;entryX=0.5;entryY=0;entryDx=0;entryDy=0;" edge="1" parent="pflW-3yKm34LbVUq-xgN-819" source="pflW-3yKm34LbVUq-xgN-586" target="pflW-3yKm34LbVUq-xgN-590">
          <mxGeometry relative="1" as="geometry" />
        </mxCell>
        <mxCell id="pflW-3yKm34LbVUq-xgN-600" value="" style="ellipse;whiteSpace=wrap;html=1;aspect=fixed;fillColor=#dae8fc;strokeColor=#6c8ebf;" vertex="1" parent="pflW-3yKm34LbVUq-xgN-819">
          <mxGeometry x="501" y="1070" width="10" height="10" as="geometry" />
        </mxCell>
        <mxCell id="pflW-3yKm34LbVUq-xgN-601" value="Yes" style="text;html=1;align=center;verticalAlign=middle;whiteSpace=wrap;rounded=0;" vertex="1" parent="pflW-3yKm34LbVUq-xgN-819">
          <mxGeometry x="468" y="944" width="30" height="12" as="geometry" />
        </mxCell>
        <mxCell id="pflW-3yKm34LbVUq-xgN-602" value="No" style="text;html=1;align=center;verticalAlign=middle;whiteSpace=wrap;rounded=0;" vertex="1" parent="pflW-3yKm34LbVUq-xgN-819">
          <mxGeometry x="461" y="1042" width="30" height="12" as="geometry" />
        </mxCell>
        <mxCell id="pflW-3yKm34LbVUq-xgN-604" value="Yes" style="text;html=1;align=center;verticalAlign=middle;whiteSpace=wrap;rounded=0;" vertex="1" parent="pflW-3yKm34LbVUq-xgN-819">
          <mxGeometry x="498" y="984" width="30" height="12" as="geometry" />
        </mxCell>
        <mxCell id="pflW-3yKm34LbVUq-xgN-608" value="First Picker will continue picking PTL [Red]" style="text;html=1;align=center;verticalAlign=middle;whiteSpace=wrap;rounded=0;rotation=90;" vertex="1" parent="pflW-3yKm34LbVUq-xgN-819">
          <mxGeometry x="548.25" y="659.25" width="161.5" height="12" as="geometry" />
        </mxCell>
        <mxCell id="pflW-3yKm34LbVUq-xgN-611" value="No" style="text;html=1;align=center;verticalAlign=middle;whiteSpace=wrap;rounded=0;" vertex="1" parent="pflW-3yKm34LbVUq-xgN-819">
          <mxGeometry x="391" y="889" width="30" height="12" as="geometry" />
        </mxCell>
        <mxCell id="pflW-3yKm34LbVUq-xgN-614" value="First Picker will join picking PTL [Blue]" style="text;html=1;align=center;verticalAlign=middle;whiteSpace=wrap;rounded=0;rotation=0;" vertex="1" parent="pflW-3yKm34LbVUq-xgN-819">
          <mxGeometry x="511" y="1118" width="208" height="12" as="geometry" />
        </mxCell>
        <mxCell id="pflW-3yKm34LbVUq-xgN-617" style="edgeStyle=orthogonalEdgeStyle;rounded=0;orthogonalLoop=1;jettySize=auto;html=1;exitX=0.5;exitY=1;exitDx=0;exitDy=0;entryX=0.5;entryY=0;entryDx=0;entryDy=0;" edge="1" parent="pflW-3yKm34LbVUq-xgN-819" source="pflW-3yKm34LbVUq-xgN-615" target="pflW-3yKm34LbVUq-xgN-571">
          <mxGeometry relative="1" as="geometry" />
        </mxCell>
        <mxCell id="pflW-3yKm34LbVUq-xgN-615" value="Update the PDA" style="rounded=0;whiteSpace=wrap;html=1;" vertex="1" parent="pflW-3yKm34LbVUq-xgN-819">
          <mxGeometry x="401" y="710" width="120" height="30" as="geometry" />
        </mxCell>
        <mxCell id="pflW-3yKm34LbVUq-xgN-619" style="edgeStyle=orthogonalEdgeStyle;rounded=0;orthogonalLoop=1;jettySize=auto;html=1;exitX=0.5;exitY=1;exitDx=0;exitDy=0;entryX=0.5;entryY=0;entryDx=0;entryDy=0;" edge="1" parent="pflW-3yKm34LbVUq-xgN-819" source="pflW-3yKm34LbVUq-xgN-620" target="pflW-3yKm34LbVUq-xgN-622">
          <mxGeometry relative="1" as="geometry" />
        </mxCell>
        <mxCell id="pflW-3yKm34LbVUq-xgN-620" value="SPS Order" style="rounded=0;whiteSpace=wrap;html=1;" vertex="1" parent="pflW-3yKm34LbVUq-xgN-819">
          <mxGeometry x="946" y="39" width="120" height="20" as="geometry" />
        </mxCell>
        <mxCell id="pflW-3yKm34LbVUq-xgN-621" style="edgeStyle=orthogonalEdgeStyle;rounded=0;orthogonalLoop=1;jettySize=auto;html=1;exitX=0.5;exitY=1;exitDx=0;exitDy=0;entryX=0.5;entryY=0;entryDx=0;entryDy=0;" edge="1" parent="pflW-3yKm34LbVUq-xgN-819" source="pflW-3yKm34LbVUq-xgN-622" target="pflW-3yKm34LbVUq-xgN-624">
          <mxGeometry relative="1" as="geometry" />
        </mxCell>
        <mxCell id="pflW-3yKm34LbVUq-xgN-622" value="Reflects in Picker PDA" style="rounded=0;whiteSpace=wrap;html=1;" vertex="1" parent="pflW-3yKm34LbVUq-xgN-819">
          <mxGeometry x="946" y="79" width="120" height="30" as="geometry" />
        </mxCell>
        <mxCell id="pflW-3yKm34LbVUq-xgN-623" style="edgeStyle=orthogonalEdgeStyle;rounded=0;orthogonalLoop=1;jettySize=auto;html=1;exitX=0.5;exitY=1;exitDx=0;exitDy=0;" edge="1" parent="pflW-3yKm34LbVUq-xgN-819" source="pflW-3yKm34LbVUq-xgN-624" target="pflW-3yKm34LbVUq-xgN-627">
          <mxGeometry relative="1" as="geometry" />
        </mxCell>
        <mxCell id="pflW-3yKm34LbVUq-xgN-624" value="Scan Cart to confirm Mapping to SPS Order" style="rounded=0;whiteSpace=wrap;html=1;" vertex="1" parent="pflW-3yKm34LbVUq-xgN-819">
          <mxGeometry x="946" y="129" width="120" height="40" as="geometry" />
        </mxCell>
        <mxCell id="pflW-3yKm34LbVUq-xgN-625" style="edgeStyle=orthogonalEdgeStyle;rounded=0;orthogonalLoop=1;jettySize=auto;html=1;exitX=0;exitY=0.5;exitDx=0;exitDy=0;entryX=0;entryY=0.5;entryDx=0;entryDy=0;" edge="1" parent="pflW-3yKm34LbVUq-xgN-819" source="pflW-3yKm34LbVUq-xgN-627" target="pflW-3yKm34LbVUq-xgN-624">
          <mxGeometry relative="1" as="geometry">
            <Array as="points">
              <mxPoint x="917" y="239" />
              <mxPoint x="917" y="149" />
            </Array>
          </mxGeometry>
        </mxCell>
        <mxCell id="pflW-3yKm34LbVUq-xgN-626" style="edgeStyle=orthogonalEdgeStyle;rounded=0;orthogonalLoop=1;jettySize=auto;html=1;exitX=0.5;exitY=1;exitDx=0;exitDy=0;entryX=0.5;entryY=0;entryDx=0;entryDy=0;" edge="1" parent="pflW-3yKm34LbVUq-xgN-819" source="pflW-3yKm34LbVUq-xgN-627" target="pflW-3yKm34LbVUq-xgN-630">
          <mxGeometry relative="1" as="geometry" />
        </mxCell>
        <mxCell id="pflW-3yKm34LbVUq-xgN-627" value="Wrong Cart Scanned" style="rhombus;whiteSpace=wrap;html=1;" vertex="1" parent="pflW-3yKm34LbVUq-xgN-819">
          <mxGeometry x="966" y="199" width="80" height="80" as="geometry" />
        </mxCell>
        <mxCell id="pflW-3yKm34LbVUq-xgN-628" value="Reject &amp;amp; Fore Re-scan" style="text;html=1;align=center;verticalAlign=middle;whiteSpace=wrap;rounded=0;rotation=270;" vertex="1" parent="pflW-3yKm34LbVUq-xgN-819">
          <mxGeometry x="833" y="179" width="140" height="20" as="geometry" />
        </mxCell>
        <mxCell id="pflW-3yKm34LbVUq-xgN-629" style="edgeStyle=orthogonalEdgeStyle;rounded=0;orthogonalLoop=1;jettySize=auto;html=1;exitX=0.5;exitY=1;exitDx=0;exitDy=0;entryX=0.5;entryY=0;entryDx=0;entryDy=0;" edge="1" parent="pflW-3yKm34LbVUq-xgN-819" source="pflW-3yKm34LbVUq-xgN-630" target="pflW-3yKm34LbVUq-xgN-633">
          <mxGeometry relative="1" as="geometry" />
        </mxCell>
        <mxCell id="pflW-3yKm34LbVUq-xgN-630" value="Turn ON PTL&amp;nbsp;" style="rounded=0;whiteSpace=wrap;html=1;" vertex="1" parent="pflW-3yKm34LbVUq-xgN-819">
          <mxGeometry x="946" y="302" width="120" height="30" as="geometry" />
        </mxCell>
        <mxCell id="pflW-3yKm34LbVUq-xgN-631" value="" style="ellipse;whiteSpace=wrap;html=1;aspect=fixed;fillColor=#f8cecc;strokeColor=#b85450;" vertex="1" parent="pflW-3yKm34LbVUq-xgN-819">
          <mxGeometry x="1046" y="313" width="10" height="10" as="geometry" />
        </mxCell>
        <mxCell id="pflW-3yKm34LbVUq-xgN-632" style="edgeStyle=orthogonalEdgeStyle;rounded=0;orthogonalLoop=1;jettySize=auto;html=1;exitX=0.5;exitY=1;exitDx=0;exitDy=0;entryX=0.5;entryY=0;entryDx=0;entryDy=0;" edge="1" parent="pflW-3yKm34LbVUq-xgN-819" source="pflW-3yKm34LbVUq-xgN-633" target="pflW-3yKm34LbVUq-xgN-635">
          <mxGeometry relative="1" as="geometry" />
        </mxCell>
        <mxCell id="pflW-3yKm34LbVUq-xgN-633" value="Group Picking" style="rhombus;whiteSpace=wrap;html=1;" vertex="1" parent="pflW-3yKm34LbVUq-xgN-819">
          <mxGeometry x="966" y="359" width="80" height="80" as="geometry" />
        </mxCell>
        <mxCell id="pflW-3yKm34LbVUq-xgN-634" style="edgeStyle=orthogonalEdgeStyle;rounded=0;orthogonalLoop=1;jettySize=auto;html=1;exitX=0.5;exitY=1;exitDx=0;exitDy=0;entryX=0.5;entryY=0;entryDx=0;entryDy=0;" edge="1" parent="pflW-3yKm34LbVUq-xgN-819" source="pflW-3yKm34LbVUq-xgN-635" target="pflW-3yKm34LbVUq-xgN-637">
          <mxGeometry relative="1" as="geometry" />
        </mxCell>
        <mxCell id="pflW-3yKm34LbVUq-xgN-635" value="Turn the PTL on both Sides" style="rounded=0;whiteSpace=wrap;html=1;" vertex="1" parent="pflW-3yKm34LbVUq-xgN-819">
          <mxGeometry x="946" y="458" width="120" height="30" as="geometry" />
        </mxCell>
        <mxCell id="pflW-3yKm34LbVUq-xgN-636" style="edgeStyle=orthogonalEdgeStyle;rounded=0;orthogonalLoop=1;jettySize=auto;html=1;exitX=0.5;exitY=1;exitDx=0;exitDy=0;entryX=0.5;entryY=0;entryDx=0;entryDy=0;" edge="1" parent="pflW-3yKm34LbVUq-xgN-819" source="pflW-3yKm34LbVUq-xgN-637" target="pflW-3yKm34LbVUq-xgN-643">
          <mxGeometry relative="1" as="geometry" />
        </mxCell>
        <mxCell id="pflW-3yKm34LbVUq-xgN-637" value="Follow PTL&amp;nbsp;" style="rounded=0;whiteSpace=wrap;html=1;" vertex="1" parent="pflW-3yKm34LbVUq-xgN-819">
          <mxGeometry x="946" y="506" width="120" height="30" as="geometry" />
        </mxCell>
        <mxCell id="pflW-3yKm34LbVUq-xgN-638" style="edgeStyle=orthogonalEdgeStyle;rounded=0;orthogonalLoop=1;jettySize=auto;html=1;exitX=0;exitY=0.5;exitDx=0;exitDy=0;entryX=0;entryY=0.5;entryDx=0;entryDy=0;" edge="1" parent="pflW-3yKm34LbVUq-xgN-819" source="pflW-3yKm34LbVUq-xgN-640" target="pflW-3yKm34LbVUq-xgN-643">
          <mxGeometry relative="1" as="geometry" />
        </mxCell>
        <mxCell id="pflW-3yKm34LbVUq-xgN-639" style="edgeStyle=orthogonalEdgeStyle;rounded=0;orthogonalLoop=1;jettySize=auto;html=1;exitX=0.5;exitY=1;exitDx=0;exitDy=0;entryX=0.5;entryY=0;entryDx=0;entryDy=0;" edge="1" parent="pflW-3yKm34LbVUq-xgN-819" source="pflW-3yKm34LbVUq-xgN-640" target="pflW-3yKm34LbVUq-xgN-686">
          <mxGeometry relative="1" as="geometry" />
        </mxCell>
        <mxCell id="pflW-3yKm34LbVUq-xgN-640" value="One Picked early" style="rhombus;whiteSpace=wrap;html=1;" vertex="1" parent="pflW-3yKm34LbVUq-xgN-819">
          <mxGeometry x="969" y="606" width="80" height="80" as="geometry" />
        </mxCell>
        <mxCell id="pflW-3yKm34LbVUq-xgN-641" style="edgeStyle=orthogonalEdgeStyle;rounded=0;orthogonalLoop=1;jettySize=auto;html=1;exitX=0.5;exitY=1;exitDx=0;exitDy=0;entryX=0.5;entryY=0;entryDx=0;entryDy=0;" edge="1" parent="pflW-3yKm34LbVUq-xgN-819" source="pflW-3yKm34LbVUq-xgN-643" target="pflW-3yKm34LbVUq-xgN-640">
          <mxGeometry relative="1" as="geometry" />
        </mxCell>
        <mxCell id="pflW-3yKm34LbVUq-xgN-642" style="edgeStyle=orthogonalEdgeStyle;rounded=0;orthogonalLoop=1;jettySize=auto;html=1;exitX=1;exitY=0.5;exitDx=0;exitDy=0;entryX=0.5;entryY=0;entryDx=0;entryDy=0;" edge="1" parent="pflW-3yKm34LbVUq-xgN-819" source="pflW-3yKm34LbVUq-xgN-643" target="pflW-3yKm34LbVUq-xgN-663">
          <mxGeometry relative="1" as="geometry" />
        </mxCell>
        <mxCell id="pflW-3yKm34LbVUq-xgN-643" value="Pick and Turn off PTL one-by-one" style="rounded=0;whiteSpace=wrap;html=1;" vertex="1" parent="pflW-3yKm34LbVUq-xgN-819">
          <mxGeometry x="946" y="556" width="120" height="30" as="geometry" />
        </mxCell>
        <mxCell id="pflW-3yKm34LbVUq-xgN-644" value="Yes" style="text;html=1;align=center;verticalAlign=middle;whiteSpace=wrap;rounded=0;" vertex="1" parent="pflW-3yKm34LbVUq-xgN-819">
          <mxGeometry x="1016" y="435" width="30" height="10" as="geometry" />
        </mxCell>
        <mxCell id="pflW-3yKm34LbVUq-xgN-645" value="Yes" style="text;html=1;align=center;verticalAlign=middle;whiteSpace=wrap;rounded=0;" vertex="1" parent="pflW-3yKm34LbVUq-xgN-819">
          <mxGeometry x="1016" y="679" width="30" height="10" as="geometry" />
        </mxCell>
        <mxCell id="pflW-3yKm34LbVUq-xgN-646" style="edgeStyle=orthogonalEdgeStyle;rounded=0;orthogonalLoop=1;jettySize=auto;html=1;exitX=0.5;exitY=1;exitDx=0;exitDy=0;entryX=0.5;entryY=0;entryDx=0;entryDy=0;" edge="1" parent="pflW-3yKm34LbVUq-xgN-819" source="pflW-3yKm34LbVUq-xgN-657" target="pflW-3yKm34LbVUq-xgN-652">
          <mxGeometry relative="1" as="geometry" />
        </mxCell>
        <mxCell id="pflW-3yKm34LbVUq-xgN-647" style="edgeStyle=orthogonalEdgeStyle;rounded=0;orthogonalLoop=1;jettySize=auto;html=1;exitX=0.5;exitY=1;exitDx=0;exitDy=0;entryX=0.5;entryY=0;entryDx=0;entryDy=0;" edge="1" parent="pflW-3yKm34LbVUq-xgN-819" source="pflW-3yKm34LbVUq-xgN-648" target="pflW-3yKm34LbVUq-xgN-657">
          <mxGeometry relative="1" as="geometry" />
        </mxCell>
        <mxCell id="pflW-3yKm34LbVUq-xgN-648" value="Scan the Cart# to link Next Order" style="rounded=0;whiteSpace=wrap;html=1;" vertex="1" parent="pflW-3yKm34LbVUq-xgN-819">
          <mxGeometry x="949" y="756" width="120" height="30" as="geometry" />
        </mxCell>
        <mxCell id="pflW-3yKm34LbVUq-xgN-649" value="&lt;span style=&quot;color: rgba(0, 0, 0, 0); font-family: monospace; font-size: 0px; text-align: start; text-wrap-mode: nowrap;&quot;&gt;%3CmxGraphModel%3E%3Croot%3E%3CmxCell%20id%3D%220%22%2F%3E%3CmxCell%20id%3D%221%22%20parent%3D%220%22%2F%3E%3CmxCell%20id%3D%222%22%20value%3D%22%22%20style%3D%22ellipse%3BwhiteSpace%3Dwrap%3Bhtml%3D1%3Baspect%3Dfixed%3BfillColor%3D%23f8cecc%3BstrokeColor%3D%23b85450%3B%22%20vertex%3D%221%22%20parent%3D%221%22%3E%3CmxGeometry%20x%3D%221518%22%20y%3D%22730%22%20width%3D%2210%22%20height%3D%2210%22%20as%3D%22geometry%22%2F%3E%3C%2FmxCell%3E%3C%2Froot%3E%3C%2FmxGraphModel%3E&lt;/span&gt;" style="ellipse;whiteSpace=wrap;html=1;aspect=fixed;fillColor=#f8cecc;strokeColor=#b85450;" vertex="1" parent="pflW-3yKm34LbVUq-xgN-819">
          <mxGeometry x="956" y="574" width="10" height="10" as="geometry" />
        </mxCell>
        <mxCell id="pflW-3yKm34LbVUq-xgN-650" style="edgeStyle=orthogonalEdgeStyle;rounded=0;orthogonalLoop=1;jettySize=auto;html=1;exitX=0.5;exitY=1;exitDx=0;exitDy=0;entryX=0.5;entryY=0;entryDx=0;entryDy=0;" edge="1" parent="pflW-3yKm34LbVUq-xgN-819" source="pflW-3yKm34LbVUq-xgN-652" target="pflW-3yKm34LbVUq-xgN-655">
          <mxGeometry relative="1" as="geometry" />
        </mxCell>
        <mxCell id="pflW-3yKm34LbVUq-xgN-704" style="edgeStyle=orthogonalEdgeStyle;rounded=0;orthogonalLoop=1;jettySize=auto;html=1;exitX=0;exitY=0.5;exitDx=0;exitDy=0;entryX=1;entryY=0.5;entryDx=0;entryDy=0;" edge="1" parent="pflW-3yKm34LbVUq-xgN-819" source="pflW-3yKm34LbVUq-xgN-652" target="pflW-3yKm34LbVUq-xgN-703">
          <mxGeometry relative="1" as="geometry" />
        </mxCell>
        <mxCell id="pflW-3yKm34LbVUq-xgN-652" value="More than One Order in Cluster" style="rhombus;whiteSpace=wrap;html=1;" vertex="1" parent="pflW-3yKm34LbVUq-xgN-819">
          <mxGeometry x="969" y="853" width="80" height="80" as="geometry" />
        </mxCell>
        <mxCell id="pflW-3yKm34LbVUq-xgN-653" style="edgeStyle=orthogonalEdgeStyle;rounded=0;orthogonalLoop=1;jettySize=auto;html=1;exitX=0.5;exitY=1;exitDx=0;exitDy=0;entryX=0.5;entryY=0;entryDx=0;entryDy=0;" edge="1" parent="pflW-3yKm34LbVUq-xgN-819" source="pflW-3yKm34LbVUq-xgN-655" target="pflW-3yKm34LbVUq-xgN-659">
          <mxGeometry relative="1" as="geometry" />
        </mxCell>
        <mxCell id="pflW-3yKm34LbVUq-xgN-654" style="edgeStyle=orthogonalEdgeStyle;rounded=0;orthogonalLoop=1;jettySize=auto;html=1;exitX=1;exitY=0.5;exitDx=0;exitDy=0;entryX=0;entryY=0.5;entryDx=0;entryDy=0;" edge="1" parent="pflW-3yKm34LbVUq-xgN-819" source="pflW-3yKm34LbVUq-xgN-655" target="pflW-3yKm34LbVUq-xgN-663">
          <mxGeometry relative="1" as="geometry" />
        </mxCell>
        <mxCell id="pflW-3yKm34LbVUq-xgN-655" value="Common Parts" style="rhombus;whiteSpace=wrap;html=1;" vertex="1" parent="pflW-3yKm34LbVUq-xgN-819">
          <mxGeometry x="969" y="953" width="80" height="80" as="geometry" />
        </mxCell>
        <mxCell id="pflW-3yKm34LbVUq-xgN-656" value="" style="group" vertex="1" connectable="0" parent="pflW-3yKm34LbVUq-xgN-819">
          <mxGeometry x="949" y="806" width="120" height="30" as="geometry" />
        </mxCell>
        <mxCell id="pflW-3yKm34LbVUq-xgN-657" value="One Picker Follow PTL" style="rounded=0;whiteSpace=wrap;html=1;" vertex="1" parent="pflW-3yKm34LbVUq-xgN-656">
          <mxGeometry width="120" height="30" as="geometry" />
        </mxCell>
        <mxCell id="pflW-3yKm34LbVUq-xgN-658" value="" style="ellipse;whiteSpace=wrap;html=1;aspect=fixed;fillColor=#dae8fc;strokeColor=#6c8ebf;" vertex="1" parent="pflW-3yKm34LbVUq-xgN-656">
          <mxGeometry x="72" y="17" width="10" height="10" as="geometry" />
        </mxCell>
        <mxCell id="pflW-3yKm34LbVUq-xgN-739" style="edgeStyle=orthogonalEdgeStyle;rounded=0;orthogonalLoop=1;jettySize=auto;html=1;exitX=0.5;exitY=1;exitDx=0;exitDy=0;entryX=0.5;entryY=0;entryDx=0;entryDy=0;" edge="1" parent="pflW-3yKm34LbVUq-xgN-819" source="pflW-3yKm34LbVUq-xgN-659" target="pflW-3yKm34LbVUq-xgN-738">
          <mxGeometry relative="1" as="geometry" />
        </mxCell>
        <mxCell id="pflW-3yKm34LbVUq-xgN-659" value="Enable PTL" style="rounded=0;whiteSpace=wrap;html=1;" vertex="1" parent="pflW-3yKm34LbVUq-xgN-819">
          <mxGeometry x="949" y="1051" width="120" height="30" as="geometry" />
        </mxCell>
        <mxCell id="pflW-3yKm34LbVUq-xgN-660" value="No" style="text;html=1;align=center;verticalAlign=middle;whiteSpace=wrap;rounded=0;" vertex="1" parent="pflW-3yKm34LbVUq-xgN-819">
          <mxGeometry x="939" y="631" width="30" height="10" as="geometry" />
        </mxCell>
        <mxCell id="pflW-3yKm34LbVUq-xgN-661" value="&lt;span style=&quot;color: rgba(0, 0, 0, 0); font-family: monospace; font-size: 0px; text-align: start; text-wrap-mode: nowrap;&quot;&gt;%3CmxGraphModel%3E%3Croot%3E%3CmxCell%20id%3D%220%22%2F%3E%3CmxCell%20id%3D%221%22%20parent%3D%220%22%2F%3E%3CmxCell%20id%3D%222%22%20value%3D%22%22%20style%3D%22ellipse%3BwhiteSpace%3Dwrap%3Bhtml%3D1%3Baspect%3Dfixed%3BfillColor%3D%23f8cecc%3BstrokeColor%3D%23b85450%3B%22%20vertex%3D%221%22%20parent%3D%221%22%3E%3CmxGeometry%20x%3D%221518%22%20y%3D%22730%22%20width%3D%2210%22%20height%3D%2210%22%20as%3D%22geometry%22%2F%3E%3C%2FmxCell%3E%3C%2Froot%3E%3C%2FmxGraphModel%3E&lt;/span&gt;" style="ellipse;whiteSpace=wrap;html=1;aspect=fixed;fillColor=#f8cecc;strokeColor=#b85450;" vertex="1" parent="pflW-3yKm34LbVUq-xgN-819">
          <mxGeometry x="1039" y="516" width="10" height="10" as="geometry" />
        </mxCell>
        <mxCell id="pflW-3yKm34LbVUq-xgN-662" value="" style="group" vertex="1" connectable="0" parent="pflW-3yKm34LbVUq-xgN-819">
          <mxGeometry x="1098" y="806" width="120" height="30" as="geometry" />
        </mxCell>
        <mxCell id="pflW-3yKm34LbVUq-xgN-663" value="One Picker Follow PTL" style="rounded=0;whiteSpace=wrap;html=1;" vertex="1" parent="pflW-3yKm34LbVUq-xgN-662">
          <mxGeometry width="120" height="30" as="geometry" />
        </mxCell>
        <mxCell id="pflW-3yKm34LbVUq-xgN-664" value="" style="ellipse;whiteSpace=wrap;html=1;aspect=fixed;fillColor=#f8cecc;strokeColor=#b85450;" vertex="1" parent="pflW-3yKm34LbVUq-xgN-662">
          <mxGeometry x="72" y="17" width="10" height="10" as="geometry" />
        </mxCell>
        <mxCell id="pflW-3yKm34LbVUq-xgN-665" style="edgeStyle=orthogonalEdgeStyle;rounded=0;orthogonalLoop=1;jettySize=auto;html=1;exitX=0.5;exitY=1;exitDx=0;exitDy=0;entryX=0.5;entryY=0;entryDx=0;entryDy=0;" edge="1" parent="pflW-3yKm34LbVUq-xgN-819" source="pflW-3yKm34LbVUq-xgN-666" target="pflW-3yKm34LbVUq-xgN-670">
          <mxGeometry relative="1" as="geometry" />
        </mxCell>
        <mxCell id="pflW-3yKm34LbVUq-xgN-666" value="Turn off PTL one by One&amp;nbsp;&amp;nbsp;" style="rounded=0;whiteSpace=wrap;html=1;" vertex="1" parent="pflW-3yKm34LbVUq-xgN-819">
          <mxGeometry x="1098" y="851" width="120" height="30" as="geometry" />
        </mxCell>
        <mxCell id="pflW-3yKm34LbVUq-xgN-667" value="&lt;span style=&quot;color: rgba(0, 0, 0, 0); font-family: monospace; font-size: 0px; text-align: start; text-wrap-mode: nowrap;&quot;&gt;%3CmxGraphModel%3E%3Croot%3E%3CmxCell%20id%3D%220%22%2F%3E%3CmxCell%20id%3D%221%22%20parent%3D%220%22%2F%3E%3CmxCell%20id%3D%222%22%20value%3D%22%22%20style%3D%22ellipse%3BwhiteSpace%3Dwrap%3Bhtml%3D1%3Baspect%3Dfixed%3BfillColor%3D%23f8cecc%3BstrokeColor%3D%23b85450%3B%22%20vertex%3D%221%22%20parent%3D%221%22%3E%3CmxGeometry%20x%3D%221518%22%20y%3D%22730%22%20width%3D%2210%22%20height%3D%2210%22%20as%3D%22geometry%22%2F%3E%3C%2FmxCell%3E%3C%2Froot%3E%3C%2FmxGraphModel%3E&lt;/span&gt;" style="ellipse;whiteSpace=wrap;html=1;aspect=fixed;fillColor=#f8cecc;strokeColor=#b85450;" vertex="1" parent="pflW-3yKm34LbVUq-xgN-819">
          <mxGeometry x="1172" y="868" width="10" height="10" as="geometry" />
        </mxCell>
        <mxCell id="pflW-3yKm34LbVUq-xgN-668" style="edgeStyle=orthogonalEdgeStyle;rounded=0;orthogonalLoop=1;jettySize=auto;html=1;exitX=0.5;exitY=1;exitDx=0;exitDy=0;entryX=0.5;entryY=0;entryDx=0;entryDy=0;" edge="1" parent="pflW-3yKm34LbVUq-xgN-819" source="pflW-3yKm34LbVUq-xgN-670" target="pflW-3yKm34LbVUq-xgN-672">
          <mxGeometry relative="1" as="geometry" />
        </mxCell>
        <mxCell id="pflW-3yKm34LbVUq-xgN-669" style="edgeStyle=orthogonalEdgeStyle;rounded=0;orthogonalLoop=1;jettySize=auto;html=1;exitX=0;exitY=0.5;exitDx=0;exitDy=0;entryX=1;entryY=0;entryDx=0;entryDy=0;" edge="1" parent="pflW-3yKm34LbVUq-xgN-819" source="pflW-3yKm34LbVUq-xgN-670" target="pflW-3yKm34LbVUq-xgN-659">
          <mxGeometry relative="1" as="geometry">
            <Array as="points">
              <mxPoint x="1089" y="916" />
              <mxPoint x="1089" y="1051" />
            </Array>
          </mxGeometry>
        </mxCell>
        <mxCell id="pflW-3yKm34LbVUq-xgN-670" value="Complete the Order in PDA" style="rounded=0;whiteSpace=wrap;html=1;" vertex="1" parent="pflW-3yKm34LbVUq-xgN-819">
          <mxGeometry x="1098" y="901" width="120" height="30" as="geometry" />
        </mxCell>
        <mxCell id="pflW-3yKm34LbVUq-xgN-671" style="edgeStyle=orthogonalEdgeStyle;rounded=0;orthogonalLoop=1;jettySize=auto;html=1;exitX=0.5;exitY=1;exitDx=0;exitDy=0;entryX=0.5;entryY=0;entryDx=0;entryDy=0;" edge="1" parent="pflW-3yKm34LbVUq-xgN-819" source="pflW-3yKm34LbVUq-xgN-672" target="pflW-3yKm34LbVUq-xgN-674">
          <mxGeometry relative="1" as="geometry" />
        </mxCell>
        <mxCell id="pflW-3yKm34LbVUq-xgN-672" value="Check the Picking Status in PDA" style="rounded=0;whiteSpace=wrap;html=1;" vertex="1" parent="pflW-3yKm34LbVUq-xgN-819">
          <mxGeometry x="1098" y="951" width="120" height="30" as="geometry" />
        </mxCell>
        <mxCell id="pflW-3yKm34LbVUq-xgN-673" style="edgeStyle=orthogonalEdgeStyle;rounded=0;orthogonalLoop=1;jettySize=auto;html=1;exitX=0.5;exitY=1;exitDx=0;exitDy=0;entryX=0.5;entryY=0;entryDx=0;entryDy=0;" edge="1" parent="pflW-3yKm34LbVUq-xgN-819" source="pflW-3yKm34LbVUq-xgN-674" target="pflW-3yKm34LbVUq-xgN-676">
          <mxGeometry relative="1" as="geometry" />
        </mxCell>
        <mxCell id="pflW-3yKm34LbVUq-xgN-674" value="Confirm in PDA" style="rounded=0;whiteSpace=wrap;html=1;" vertex="1" parent="pflW-3yKm34LbVUq-xgN-819">
          <mxGeometry x="1098" y="1001" width="120" height="30" as="geometry" />
        </mxCell>
        <mxCell id="pflW-3yKm34LbVUq-xgN-675" style="edgeStyle=orthogonalEdgeStyle;rounded=0;orthogonalLoop=1;jettySize=auto;html=1;exitX=0.5;exitY=1;exitDx=0;exitDy=0;entryX=1;entryY=1;entryDx=0;entryDy=0;" edge="1" parent="pflW-3yKm34LbVUq-xgN-819" source="pflW-3yKm34LbVUq-xgN-676" target="pflW-3yKm34LbVUq-xgN-659">
          <mxGeometry relative="1" as="geometry" />
        </mxCell>
        <mxCell id="pflW-3yKm34LbVUq-xgN-676" value="Unlink the Cart from Cluster" style="rounded=0;whiteSpace=wrap;html=1;" vertex="1" parent="pflW-3yKm34LbVUq-xgN-819">
          <mxGeometry x="1098" y="1051" width="120" height="30" as="geometry" />
        </mxCell>
        <mxCell id="pflW-3yKm34LbVUq-xgN-677" style="edgeStyle=orthogonalEdgeStyle;rounded=0;orthogonalLoop=1;jettySize=auto;html=1;exitX=0.5;exitY=1;exitDx=0;exitDy=0;entryX=0.5;entryY=0;entryDx=0;entryDy=0;" edge="1" parent="pflW-3yKm34LbVUq-xgN-819" source="pflW-3yKm34LbVUq-xgN-663" target="pflW-3yKm34LbVUq-xgN-666">
          <mxGeometry relative="1" as="geometry" />
        </mxCell>
        <mxCell id="pflW-3yKm34LbVUq-xgN-678" value="" style="ellipse;whiteSpace=wrap;html=1;aspect=fixed;fillColor=#dae8fc;strokeColor=#6c8ebf;" vertex="1" parent="pflW-3yKm34LbVUq-xgN-819">
          <mxGeometry x="1046" y="1060" width="10" height="10" as="geometry" />
        </mxCell>
        <mxCell id="pflW-3yKm34LbVUq-xgN-679" value="No" style="text;html=1;align=center;verticalAlign=middle;whiteSpace=wrap;rounded=0;" vertex="1" parent="pflW-3yKm34LbVUq-xgN-819">
          <mxGeometry x="1016" y="933" width="30" height="12" as="geometry" />
        </mxCell>
        <mxCell id="pflW-3yKm34LbVUq-xgN-680" value="No" style="text;html=1;align=center;verticalAlign=middle;whiteSpace=wrap;rounded=0;" vertex="1" parent="pflW-3yKm34LbVUq-xgN-819">
          <mxGeometry x="1009" y="1031" width="30" height="12" as="geometry" />
        </mxCell>
        <mxCell id="pflW-3yKm34LbVUq-xgN-681" value="Yes" style="text;html=1;align=center;verticalAlign=middle;whiteSpace=wrap;rounded=0;" vertex="1" parent="pflW-3yKm34LbVUq-xgN-819">
          <mxGeometry x="1046" y="973" width="30" height="12" as="geometry" />
        </mxCell>
        <mxCell id="pflW-3yKm34LbVUq-xgN-682" value="First Picker will continue picking PTL [Red]" style="text;html=1;align=center;verticalAlign=middle;whiteSpace=wrap;rounded=0;rotation=90;" vertex="1" parent="pflW-3yKm34LbVUq-xgN-819">
          <mxGeometry x="1096.25" y="648.25" width="161.5" height="12" as="geometry" />
        </mxCell>
        <mxCell id="pflW-3yKm34LbVUq-xgN-683" value="Yes" style="text;html=1;align=center;verticalAlign=middle;whiteSpace=wrap;rounded=0;" vertex="1" parent="pflW-3yKm34LbVUq-xgN-819">
          <mxGeometry x="939" y="878" width="30" height="12" as="geometry" />
        </mxCell>
        <mxCell id="pflW-3yKm34LbVUq-xgN-684" value="First Picker will join picking PTL [Blue]" style="text;html=1;align=center;verticalAlign=middle;whiteSpace=wrap;rounded=0;rotation=0;" vertex="1" parent="pflW-3yKm34LbVUq-xgN-819">
          <mxGeometry x="1027.75" y="1106" width="230" height="12" as="geometry" />
        </mxCell>
        <mxCell id="pflW-3yKm34LbVUq-xgN-685" style="edgeStyle=orthogonalEdgeStyle;rounded=0;orthogonalLoop=1;jettySize=auto;html=1;exitX=0.5;exitY=1;exitDx=0;exitDy=0;entryX=0.5;entryY=0;entryDx=0;entryDy=0;" edge="1" parent="pflW-3yKm34LbVUq-xgN-819" source="pflW-3yKm34LbVUq-xgN-686" target="pflW-3yKm34LbVUq-xgN-648">
          <mxGeometry relative="1" as="geometry" />
        </mxCell>
        <mxCell id="pflW-3yKm34LbVUq-xgN-686" value="Update the PDA" style="rounded=0;whiteSpace=wrap;html=1;" vertex="1" parent="pflW-3yKm34LbVUq-xgN-819">
          <mxGeometry x="949" y="699" width="120" height="30" as="geometry" />
        </mxCell>
        <mxCell id="pflW-3yKm34LbVUq-xgN-710" style="edgeStyle=orthogonalEdgeStyle;rounded=0;orthogonalLoop=1;jettySize=auto;html=1;exitX=0.5;exitY=1;exitDx=0;exitDy=0;" edge="1" parent="pflW-3yKm34LbVUq-xgN-819" source="pflW-3yKm34LbVUq-xgN-703">
          <mxGeometry relative="1" as="geometry">
            <mxPoint x="872.9999999999995" y="953" as="targetPoint" />
          </mxGeometry>
        </mxCell>
        <mxCell id="pflW-3yKm34LbVUq-xgN-703" value="More than Two Order in Cluster" style="rhombus;whiteSpace=wrap;html=1;" vertex="1" parent="pflW-3yKm34LbVUq-xgN-819">
          <mxGeometry x="833" y="853" width="80" height="80" as="geometry" />
        </mxCell>
        <mxCell id="pflW-3yKm34LbVUq-xgN-715" style="edgeStyle=orthogonalEdgeStyle;rounded=0;orthogonalLoop=1;jettySize=auto;html=1;exitX=0.5;exitY=1;exitDx=0;exitDy=0;entryX=0.5;entryY=0;entryDx=0;entryDy=0;" edge="1" parent="pflW-3yKm34LbVUq-xgN-819" source="pflW-3yKm34LbVUq-xgN-712" target="pflW-3yKm34LbVUq-xgN-714">
          <mxGeometry relative="1" as="geometry" />
        </mxCell>
        <mxCell id="pflW-3yKm34LbVUq-xgN-721" style="edgeStyle=orthogonalEdgeStyle;rounded=0;orthogonalLoop=1;jettySize=auto;html=1;exitX=0;exitY=0.5;exitDx=0;exitDy=0;entryX=0.5;entryY=1;entryDx=0;entryDy=0;" edge="1" parent="pflW-3yKm34LbVUq-xgN-819" source="pflW-3yKm34LbVUq-xgN-712" target="pflW-3yKm34LbVUq-xgN-720">
          <mxGeometry relative="1" as="geometry" />
        </mxCell>
        <mxCell id="pflW-3yKm34LbVUq-xgN-712" value="If Both &lt;br&gt;Pickers Completed" style="rhombus;whiteSpace=wrap;html=1;" vertex="1" parent="pflW-3yKm34LbVUq-xgN-819">
          <mxGeometry x="834" y="951" width="80" height="80" as="geometry" />
        </mxCell>
        <mxCell id="pflW-3yKm34LbVUq-xgN-716" style="edgeStyle=orthogonalEdgeStyle;rounded=0;orthogonalLoop=1;jettySize=auto;html=1;exitX=0.5;exitY=1;exitDx=0;exitDy=0;entryX=0.5;entryY=0;entryDx=0;entryDy=0;" edge="1" parent="pflW-3yKm34LbVUq-xgN-819" source="pflW-3yKm34LbVUq-xgN-714">
          <mxGeometry relative="1" as="geometry">
            <mxPoint x="873" y="1100" as="targetPoint" />
          </mxGeometry>
        </mxCell>
        <mxCell id="pflW-3yKm34LbVUq-xgN-714" value="Order in Pipeline" style="rounded=0;whiteSpace=wrap;html=1;" vertex="1" parent="pflW-3yKm34LbVUq-xgN-819">
          <mxGeometry x="814" y="1050" width="120" height="30" as="geometry" />
        </mxCell>
        <mxCell id="pflW-3yKm34LbVUq-xgN-719" value="Yes" style="text;html=1;align=center;verticalAlign=middle;whiteSpace=wrap;rounded=0;" vertex="1" parent="pflW-3yKm34LbVUq-xgN-819">
          <mxGeometry x="883" y="1027" width="30" height="12" as="geometry" />
        </mxCell>
        <mxCell id="pflW-3yKm34LbVUq-xgN-720" value="Queue the Order" style="rounded=0;whiteSpace=wrap;html=1;" vertex="1" parent="pflW-3yKm34LbVUq-xgN-819">
          <mxGeometry x="713" y="920" width="120" height="30" as="geometry" />
        </mxCell>
        <mxCell id="pflW-3yKm34LbVUq-xgN-722" value="No" style="text;html=1;align=center;verticalAlign=middle;whiteSpace=wrap;rounded=0;" vertex="1" parent="pflW-3yKm34LbVUq-xgN-819">
          <mxGeometry x="803" y="973" width="30" height="12" as="geometry" />
        </mxCell>
        <mxCell id="pflW-3yKm34LbVUq-xgN-729" style="edgeStyle=orthogonalEdgeStyle;rounded=0;orthogonalLoop=1;jettySize=auto;html=1;exitX=0.5;exitY=1;exitDx=0;exitDy=0;entryX=0.5;entryY=0;entryDx=0;entryDy=0;" edge="1" parent="pflW-3yKm34LbVUq-xgN-819" source="pflW-3yKm34LbVUq-xgN-723" target="pflW-3yKm34LbVUq-xgN-725">
          <mxGeometry relative="1" as="geometry" />
        </mxCell>
        <mxCell id="pflW-3yKm34LbVUq-xgN-723" value="Scan Cart to confirm Mapping to SPS Order" style="rounded=0;whiteSpace=wrap;html=1;" vertex="1" parent="pflW-3yKm34LbVUq-xgN-819">
          <mxGeometry x="813" y="1104" width="120" height="40" as="geometry" />
        </mxCell>
        <mxCell id="pflW-3yKm34LbVUq-xgN-724" value="" style="group" vertex="1" connectable="0" parent="pflW-3yKm34LbVUq-xgN-819">
          <mxGeometry x="814" y="1170" width="120" height="30" as="geometry" />
        </mxCell>
        <mxCell id="pflW-3yKm34LbVUq-xgN-725" value="Turn ON PTL" style="rounded=0;whiteSpace=wrap;html=1;" vertex="1" parent="pflW-3yKm34LbVUq-xgN-724">
          <mxGeometry width="120" height="30" as="geometry" />
        </mxCell>
        <mxCell id="pflW-3yKm34LbVUq-xgN-734" style="edgeStyle=orthogonalEdgeStyle;rounded=0;orthogonalLoop=1;jettySize=auto;html=1;exitX=0.5;exitY=1;exitDx=0;exitDy=0;entryX=0.5;entryY=0;entryDx=0;entryDy=0;" edge="1" parent="pflW-3yKm34LbVUq-xgN-819" source="pflW-3yKm34LbVUq-xgN-726" target="pflW-3yKm34LbVUq-xgN-730">
          <mxGeometry relative="1" as="geometry" />
        </mxCell>
        <mxCell id="pflW-3yKm34LbVUq-xgN-726" value="Pick and Turn off PTL one-by One" style="rounded=0;whiteSpace=wrap;html=1;" vertex="1" parent="pflW-3yKm34LbVUq-xgN-819">
          <mxGeometry x="815" y="1220" width="120" height="30" as="geometry" />
        </mxCell>
        <mxCell id="pflW-3yKm34LbVUq-xgN-727" value="" style="ellipse;whiteSpace=wrap;html=1;aspect=fixed;fillColor=#fff2cc;strokeColor=#d6b656;" vertex="1" parent="pflW-3yKm34LbVUq-xgN-819">
          <mxGeometry x="914" y="1235" width="10" height="10" as="geometry" />
        </mxCell>
        <mxCell id="pflW-3yKm34LbVUq-xgN-728" style="edgeStyle=orthogonalEdgeStyle;rounded=0;orthogonalLoop=1;jettySize=auto;html=1;exitX=0.5;exitY=1;exitDx=0;exitDy=0;" edge="1" parent="pflW-3yKm34LbVUq-xgN-819" source="pflW-3yKm34LbVUq-xgN-725" target="pflW-3yKm34LbVUq-xgN-726">
          <mxGeometry relative="1" as="geometry" />
        </mxCell>
        <mxCell id="pflW-3yKm34LbVUq-xgN-735" style="edgeStyle=orthogonalEdgeStyle;rounded=0;orthogonalLoop=1;jettySize=auto;html=1;exitX=0.5;exitY=1;exitDx=0;exitDy=0;entryX=0.5;entryY=0;entryDx=0;entryDy=0;" edge="1" parent="pflW-3yKm34LbVUq-xgN-819" source="pflW-3yKm34LbVUq-xgN-730" target="pflW-3yKm34LbVUq-xgN-731">
          <mxGeometry relative="1" as="geometry" />
        </mxCell>
        <mxCell id="pflW-3yKm34LbVUq-xgN-730" value="Complete the Order in PDA" style="rounded=0;whiteSpace=wrap;html=1;" vertex="1" parent="pflW-3yKm34LbVUq-xgN-819">
          <mxGeometry x="815" y="1280" width="120" height="30" as="geometry" />
        </mxCell>
        <mxCell id="pflW-3yKm34LbVUq-xgN-736" style="edgeStyle=orthogonalEdgeStyle;rounded=0;orthogonalLoop=1;jettySize=auto;html=1;exitX=0.5;exitY=1;exitDx=0;exitDy=0;entryX=0.5;entryY=0;entryDx=0;entryDy=0;" edge="1" parent="pflW-3yKm34LbVUq-xgN-819" source="pflW-3yKm34LbVUq-xgN-731" target="pflW-3yKm34LbVUq-xgN-732">
          <mxGeometry relative="1" as="geometry" />
        </mxCell>
        <mxCell id="pflW-3yKm34LbVUq-xgN-731" value="Check the Picking Status in PDA" style="rounded=0;whiteSpace=wrap;html=1;" vertex="1" parent="pflW-3yKm34LbVUq-xgN-819">
          <mxGeometry x="815" y="1330" width="120" height="30" as="geometry" />
        </mxCell>
        <mxCell id="pflW-3yKm34LbVUq-xgN-737" style="edgeStyle=orthogonalEdgeStyle;rounded=0;orthogonalLoop=1;jettySize=auto;html=1;exitX=0.5;exitY=1;exitDx=0;exitDy=0;entryX=0.5;entryY=0;entryDx=0;entryDy=0;" edge="1" parent="pflW-3yKm34LbVUq-xgN-819" source="pflW-3yKm34LbVUq-xgN-732" target="pflW-3yKm34LbVUq-xgN-733">
          <mxGeometry relative="1" as="geometry" />
        </mxCell>
        <mxCell id="pflW-3yKm34LbVUq-xgN-732" value="Confirm in PDA" style="rounded=0;whiteSpace=wrap;html=1;" vertex="1" parent="pflW-3yKm34LbVUq-xgN-819">
          <mxGeometry x="815" y="1380" width="120" height="30" as="geometry" />
        </mxCell>
        <mxCell id="pflW-3yKm34LbVUq-xgN-733" value="Unlink the Cart from Cluster" style="rounded=0;whiteSpace=wrap;html=1;" vertex="1" parent="pflW-3yKm34LbVUq-xgN-819">
          <mxGeometry x="815" y="1430" width="120" height="30" as="geometry" />
        </mxCell>
        <mxCell id="pflW-3yKm34LbVUq-xgN-740" style="edgeStyle=orthogonalEdgeStyle;rounded=0;orthogonalLoop=1;jettySize=auto;html=1;exitX=0;exitY=0.5;exitDx=0;exitDy=0;entryX=0;entryY=0.5;entryDx=0;entryDy=0;" edge="1" parent="pflW-3yKm34LbVUq-xgN-819" source="pflW-3yKm34LbVUq-xgN-738" target="pflW-3yKm34LbVUq-xgN-659">
          <mxGeometry relative="1" as="geometry">
            <Array as="points">
              <mxPoint x="939" y="1144" />
              <mxPoint x="939" y="1066" />
            </Array>
          </mxGeometry>
        </mxCell>
        <mxCell id="pflW-3yKm34LbVUq-xgN-748" style="edgeStyle=orthogonalEdgeStyle;rounded=0;orthogonalLoop=1;jettySize=auto;html=1;exitX=0.5;exitY=1;exitDx=0;exitDy=0;entryX=0.5;entryY=0;entryDx=0;entryDy=0;" edge="1" parent="pflW-3yKm34LbVUq-xgN-819" source="pflW-3yKm34LbVUq-xgN-738" target="pflW-3yKm34LbVUq-xgN-746">
          <mxGeometry relative="1" as="geometry" />
        </mxCell>
        <mxCell id="pflW-3yKm34LbVUq-xgN-749" style="edgeStyle=orthogonalEdgeStyle;rounded=0;orthogonalLoop=1;jettySize=auto;html=1;exitX=1;exitY=0.5;exitDx=0;exitDy=0;entryX=0;entryY=0.5;entryDx=0;entryDy=0;" edge="1" parent="pflW-3yKm34LbVUq-xgN-819" source="pflW-3yKm34LbVUq-xgN-738" target="pflW-3yKm34LbVUq-xgN-448">
          <mxGeometry relative="1" as="geometry">
            <Array as="points">
              <mxPoint x="1249" y="1144" />
              <mxPoint x="1249" y="15" />
            </Array>
          </mxGeometry>
        </mxCell>
        <mxCell id="pflW-3yKm34LbVUq-xgN-738" value="Parts Shortage" style="rhombus;whiteSpace=wrap;html=1;" vertex="1" parent="pflW-3yKm34LbVUq-xgN-819">
          <mxGeometry x="969" y="1104" width="80" height="80" as="geometry" />
        </mxCell>
        <mxCell id="pflW-3yKm34LbVUq-xgN-741" value="No" style="text;html=1;align=center;verticalAlign=middle;whiteSpace=wrap;rounded=0;" vertex="1" parent="pflW-3yKm34LbVUq-xgN-819">
          <mxGeometry x="943" y="1130" width="30" height="12" as="geometry" />
        </mxCell>
        <mxCell id="pflW-3yKm34LbVUq-xgN-745" style="edgeStyle=orthogonalEdgeStyle;rounded=0;orthogonalLoop=1;jettySize=auto;html=1;exitX=0.5;exitY=1;exitDx=0;exitDy=0;entryX=0.5;entryY=0;entryDx=0;entryDy=0;" edge="1" parent="pflW-3yKm34LbVUq-xgN-819" source="pflW-3yKm34LbVUq-xgN-746" target="pflW-3yKm34LbVUq-xgN-747">
          <mxGeometry relative="1" as="geometry" />
        </mxCell>
        <mxCell id="pflW-3yKm34LbVUq-xgN-746" value="Turn Off the PTL&amp;nbsp;" style="rounded=0;whiteSpace=wrap;html=1;" vertex="1" parent="pflW-3yKm34LbVUq-xgN-819">
          <mxGeometry x="949" y="1200" width="120" height="30" as="geometry" />
        </mxCell>
        <mxCell id="pflW-3yKm34LbVUq-xgN-747" value="Move the Cart to AMR Pickup Point" style="rounded=0;whiteSpace=wrap;html=1;" vertex="1" parent="pflW-3yKm34LbVUq-xgN-819">
          <mxGeometry x="949" y="1250" width="120" height="30" as="geometry" />
        </mxCell>
        <mxCell id="pflW-3yKm34LbVUq-xgN-752" style="edgeStyle=orthogonalEdgeStyle;rounded=0;orthogonalLoop=1;jettySize=auto;html=1;exitX=0.5;exitY=1;exitDx=0;exitDy=0;entryX=0.5;entryY=0;entryDx=0;entryDy=0;" edge="1" parent="pflW-3yKm34LbVUq-xgN-819" source="pflW-3yKm34LbVUq-xgN-753" target="pflW-3yKm34LbVUq-xgN-757">
          <mxGeometry relative="1" as="geometry" />
        </mxCell>
        <mxCell id="pflW-3yKm34LbVUq-xgN-753" value="Follow PTL" style="rounded=0;whiteSpace=wrap;html=1;" vertex="1" parent="pflW-3yKm34LbVUq-xgN-819">
          <mxGeometry x="400.9999999999998" y="1137" width="120" height="30" as="geometry" />
        </mxCell>
        <mxCell id="pflW-3yKm34LbVUq-xgN-754" value="" style="ellipse;whiteSpace=wrap;html=1;aspect=fixed;fillColor=#dae8fc;strokeColor=#6c8ebf;" vertex="1" parent="pflW-3yKm34LbVUq-xgN-819">
          <mxGeometry x="491.9999999999998" y="1147" width="10" height="10" as="geometry" />
        </mxCell>
        <mxCell id="pflW-3yKm34LbVUq-xgN-755" style="edgeStyle=orthogonalEdgeStyle;rounded=0;orthogonalLoop=1;jettySize=auto;html=1;exitX=0.5;exitY=1;exitDx=0;exitDy=0;entryX=0.5;entryY=0;entryDx=0;entryDy=0;" edge="1" parent="pflW-3yKm34LbVUq-xgN-819" source="pflW-3yKm34LbVUq-xgN-757" target="pflW-3yKm34LbVUq-xgN-763">
          <mxGeometry relative="1" as="geometry" />
        </mxCell>
        <mxCell id="pflW-3yKm34LbVUq-xgN-756" style="edgeStyle=orthogonalEdgeStyle;rounded=0;orthogonalLoop=1;jettySize=auto;html=1;exitX=0;exitY=0.5;exitDx=0;exitDy=0;entryX=0;entryY=0.75;entryDx=0;entryDy=0;" edge="1" parent="pflW-3yKm34LbVUq-xgN-819" source="pflW-3yKm34LbVUq-xgN-757" target="pflW-3yKm34LbVUq-xgN-753">
          <mxGeometry relative="1" as="geometry" />
        </mxCell>
        <mxCell id="pflW-3yKm34LbVUq-xgN-757" value="PTL &lt;br&gt;Duplicate &lt;br&gt;Entry" style="rhombus;whiteSpace=wrap;html=1;" vertex="1" parent="pflW-3yKm34LbVUq-xgN-819">
          <mxGeometry x="417.4999999999998" y="1183" width="87" height="80" as="geometry" />
        </mxCell>
        <mxCell id="pflW-3yKm34LbVUq-xgN-758" style="edgeStyle=orthogonalEdgeStyle;rounded=0;orthogonalLoop=1;jettySize=auto;html=1;exitX=0.5;exitY=1;exitDx=0;exitDy=0;entryX=0.5;entryY=0;entryDx=0;entryDy=0;" edge="1" parent="pflW-3yKm34LbVUq-xgN-819" source="pflW-3yKm34LbVUq-xgN-760" target="pflW-3yKm34LbVUq-xgN-781">
          <mxGeometry relative="1" as="geometry">
            <mxPoint x="458.9999999999998" y="1633" as="targetPoint" />
          </mxGeometry>
        </mxCell>
        <mxCell id="pflW-3yKm34LbVUq-xgN-759" style="edgeStyle=orthogonalEdgeStyle;rounded=0;orthogonalLoop=1;jettySize=auto;html=1;exitX=0;exitY=0.5;exitDx=0;exitDy=0;entryX=0.5;entryY=1;entryDx=0;entryDy=0;" edge="1" parent="pflW-3yKm34LbVUq-xgN-819" source="pflW-3yKm34LbVUq-xgN-760" target="pflW-3yKm34LbVUq-xgN-774">
          <mxGeometry relative="1" as="geometry" />
        </mxCell>
        <mxCell id="pflW-3yKm34LbVUq-xgN-760" value="Picked &lt;br&gt;Parts Matches&lt;br&gt;Order&amp;nbsp;" style="rhombus;whiteSpace=wrap;html=1;" vertex="1" parent="pflW-3yKm34LbVUq-xgN-819">
          <mxGeometry x="414.9999999999998" y="1523" width="87" height="80" as="geometry" />
        </mxCell>
        <mxCell id="pflW-3yKm34LbVUq-xgN-761" style="edgeStyle=orthogonalEdgeStyle;rounded=0;orthogonalLoop=1;jettySize=auto;html=1;exitX=0.5;exitY=1;exitDx=0;exitDy=0;entryX=0.5;entryY=0;entryDx=0;entryDy=0;" edge="1" parent="pflW-3yKm34LbVUq-xgN-819" source="pflW-3yKm34LbVUq-xgN-763" target="pflW-3yKm34LbVUq-xgN-766">
          <mxGeometry relative="1" as="geometry" />
        </mxCell>
        <mxCell id="pflW-3yKm34LbVUq-xgN-762" style="edgeStyle=orthogonalEdgeStyle;rounded=0;orthogonalLoop=1;jettySize=auto;html=1;exitX=1;exitY=0.5;exitDx=0;exitDy=0;entryX=1;entryY=0.5;entryDx=0;entryDy=0;" edge="1" parent="pflW-3yKm34LbVUq-xgN-819" source="pflW-3yKm34LbVUq-xgN-763" target="pflW-3yKm34LbVUq-xgN-753">
          <mxGeometry relative="1" as="geometry" />
        </mxCell>
        <mxCell id="pflW-3yKm34LbVUq-xgN-763" value="Duration &lt;br&gt;between two Picks &lt;br&gt;&amp;lt;2 Sec" style="rhombus;whiteSpace=wrap;html=1;" vertex="1" parent="pflW-3yKm34LbVUq-xgN-819">
          <mxGeometry x="409.9999999999998" y="1283" width="100" height="110" as="geometry" />
        </mxCell>
        <mxCell id="pflW-3yKm34LbVUq-xgN-764" style="edgeStyle=orthogonalEdgeStyle;rounded=0;orthogonalLoop=1;jettySize=auto;html=1;exitX=0.5;exitY=1;exitDx=0;exitDy=0;entryX=0.5;entryY=0;entryDx=0;entryDy=0;" edge="1" parent="pflW-3yKm34LbVUq-xgN-819" source="pflW-3yKm34LbVUq-xgN-766" target="pflW-3yKm34LbVUq-xgN-760">
          <mxGeometry relative="1" as="geometry" />
        </mxCell>
        <mxCell id="pflW-3yKm34LbVUq-xgN-765" style="edgeStyle=orthogonalEdgeStyle;rounded=0;orthogonalLoop=1;jettySize=auto;html=1;exitX=0;exitY=0.5;exitDx=0;exitDy=0;entryX=1;entryY=0.5;entryDx=0;entryDy=0;" edge="1" parent="pflW-3yKm34LbVUq-xgN-819" source="pflW-3yKm34LbVUq-xgN-766" target="pflW-3yKm34LbVUq-xgN-774">
          <mxGeometry relative="1" as="geometry" />
        </mxCell>
        <mxCell id="pflW-3yKm34LbVUq-xgN-766" value="Motion &lt;br&gt;Sensor Detection" style="rhombus;whiteSpace=wrap;html=1;" vertex="1" parent="pflW-3yKm34LbVUq-xgN-819">
          <mxGeometry x="414.9999999999998" y="1413" width="87" height="90" as="geometry" />
        </mxCell>
        <mxCell id="pflW-3yKm34LbVUq-xgN-767" value="Yes" style="text;html=1;align=center;verticalAlign=middle;whiteSpace=wrap;rounded=0;" vertex="1" parent="pflW-3yKm34LbVUq-xgN-819">
          <mxGeometry x="466.9999999999998" y="1263" width="30" height="10" as="geometry" />
        </mxCell>
        <mxCell id="pflW-3yKm34LbVUq-xgN-768" value="Yes" style="text;html=1;align=center;verticalAlign=middle;whiteSpace=wrap;rounded=0;" vertex="1" parent="pflW-3yKm34LbVUq-xgN-819">
          <mxGeometry x="461.9999999999998" y="1393" width="30" height="10" as="geometry" />
        </mxCell>
        <mxCell id="pflW-3yKm34LbVUq-xgN-769" value="Yes" style="text;html=1;align=center;verticalAlign=middle;whiteSpace=wrap;rounded=0;" vertex="1" parent="pflW-3yKm34LbVUq-xgN-819">
          <mxGeometry x="461.9999999999998" y="1503" width="30" height="20" as="geometry" />
        </mxCell>
        <mxCell id="pflW-3yKm34LbVUq-xgN-770" value="Yes" style="text;html=1;align=center;verticalAlign=middle;whiteSpace=wrap;rounded=0;" vertex="1" parent="pflW-3yKm34LbVUq-xgN-819">
          <mxGeometry x="461.9999999999998" y="1603" width="30" height="20" as="geometry" />
        </mxCell>
        <mxCell id="pflW-3yKm34LbVUq-xgN-771" value="No" style="text;html=1;align=center;verticalAlign=middle;whiteSpace=wrap;rounded=0;" vertex="1" parent="pflW-3yKm34LbVUq-xgN-819">
          <mxGeometry x="392.9999999999998" y="1213" width="30" height="10" as="geometry" />
        </mxCell>
        <mxCell id="pflW-3yKm34LbVUq-xgN-772" value="No" style="text;html=1;align=center;verticalAlign=middle;whiteSpace=wrap;rounded=0;" vertex="1" parent="pflW-3yKm34LbVUq-xgN-819">
          <mxGeometry x="501.9999999999998" y="1313" width="30" height="10" as="geometry" />
        </mxCell>
        <mxCell id="pflW-3yKm34LbVUq-xgN-773" style="edgeStyle=orthogonalEdgeStyle;rounded=0;orthogonalLoop=1;jettySize=auto;html=1;exitX=0;exitY=0.5;exitDx=0;exitDy=0;entryX=1;entryY=0.25;entryDx=0;entryDy=0;" edge="1" parent="pflW-3yKm34LbVUq-xgN-819" source="pflW-3yKm34LbVUq-xgN-774" target="pflW-3yKm34LbVUq-xgN-778">
          <mxGeometry relative="1" as="geometry" />
        </mxCell>
        <mxCell id="pflW-3yKm34LbVUq-xgN-774" value="Trigger Error Alert&lt;br&gt;Keep the PTL &#39;&lt;b&gt;ON&lt;/b&gt;&#39;" style="rounded=0;whiteSpace=wrap;html=1;" vertex="1" parent="pflW-3yKm34LbVUq-xgN-819">
          <mxGeometry x="272.9999999999998" y="1443" width="120" height="30" as="geometry" />
        </mxCell>
        <mxCell id="pflW-3yKm34LbVUq-xgN-775" value="No" style="text;html=1;align=center;verticalAlign=middle;whiteSpace=wrap;rounded=0;" vertex="1" parent="pflW-3yKm34LbVUq-xgN-819">
          <mxGeometry x="392.9999999999998" y="1433" width="30" height="20" as="geometry" />
        </mxCell>
        <mxCell id="pflW-3yKm34LbVUq-xgN-776" value="No" style="text;html=1;align=center;verticalAlign=middle;whiteSpace=wrap;rounded=0;" vertex="1" parent="pflW-3yKm34LbVUq-xgN-819">
          <mxGeometry x="387.9999999999998" y="1543" width="30" height="20" as="geometry" />
        </mxCell>
        <mxCell id="pflW-3yKm34LbVUq-xgN-777" style="edgeStyle=orthogonalEdgeStyle;rounded=0;orthogonalLoop=1;jettySize=auto;html=1;exitX=0.5;exitY=0;exitDx=0;exitDy=0;entryX=0.5;entryY=1;entryDx=0;entryDy=0;" edge="1" parent="pflW-3yKm34LbVUq-xgN-819" source="pflW-3yKm34LbVUq-xgN-778" target="pflW-3yKm34LbVUq-xgN-779">
          <mxGeometry relative="1" as="geometry" />
        </mxCell>
        <mxCell id="pflW-3yKm34LbVUq-xgN-778" value="Capture the Log in MES" style="rounded=0;whiteSpace=wrap;html=1;" vertex="1" parent="pflW-3yKm34LbVUq-xgN-819">
          <mxGeometry x="108.99999999999977" y="1443" width="140" height="30" as="geometry" />
        </mxCell>
        <mxCell id="pflW-3yKm34LbVUq-xgN-779" value="Notify Team Leader" style="rounded=0;whiteSpace=wrap;html=1;" vertex="1" parent="pflW-3yKm34LbVUq-xgN-819">
          <mxGeometry x="108.99999999999977" y="1393" width="140" height="30" as="geometry" />
        </mxCell>
        <mxCell id="pflW-3yKm34LbVUq-xgN-780" style="edgeStyle=orthogonalEdgeStyle;rounded=0;orthogonalLoop=1;jettySize=auto;html=1;exitX=0.5;exitY=1;exitDx=0;exitDy=0;entryX=0.5;entryY=0;entryDx=0;entryDy=0;" edge="1" parent="pflW-3yKm34LbVUq-xgN-819" source="pflW-3yKm34LbVUq-xgN-781" target="pflW-3yKm34LbVUq-xgN-783">
          <mxGeometry relative="1" as="geometry" />
        </mxCell>
        <mxCell id="pflW-3yKm34LbVUq-xgN-787" style="edgeStyle=orthogonalEdgeStyle;rounded=0;orthogonalLoop=1;jettySize=auto;html=1;entryX=0;entryY=0.5;entryDx=0;entryDy=0;" edge="1" parent="pflW-3yKm34LbVUq-xgN-819" target="pflW-3yKm34LbVUq-xgN-448">
          <mxGeometry relative="1" as="geometry">
            <mxPoint x="459" y="1710" as="sourcePoint" />
            <Array as="points">
              <mxPoint x="1249" y="1710" />
              <mxPoint x="1249" y="15" />
            </Array>
          </mxGeometry>
        </mxCell>
        <mxCell id="pflW-3yKm34LbVUq-xgN-781" value="Parts Shortage" style="rhombus;whiteSpace=wrap;html=1;" vertex="1" parent="pflW-3yKm34LbVUq-xgN-819">
          <mxGeometry x="414.9999999999998" y="1628" width="87" height="80" as="geometry" />
        </mxCell>
        <mxCell id="pflW-3yKm34LbVUq-xgN-782" style="edgeStyle=orthogonalEdgeStyle;rounded=0;orthogonalLoop=1;jettySize=auto;html=1;exitX=0.5;exitY=1;exitDx=0;exitDy=0;entryX=0.5;entryY=0;entryDx=0;entryDy=0;" edge="1" parent="pflW-3yKm34LbVUq-xgN-819" source="pflW-3yKm34LbVUq-xgN-783" target="pflW-3yKm34LbVUq-xgN-784">
          <mxGeometry relative="1" as="geometry" />
        </mxCell>
        <mxCell id="pflW-3yKm34LbVUq-xgN-783" value="Turn Off the PTL&amp;nbsp;" style="rounded=0;whiteSpace=wrap;html=1;" vertex="1" parent="pflW-3yKm34LbVUq-xgN-819">
          <mxGeometry x="400.9999999999998" y="1728" width="120" height="30" as="geometry" />
        </mxCell>
        <mxCell id="pflW-3yKm34LbVUq-xgN-784" value="Move the Cart to AMR Pickup Point" style="rounded=0;whiteSpace=wrap;html=1;" vertex="1" parent="pflW-3yKm34LbVUq-xgN-819">
          <mxGeometry x="400.9999999999998" y="1778" width="120" height="30" as="geometry" />
        </mxCell>
        <mxCell id="pflW-3yKm34LbVUq-xgN-788" value="Yes" style="text;html=1;align=center;verticalAlign=middle;whiteSpace=wrap;rounded=0;" vertex="1" parent="pflW-3yKm34LbVUq-xgN-819">
          <mxGeometry x="466.9999999999998" y="1700" width="30" height="20" as="geometry" />
        </mxCell>
        <mxCell id="pflW-3yKm34LbVUq-xgN-790" value="" style="group" vertex="1" connectable="0" parent="pflW-3yKm34LbVUq-xgN-819">
          <mxGeometry x="1279" y="148.75" width="202.1199999999999" height="458" as="geometry" />
        </mxCell>
        <mxCell id="pflW-3yKm34LbVUq-xgN-791" style="edgeStyle=orthogonalEdgeStyle;rounded=0;orthogonalLoop=1;jettySize=auto;html=1;exitX=0.5;exitY=1;exitDx=0;exitDy=0;entryX=0.5;entryY=0;entryDx=0;entryDy=0;" edge="1" parent="pflW-3yKm34LbVUq-xgN-790" source="pflW-3yKm34LbVUq-xgN-793" target="pflW-3yKm34LbVUq-xgN-795">
          <mxGeometry relative="1" as="geometry" />
        </mxCell>
        <mxCell id="pflW-3yKm34LbVUq-xgN-792" style="edgeStyle=orthogonalEdgeStyle;rounded=0;orthogonalLoop=1;jettySize=auto;html=1;exitX=1;exitY=0.5;exitDx=0;exitDy=0;entryX=0;entryY=0.5;entryDx=0;entryDy=0;" edge="1" parent="pflW-3yKm34LbVUq-xgN-790" source="pflW-3yKm34LbVUq-xgN-793">
          <mxGeometry relative="1" as="geometry">
            <mxPoint x="120.36999999999989" y="24" as="targetPoint" />
          </mxGeometry>
        </mxCell>
        <mxCell id="pflW-3yKm34LbVUq-xgN-793" value="Available" style="rhombus;whiteSpace=wrap;html=1;" vertex="1" parent="pflW-3yKm34LbVUq-xgN-790">
          <mxGeometry x="15.559999999999945" y="-10" width="80" height="70" as="geometry" />
        </mxCell>
        <mxCell id="pflW-3yKm34LbVUq-xgN-794" style="edgeStyle=orthogonalEdgeStyle;rounded=0;orthogonalLoop=1;jettySize=auto;html=1;exitX=0.5;exitY=1;exitDx=0;exitDy=0;entryX=0.5;entryY=0;entryDx=0;entryDy=0;" edge="1" parent="pflW-3yKm34LbVUq-xgN-790" source="pflW-3yKm34LbVUq-xgN-795" target="pflW-3yKm34LbVUq-xgN-797">
          <mxGeometry relative="1" as="geometry" />
        </mxCell>
        <mxCell id="pflW-3yKm34LbVUq-xgN-795" value="Assign Task" style="rounded=1;whiteSpace=wrap;html=1;flipH=1;" vertex="1" parent="pflW-3yKm34LbVUq-xgN-790">
          <mxGeometry x="25.559999999999945" y="90" width="60" height="30" as="geometry" />
        </mxCell>
        <mxCell id="pflW-3yKm34LbVUq-xgN-796" style="edgeStyle=orthogonalEdgeStyle;rounded=0;orthogonalLoop=1;jettySize=auto;html=1;exitX=0.5;exitY=1;exitDx=0;exitDy=0;entryX=0.5;entryY=0;entryDx=0;entryDy=0;" edge="1" parent="pflW-3yKm34LbVUq-xgN-790" source="pflW-3yKm34LbVUq-xgN-797" target="pflW-3yKm34LbVUq-xgN-800">
          <mxGeometry relative="1" as="geometry" />
        </mxCell>
        <mxCell id="pflW-3yKm34LbVUq-xgN-797" value="Picking Order reflects in PDA" style="rounded=1;whiteSpace=wrap;html=1;flipH=1;align=left;" vertex="1" parent="pflW-3yKm34LbVUq-xgN-790">
          <mxGeometry x="10.129999999999654" y="140" width="96.12" height="44" as="geometry" />
        </mxCell>
        <mxCell id="pflW-3yKm34LbVUq-xgN-798" value="Yes" style="text;html=1;align=center;verticalAlign=middle;whiteSpace=wrap;rounded=0;" vertex="1" parent="pflW-3yKm34LbVUq-xgN-790">
          <mxGeometry x="49.059999999999945" y="66" width="28.5" height="10" as="geometry" />
        </mxCell>
        <mxCell id="pflW-3yKm34LbVUq-xgN-799" style="edgeStyle=orthogonalEdgeStyle;rounded=0;orthogonalLoop=1;jettySize=auto;html=1;exitX=0.5;exitY=1;exitDx=0;exitDy=0;entryX=0.5;entryY=0;entryDx=0;entryDy=0;" edge="1" parent="pflW-3yKm34LbVUq-xgN-790" source="pflW-3yKm34LbVUq-xgN-800" target="pflW-3yKm34LbVUq-xgN-802">
          <mxGeometry relative="1" as="geometry" />
        </mxCell>
        <mxCell id="pflW-3yKm34LbVUq-xgN-800" value="Accept the Order" style="rounded=1;whiteSpace=wrap;html=1;flipH=1;align=left;" vertex="1" parent="pflW-3yKm34LbVUq-xgN-790">
          <mxGeometry x="10" y="210" width="96.12" height="30" as="geometry" />
        </mxCell>
        <mxCell id="pflW-3yKm34LbVUq-xgN-801" style="edgeStyle=orthogonalEdgeStyle;rounded=0;orthogonalLoop=1;jettySize=auto;html=1;exitX=0.5;exitY=1;exitDx=0;exitDy=0;entryX=0.5;entryY=0;entryDx=0;entryDy=0;" edge="1" parent="pflW-3yKm34LbVUq-xgN-790" source="pflW-3yKm34LbVUq-xgN-802" target="pflW-3yKm34LbVUq-xgN-804">
          <mxGeometry relative="1" as="geometry" />
        </mxCell>
        <mxCell id="pflW-3yKm34LbVUq-xgN-802" value="Picks the Part from Primary WH" style="rounded=1;whiteSpace=wrap;html=1;flipH=1;align=left;" vertex="1" parent="pflW-3yKm34LbVUq-xgN-790">
          <mxGeometry x="10.129999999999654" y="256" width="96.12" height="30" as="geometry" />
        </mxCell>
        <mxCell id="pflW-3yKm34LbVUq-xgN-803" style="edgeStyle=orthogonalEdgeStyle;rounded=0;orthogonalLoop=1;jettySize=auto;html=1;exitX=0.5;exitY=1;exitDx=0;exitDy=0;entryX=0.5;entryY=0;entryDx=0;entryDy=0;" edge="1" parent="pflW-3yKm34LbVUq-xgN-790" source="pflW-3yKm34LbVUq-xgN-804" target="pflW-3yKm34LbVUq-xgN-806">
          <mxGeometry relative="1" as="geometry" />
        </mxCell>
        <mxCell id="pflW-3yKm34LbVUq-xgN-804" value="Locates the Cart Location" style="rounded=1;whiteSpace=wrap;html=1;flipH=1;align=left;" vertex="1" parent="pflW-3yKm34LbVUq-xgN-790">
          <mxGeometry x="10.129999999999654" y="310" width="96.12" height="30" as="geometry" />
        </mxCell>
        <mxCell id="pflW-3yKm34LbVUq-xgN-805" style="edgeStyle=orthogonalEdgeStyle;rounded=0;orthogonalLoop=1;jettySize=auto;html=1;exitX=0.5;exitY=1;exitDx=0;exitDy=0;entryX=0.5;entryY=0;entryDx=0;entryDy=0;" edge="1" parent="pflW-3yKm34LbVUq-xgN-790" source="pflW-3yKm34LbVUq-xgN-806" target="pflW-3yKm34LbVUq-xgN-808">
          <mxGeometry relative="1" as="geometry" />
        </mxCell>
        <mxCell id="pflW-3yKm34LbVUq-xgN-806" value="Replenish &amp;amp; Confirm in PDA" style="rounded=1;whiteSpace=wrap;html=1;flipH=1;align=left;" vertex="1" parent="pflW-3yKm34LbVUq-xgN-790">
          <mxGeometry x="10.129999999999654" y="360" width="96.12" height="30" as="geometry" />
        </mxCell>
        <mxCell id="pflW-3yKm34LbVUq-xgN-807" style="edgeStyle=orthogonalEdgeStyle;rounded=0;orthogonalLoop=1;jettySize=auto;html=1;exitX=1;exitY=0.5;exitDx=0;exitDy=0;entryX=0.5;entryY=1;entryDx=0;entryDy=0;" edge="1" parent="pflW-3yKm34LbVUq-xgN-790" source="pflW-3yKm34LbVUq-xgN-808">
          <mxGeometry relative="1" as="geometry">
            <mxPoint x="165.7449999999999" y="39" as="targetPoint" />
          </mxGeometry>
        </mxCell>
        <mxCell id="pflW-3yKm34LbVUq-xgN-808" value="Order is Closed" style="rounded=1;whiteSpace=wrap;html=1;flipH=1;align=left;" vertex="1" parent="pflW-3yKm34LbVUq-xgN-790">
          <mxGeometry x="49.059999999999945" y="418" width="96.12" height="30" as="geometry" />
        </mxCell>
        <mxCell id="pflW-3yKm34LbVUq-xgN-809" value="Escalate to Shift Head" style="rounded=1;whiteSpace=wrap;html=1;flipH=1;align=left;" vertex="1" parent="pflW-3yKm34LbVUq-xgN-790">
          <mxGeometry x="121.36999999999989" y="9" width="90.75" height="30" as="geometry" />
        </mxCell>
        <mxCell id="pflW-3yKm34LbVUq-xgN-810" value="No" style="text;html=1;align=center;verticalAlign=middle;whiteSpace=wrap;rounded=0;" vertex="1" parent="pflW-3yKm34LbVUq-xgN-790">
          <mxGeometry x="85.55999999999995" y="9" width="28.5" height="10" as="geometry" />
        </mxCell>
        <mxCell id="pflW-3yKm34LbVUq-xgN-811" value="Update Status of the Order" style="text;html=1;align=center;verticalAlign=middle;whiteSpace=wrap;rounded=0;rotation=-90;" vertex="1" parent="pflW-3yKm34LbVUq-xgN-790">
          <mxGeometry x="85.55999999999995" y="330" width="149.25" height="10" as="geometry" />
        </mxCell>
        <mxCell id="pflW-3yKm34LbVUq-xgN-812" style="edgeStyle=orthogonalEdgeStyle;rounded=0;orthogonalLoop=1;jettySize=auto;html=1;exitX=0.5;exitY=1;exitDx=0;exitDy=0;entryX=0.5;entryY=0;entryDx=0;entryDy=0;" edge="1" parent="pflW-3yKm34LbVUq-xgN-819" source="pflW-3yKm34LbVUq-xgN-813" target="pflW-3yKm34LbVUq-xgN-793">
          <mxGeometry relative="1" as="geometry" />
        </mxCell>
        <mxCell id="pflW-3yKm34LbVUq-xgN-813" value="Reflects in Picker PDA" style="rounded=0;whiteSpace=wrap;html=1;" vertex="1" parent="pflW-3yKm34LbVUq-xgN-819">
          <mxGeometry x="1279" y="91.25" width="120" height="30" as="geometry" />
        </mxCell>
        <mxCell id="pflW-3yKm34LbVUq-xgN-814" style="edgeStyle=orthogonalEdgeStyle;rounded=0;orthogonalLoop=1;jettySize=auto;html=1;exitX=0.5;exitY=1;exitDx=0;exitDy=0;" edge="1" parent="pflW-3yKm34LbVUq-xgN-819" source="pflW-3yKm34LbVUq-xgN-815" target="pflW-3yKm34LbVUq-xgN-813">
          <mxGeometry relative="1" as="geometry" />
        </mxCell>
        <mxCell id="pflW-3yKm34LbVUq-xgN-815" value="Auto Assign Cart#" style="rounded=0;whiteSpace=wrap;html=1;" vertex="1" parent="pflW-3yKm34LbVUq-xgN-819">
          <mxGeometry x="1279" y="51.25" width="120" height="20" as="geometry" />
        </mxCell>
        <mxCell id="pflW-3yKm34LbVUq-xgN-817" style="edgeStyle=orthogonalEdgeStyle;rounded=0;orthogonalLoop=1;jettySize=auto;html=1;exitX=0.25;exitY=1;exitDx=0;exitDy=0;entryX=1;entryY=0.25;entryDx=0;entryDy=0;" edge="1" parent="pflW-3yKm34LbVUq-xgN-819" source="pflW-3yKm34LbVUq-xgN-806" target="pflW-3yKm34LbVUq-xgN-747">
          <mxGeometry relative="1" as="geometry" />
        </mxCell>
        <mxCell id="pflW-3yKm34LbVUq-xgN-818" style="edgeStyle=orthogonalEdgeStyle;rounded=0;orthogonalLoop=1;jettySize=auto;html=1;exitX=0.25;exitY=1;exitDx=0;exitDy=0;entryX=1;entryY=0.5;entryDx=0;entryDy=0;" edge="1" parent="pflW-3yKm34LbVUq-xgN-819" source="pflW-3yKm34LbVUq-xgN-806" target="pflW-3yKm34LbVUq-xgN-784">
          <mxGeometry relative="1" as="geometry">
            <mxPoint x="1389.000000000001" y="1889.777560763889" as="targetPoint" />
          </mxGeometry>
        </mxCell>
      </root>
    </mxGraphModel>
  </diagram>
</mxfile>
